<svg xmlns="http://www.w3.org/2000/svg">
    <symbol id="search-svg" viewBox="0 0 19 19">
        <path d="M18.8841 17.7646L13.3647 12.2452C14.4115 10.9528 15.0417 9.30978 15.0417 7.52087C15.0417 3.37389 11.6678 0 7.52083 0C3.37385 0 0 3.37389 0 7.52087C0 11.6678 3.37389 15.0417 7.52087 15.0417C9.30979 15.0417 10.9528 14.4115 12.2452 13.3647L17.7646 18.8841C17.9192 19.0386 18.1698 19.0386 18.3245 18.8841L18.8841 18.3244C19.0386 18.1698 19.0386 17.9191 18.8841 17.7646ZM7.52087 13.4584C4.24673 13.4584 1.58335 10.795 1.58335 7.52087C1.58335 4.24673 4.24673 1.58335 7.52087 1.58335C10.795 1.58335 13.4584 4.24673 13.4584 7.52087C13.4584 10.795 10.795 13.4584 7.52087 13.4584Z"/>
    </symbol>

    <symbol id="favorite-svg" viewBox="0 0 19 17">
        <path d="M16.756 1.20302C15.9742 0.601524 15.0472 0.217536 14.069 0.0900244C13.2511 -0.0212089 12.4188 0.0468429 11.6298 0.289458C10.8408 0.532074 10.1141 0.943443 9.50001 1.49502C8.39617 0.501184 6.94769 -0.0219912 5.46354 0.037106C3.9794 0.0962032 2.5771 0.732894 1.55578 1.81136C0.534467 2.88982 -0.0250097 4.32467 -0.0032971 5.80983C0.0184156 7.29499 0.619599 8.71288 1.67201 9.76102L8.49401 16.583C8.61722 16.7063 8.76363 16.804 8.9248 16.8704C9.08596 16.9369 9.25869 16.9707 9.43301 16.97C9.78475 16.9697 10.1222 16.8306 10.372 16.583L11.429 15.526C11.4951 15.46 11.5475 15.3816 11.5832 15.2952C11.619 15.2089 11.6374 15.1164 11.6374 15.023C11.6374 14.9296 11.619 14.8371 11.5832 14.7508C11.5475 14.6645 11.4951 14.5861 11.429 14.52C11.363 14.454 11.2845 14.4016 11.1982 14.3658C11.1119 14.3301 11.0194 14.3117 10.926 14.3117C10.8326 14.3117 10.7401 14.3301 10.6538 14.3658C10.5675 14.4016 10.4891 14.454 10.423 14.52L9.43301 15.51L2.67901 8.75102C2.24703 8.32092 1.91198 7.80344 1.69632 7.23327C1.48066 6.66311 1.38937 6.05343 1.42858 5.4451C1.46778 4.83677 1.63657 4.24385 1.92363 3.70609C2.21069 3.16832 2.60939 2.69812 3.09301 2.32702C3.67537 1.87348 4.3682 1.58351 5.10001 1.48702C5.75645 1.39563 6.42516 1.45818 7.05326 1.66975C7.68136 1.88131 8.25164 2.23609 8.71901 2.70602L9.50001 3.48702L10.273 2.71402C10.7395 2.24566 11.3084 1.89211 11.9349 1.68125C12.5614 1.4704 13.2283 1.40801 13.883 1.49902C14.6107 1.59556 15.3004 1.88142 15.883 2.32802C16.4263 2.73962 16.8631 3.27533 17.157 3.89033C17.4508 4.50533 17.5931 5.18176 17.572 5.86302C17.5231 6.99284 17.0444 8.06131 16.234 8.85002L12.634 12.444C12.568 12.5101 12.5156 12.5885 12.4798 12.6748C12.4441 12.7611 12.4257 12.8536 12.4257 12.947C12.4257 13.0404 12.4441 13.1329 12.4798 13.2192C12.5156 13.3056 12.568 13.384 12.634 13.45C12.7001 13.5161 12.7785 13.5685 12.8648 13.6042C12.9511 13.64 13.0436 13.6584 13.137 13.6584C13.2304 13.6584 13.3229 13.64 13.4092 13.6042C13.4955 13.5685 13.574 13.5161 13.64 13.45L17.24 9.85002C18.3123 8.80912 18.9425 7.39531 19 5.90202C19.0299 4.99628 18.8416 4.09664 18.4511 3.27887C18.0605 2.4611 17.4792 1.74916 16.756 1.20302V1.20302Z"/>
    </symbol> 

    <symbol id="basket-svg" viewBox="0 0 22 22">
        <g clip-path="url(#clip0_101_25)">
            <path d="M21.8074 5.00088C21.6442 4.80013 21.3993 4.68359 21.1406 4.68359H5.57459L5.51083 4.09784L5.50855 4.07903C5.20347 1.75364 3.20474 0 0.859372 0C0.384742 0 0 0.384742 0 0.859372C0 1.33401 0.384742 1.71875 0.859372 1.71875C2.34206 1.71875 3.60607 2.82515 3.80325 4.29378L4.82475 13.6782C3.93143 14.0836 3.30859 14.9841 3.30859 16.0273C3.30859 16.0345 3.30868 16.0417 3.30885 16.0488C3.30868 16.056 3.30859 16.0631 3.30859 16.0703C3.30859 17.4919 4.46514 18.6484 5.88672 18.6484H6.2364C6.149 18.9047 6.10156 19.1793 6.10156 19.4648C6.10156 20.8627 7.23884 22 8.63675 22C10.0347 22 11.1719 20.8627 11.1719 19.4648C11.1719 19.1793 11.1244 18.9047 11.037 18.6484H14.7443C14.6569 18.9047 14.6094 19.1793 14.6094 19.4648C14.6094 20.8627 15.7467 22 17.1446 22C18.5425 22 19.6797 20.8627 19.6797 19.4648C19.6797 18.067 18.5425 16.9297 17.1446 16.9297H5.88672C5.41286 16.9297 5.02734 16.5442 5.02734 16.0703C5.02734 16.0631 5.02726 16.056 5.02708 16.0488C5.02726 16.0417 5.02734 16.0345 5.02734 16.0273C5.02734 15.5535 5.41286 15.168 5.88672 15.168H16.858C18.3835 15.168 19.7834 14.2241 20.4246 12.7634C20.6154 12.3287 20.4177 11.8218 19.9831 11.631C19.5486 11.4403 19.0416 11.6379 18.8508 12.0726C18.4894 12.896 17.6886 13.4492 16.858 13.4492H6.52869L5.76168 6.40234H20.0835L19.663 8.41824C19.5662 8.88289 19.8642 9.33809 20.3288 9.43502C20.388 9.44738 20.447 9.45327 20.5052 9.45327C20.9036 9.45327 21.261 9.17471 21.3456 8.76926L21.9819 5.71845C22.0347 5.4652 21.9706 5.20163 21.8074 5.00088ZM17.1445 18.6484C17.5947 18.6484 17.9609 19.0147 17.9609 19.4648C17.9609 19.915 17.5947 20.2813 17.1445 20.2813C16.6944 20.2813 16.3281 19.915 16.3281 19.4648C16.3281 19.0147 16.6944 18.6484 17.1445 18.6484ZM8.63675 18.6484C9.08691 18.6484 9.45314 19.0147 9.45314 19.4648C9.45314 19.915 9.08691 20.2813 8.63675 20.2813C8.18652 20.2813 7.82029 19.915 7.82029 19.4648C7.82029 19.0147 8.18652 18.6484 8.63675 18.6484Z"/>
        </g>
    </symbol>  

    <symbol id="user-svg" viewBox="0 0 17 21">
        <path d="M15.76 21C15.5425 21 15.3339 20.9136 15.1802 20.7598C15.0264 20.606 14.94 20.3975 14.94 20.18C14.9381 18.6359 14.3239 17.1557 13.2321 16.0639C12.1403 14.972 10.66 14.3579 9.11598 14.356H7.88498C6.34093 14.3579 4.86065 14.972 3.76884 16.0639C2.67703 17.1557 2.06284 18.6359 2.06098 20.18C2.06098 20.3976 1.97454 20.6063 1.82066 20.7602C1.66679 20.9141 1.45809 21.0005 1.24048 21.0005C1.02287 21.0005 0.814175 20.9141 0.660302 20.7602C0.506428 20.6063 0.419983 20.3976 0.419983 20.18C0.422101 18.2008 1.20927 16.3033 2.60877 14.9038C4.00827 13.5043 5.90579 12.7171 7.88498 12.715H9.11498C11.095 12.7158 12.9938 13.5024 14.3944 14.902C15.795 16.3017 16.5829 18.1999 16.585 20.18C16.585 20.2881 16.5636 20.3951 16.5221 20.495C16.4806 20.5948 16.4197 20.6854 16.343 20.7616C16.2664 20.8378 16.1754 20.8981 16.0753 20.939C15.9753 20.9799 15.8681 21.0007 15.76 21V21Z"/>
        <path d="M8.41798 11.074C7.32287 11.074 6.25235 10.7493 5.34179 10.1408C4.43124 9.53243 3.72155 8.66767 3.30246 7.65592C2.88338 6.64416 2.77373 5.53086 2.98738 4.45678C3.20102 3.38271 3.72837 2.39611 4.50273 1.62175C5.2771 0.847387 6.2637 0.320038 7.33777 0.106392C8.41184 -0.107254 9.52515 0.0023967 10.5369 0.421479C11.5487 0.840562 12.4134 1.55025 13.0218 2.46081C13.6302 3.37136 13.955 4.44188 13.955 5.537C13.9534 7.00502 13.3695 8.41245 12.3315 9.4505C11.2934 10.4885 9.886 11.0724 8.41798 11.074V11.074ZM8.41798 1.64C7.64664 1.64 6.89261 1.86873 6.25126 2.29727C5.60991 2.72581 5.11004 3.3349 4.81485 4.04753C4.51967 4.76017 4.44244 5.54433 4.59292 6.30085C4.7434 7.05738 5.11484 7.75229 5.66027 8.29772C6.20569 8.84314 6.90061 9.21458 7.65713 9.36506C8.41366 9.51555 9.19782 9.43831 9.91045 9.14313C10.6231 8.84795 11.2322 8.34808 11.6607 7.70672C12.0893 7.06537 12.318 6.31135 12.318 5.54C12.3177 4.50583 11.9067 3.51411 11.1753 2.78293C10.444 2.05175 9.45215 1.641 8.41798 1.641V1.64Z"/>
    </symbol>  

    <symbol id="email-svg" viewBox="0 0 25 18">
        <path d="M23.7179 0.817627H1.28208C0.576904 0.817627 0 1.39453 0 2.09966V16.2022C0 16.9073 0.576904 17.4843 1.28208 17.4843H23.718C24.423 17.4843 25 16.9074 25 16.2022V2.09966C25 1.39453 24.4231 0.817627 23.7179 0.817627ZM23.2368 1.7791L13.2375 9.2792C13.0577 9.41602 12.7817 9.50161 12.5 9.50034C12.2182 9.50161 11.9423 9.41602 11.7625 9.2792L1.76313 1.7791H23.2368ZM17.8955 9.77407L23.3442 16.5049C23.3497 16.5116 23.3564 16.5167 23.3622 16.5229H1.63779C1.64355 16.5165 1.65029 16.5116 1.65576 16.5049L7.10449 9.77407C7.27144 9.56767 7.23979 9.26509 7.03301 9.09775C6.82661 8.93081 6.52402 8.96245 6.35703 9.1689L0.961523 15.834V2.38008L11.1858 10.0483C11.5702 10.3346 12.0377 10.4605 12.4999 10.4618C12.9614 10.4608 13.4294 10.3349 13.814 10.0483L24.0383 2.38008V15.8339L18.6429 9.1689C18.4759 8.9625 18.173 8.93076 17.9669 9.09775C17.7602 9.2647 17.7285 9.56767 17.8955 9.77407Z"/>
    </symbol>  

    <symbol id="call-svg" viewBox="0 0 26 26">
        <g clip-path="url(#clip0_31_12)">
            <path d="M25.2502 19.7804L20.1901 16.4059C19.548 15.9811 18.6872 16.1209 18.2125 16.7271L16.7386 18.6222C16.5491 18.872 16.2048 18.9444 15.9308 18.7922L15.6504 18.6376C14.7209 18.131 13.5645 17.5003 11.2344 15.1694C8.90431 12.8385 8.27233 11.6812 7.76571 10.7534L7.61198 10.473C7.45765 10.199 7.52874 9.85325 7.7786 9.66231L9.67246 8.1888C10.2784 7.71402 10.4184 6.8535 9.99409 6.21116L6.6196 1.15108C6.18475 0.496975 5.31232 0.300618 4.63913 0.705294L2.52318 1.97635C1.85834 2.36721 1.37057 3.00022 1.16215 3.74273C0.400206 6.51898 0.973411 11.3104 8.03154 18.3693C13.6461 23.9835 17.8259 25.4933 20.6989 25.4933C21.36 25.4961 22.0186 25.4101 22.6569 25.2375C23.3996 25.0293 24.0327 24.5415 24.4233 23.8765L25.6956 21.7618C26.1009 21.0884 25.9046 20.2155 25.2502 19.7804ZM24.9778 21.3343L23.7084 23.4503C23.4279 23.9303 22.9725 24.2832 22.4377 24.4351C19.8748 25.1388 15.3971 24.5559 8.62101 17.7799C1.84491 11.0038 1.26214 6.5265 1.96579 3.96316C2.11792 3.42769 2.47129 2.97175 2.95188 2.69084L5.06782 1.42145C5.35992 1.24569 5.73857 1.33088 5.92727 1.61473L7.76034 4.36681L9.29889 6.67438C9.48314 6.953 9.4226 7.32643 9.15975 7.5326L7.26545 9.00611C6.68897 9.44691 6.52435 10.2445 6.87927 10.8775L7.02969 11.1508C7.56213 12.1273 8.22409 13.3421 10.6408 15.7585C13.0576 18.1748 14.272 18.8368 15.2481 19.3692L15.5217 19.52C16.1547 19.8749 16.9523 19.7103 17.3931 19.1338L18.8667 17.2395C19.0729 16.9768 19.4462 16.9163 19.7249 17.1004L24.7845 20.4749C25.0686 20.6634 25.1538 21.0423 24.9778 21.3343Z"/>
            <path d="M15.0719 4.66277C18.9815 4.66711 22.1498 7.83544 22.1542 11.7451C22.1542 11.9752 22.3407 12.1617 22.5708 12.1617C22.8008 12.1617 22.9873 11.9752 22.9873 11.7451C22.9825 7.37545 19.4415 3.83437 15.0719 3.82959C14.8418 3.82959 14.6553 4.01609 14.6553 4.24618C14.6553 4.47627 14.8418 4.66277 15.0719 4.66277Z"/>
            <path d="M15.0719 7.16252C17.6016 7.1655 19.6516 9.21549 19.6545 11.7452C19.6545 11.9753 19.8411 12.1618 20.0711 12.1618C20.3012 12.1618 20.4877 11.9753 20.4877 11.7452C20.4842 8.7555 18.0615 6.33276 15.0719 6.32935C14.8418 6.32935 14.6553 6.51584 14.6553 6.74593C14.6553 6.97603 14.8418 7.16252 15.0719 7.16252Z"/>
            <path d="M15.0719 9.66228C16.2217 9.66365 17.1535 10.5954 17.1549 11.7453C17.1549 11.9754 17.3414 12.1619 17.5715 12.1619C17.8015 12.1619 17.9881 11.9754 17.9881 11.7453C17.9862 10.1355 16.6817 8.83091 15.0719 8.8291C14.8418 8.8291 14.6553 9.0156 14.6553 9.24569C14.6553 9.47578 14.8418 9.66228 15.0719 9.66228Z"/>
        </g>
    </symbol>  

    <symbol id="telegram-svg" viewBox="0 0 26 27">
        <g clip-path="url(#clip0_88_640)">
        <path d="M25.5985 2.68204C25.2809 2.2787 24.8052 2.05664 24.2589 2.05664C23.962 2.05664 23.6474 2.12153 23.324 2.24986L1.31553 10.9743C0.147563 11.4372 -0.00974006 12.1318 0.0003765 12.5046C0.0104931 12.8775 0.205485 13.5618 1.39686 13.9555C1.404 13.9577 1.41114 13.96 1.41828 13.962L5.98344 15.3187L8.45228 22.65C8.78891 23.6495 9.54448 24.2704 10.4244 24.2704C10.9792 24.2704 11.5249 24.029 12.0026 23.5725L14.8263 20.8725L18.9219 24.2972C18.9223 24.2976 18.9229 24.2978 18.9233 24.2982L18.9622 24.3307C18.9658 24.3336 18.9696 24.3367 18.9731 24.3396C19.4284 24.7063 19.9253 24.8999 20.4107 24.9001H20.4109C21.3592 24.9001 22.1144 24.1711 22.3344 23.0431L25.9405 4.55225C26.0853 3.81006 25.9639 3.14594 25.5985 2.68204ZM7.51065 15.061L16.3182 10.3885L10.834 16.4399C10.7442 16.539 10.6805 16.6604 10.6492 16.7924L9.59169 21.2406L7.51065 15.061ZM10.9705 22.4086C10.934 22.4434 10.8973 22.4745 10.8606 22.5032L11.8417 18.3767L13.6264 19.8691L10.9705 22.4086ZM24.4474 4.23811L20.8413 22.7291C20.8066 22.9061 20.6957 23.3179 20.4107 23.3179C20.2698 23.3179 20.0929 23.2381 19.9118 23.0933L15.2709 19.2128C15.2703 19.2122 15.2695 19.2116 15.2687 19.2112L12.5072 16.902L20.438 8.15076C20.692 7.87061 20.715 7.44152 20.4926 7.13377C20.27 6.82601 19.8668 6.72919 19.5369 6.90429L6.49284 13.8244L1.8656 12.4496L23.8674 3.72787C24.0532 3.65412 24.183 3.63867 24.2589 3.63867C24.3056 3.63867 24.3885 3.64444 24.4192 3.68378C24.4597 3.73508 24.5113 3.90997 24.4474 4.23811Z"/>
        </g>
    </symbol>  

    <symbol id="vk-svg" viewBox="0 0 26 27">
        <g clip-path="url(#clip0_88_638)">
        <path d="M13.6631 21.9375C17.5691 21.9375 16.1764 19.4648 16.4779 18.7537C16.4734 18.2227 16.4689 17.712 16.4869 17.4015C16.7344 17.4713 17.3182 17.7671 18.5243 18.9394C20.3861 20.8181 20.862 21.9375 22.3661 21.9375H25.1347C26.0122 21.9375 26.469 21.5741 26.6974 21.2693C26.9179 20.9745 27.1339 20.457 26.8976 19.6515C26.28 17.712 22.6777 14.3629 22.4539 14.0096C22.4876 13.9444 22.5416 13.8577 22.5697 13.8127H22.5675C23.2785 12.8734 25.992 8.80762 26.3914 7.18087C26.3925 7.17862 26.3936 7.17525 26.3936 7.17188C26.6096 6.42937 26.4116 5.94788 26.2069 5.67563C25.8986 5.26838 25.4081 5.0625 24.7455 5.0625H21.9769C21.0499 5.0625 20.3468 5.52937 19.9913 6.381C19.3961 7.89412 17.7244 11.0059 16.4711 12.1073C16.4329 10.5469 16.4587 9.3555 16.479 8.47012C16.5195 6.74325 16.65 5.0625 14.8579 5.0625H10.5064C9.38363 5.0625 8.30925 6.28875 9.4725 7.7445C10.4895 9.02025 9.83812 9.73125 10.0575 13.2705C9.2025 12.3536 7.6815 9.8775 6.606 6.71288C6.3045 5.85675 5.84775 5.06362 4.56187 5.06362H1.79325C0.6705 5.06362 0 5.67562 0 6.7005C0 9.00225 5.09513 21.9375 13.6631 21.9375ZM4.56187 6.75112C4.806 6.75112 4.83075 6.75113 5.01188 7.26525C6.11325 10.5086 8.58375 15.3079 10.3883 15.3079C11.7439 15.3079 11.7439 13.9185 11.7439 13.3954L11.7428 9.23063C11.6685 7.8525 11.1668 7.16625 10.8371 6.75L14.7836 6.7545C14.7859 6.77363 14.7611 11.3614 14.7949 12.4729C14.7949 14.0512 16.0481 14.9558 18.0045 12.9758C20.0689 10.6459 21.4965 7.16288 21.5539 7.02113C21.6383 6.81863 21.7114 6.75 21.9769 6.75H24.7455H24.7568C24.7556 6.75338 24.7556 6.75675 24.7545 6.76012C24.5014 7.94137 22.0028 11.7056 21.1669 12.8745C21.1534 12.8925 21.141 12.9116 21.1286 12.9308C20.7607 13.5315 20.4615 14.1952 21.1793 15.129H21.1804C21.2456 15.2078 21.4155 15.3923 21.663 15.6488C22.4325 16.443 25.0717 19.1587 25.3057 20.2387C25.1505 20.2635 24.9818 20.2455 22.3661 20.2511C21.8092 20.2511 21.3739 19.4186 19.7122 17.7424C18.2183 16.2889 17.2485 15.6949 16.3654 15.6949C14.6509 15.6949 14.7758 17.0865 14.7915 18.7695C14.7971 20.5942 14.7859 20.0171 14.7983 20.1319C14.6981 20.1713 14.4113 20.25 13.6631 20.25C6.525 20.25 1.8765 8.92013 1.69762 6.7545C1.7595 6.74888 2.61112 6.75225 4.56187 6.75112Z"/>
        </g>
    </symbol>  

    <symbol id="prev-btn" viewBox="0 0 12 20">
        <path d="M0.325817 9.2196L9.41557 0.31951C9.62581 0.113495 9.90645 0 10.2057 0C10.5049 0 10.7856 0.113495 10.9958 0.31951L11.6652 0.974789C12.1008 1.40178 12.1008 2.09576 11.6652 2.52209L4.03233 9.99585L11.6737 17.4779C11.8839 17.6839 12 17.9586 12 18.2514C12 18.5446 11.8839 18.8192 11.6737 19.0254L11.0043 19.6805C10.7939 19.8865 10.5134 20 10.2142 20C9.91492 20 9.63428 19.8865 9.42404 19.6805L0.325817 10.7723C0.115084 10.5656 -0.000660896 10.2897 2.86102e-06 9.99634C-0.000660896 9.70187 0.115084 9.4261 0.325817 9.2196Z"/>
    </symbol>

    <symbol id="next-btn" viewBox="0 0 12 20">
        <path d="M11.6742 10.7804L2.58443 19.6805C2.37419 19.8865 2.09355 20 1.7943 20C1.49506 20 1.21441 19.8865 1.00418 19.6805L0.334782 19.0252C-0.1008 18.5982 -0.1008 17.9042 0.334782 17.4779L7.96767 10.0041L0.326313 2.52209C0.116078 2.31608 0 2.04145 0 1.7486C0 1.45543 0.116078 1.1808 0.326313 0.974625L0.99571 0.319508C1.20611 0.113495 1.48659 0 1.78583 0C2.08508 0 2.36572 0.113495 2.57596 0.319508L11.6742 9.22773C11.8849 9.43439 12.0007 9.71033 12 10.0037C12.0007 10.2981 11.8849 10.5739 11.6742 10.7804Z"/>
    </symbol>

    <symbol id="favorite-btn" viewBox="0 0 24 24">
        <path d="M12 21.35l-1.45-1.32C5.4 15.36 2 12.28 2 8.5 2 5.42 4.42 3 7.5 3c1.74 0 3.41.81 4.5 2.09C13.09 3.81 14.76 3 16.5 3 19.58 3 22 5.42 22 8.5c0 3.78-3.4 6.86-8.55 11.54L12 21.35z"/>
    </symbol>

    <symbol id="mailer-icon" viewBox="0 0 30 27">
        <path d="M23.687 26.1629C23.285 26.1629 22.844 26.0309 22.367 25.7679L11.564 17.7919C11.443 17.7029 11.369 17.5639 11.361 17.4139C11.354 17.2639 11.414 17.1189 11.526 17.0179L24.322 5.50285C24.527 5.31785 24.843 5.33385 25.028 5.53985C25.213 5.74485 25.196 6.06085 24.991 6.24585L12.651 17.3519L22.905 24.9279C23.176 25.0729 23.634 25.2569 23.96 25.1059C24.292 24.9539 24.456 24.4689 24.536 24.0889L28.911 3.47185C29.081 2.79085 28.999 2.24285 28.696 1.99085C28.465 1.79885 28.121 1.78485 27.749 1.95285L2.03299 11.8709C1.24399 12.1879 0.995992 12.5139 0.999992 12.6219C1.00299 12.6929 1.17299 12.8889 1.67999 13.0439L8.05499 15.0339L15.054 10.6179C15.288 10.4719 15.596 10.5409 15.743 10.7739C15.89 11.0069 15.821 11.3159 15.587 11.4629L8.39299 16.0019C8.26899 16.0799 8.11599 16.0999 7.97699 16.0569L1.38499 13.9989C0.214992 13.6409 0.0149925 13.0089 0.000992454 12.6639C-0.0190075 12.1909 0.253992 11.5069 1.66799 10.9409L27.363 1.03285C28.06 0.714852 28.808 0.782852 29.337 1.22385C29.95 1.73485 30.15 2.63685 29.886 3.69785L25.515 24.2959C25.331 25.1739 24.949 25.7529 24.378 26.0149C24.163 26.1139 23.933 26.1629 23.687 26.1629Z"/>
        <path d="M23.687 26.3274C23.285 26.3274 22.844 26.1954 22.367 25.9324L15.647 20.9734C15.425 20.8094 15.377 20.4954 15.542 20.2744C15.706 20.0524 16.02 20.0044 16.241 20.1694L22.905 25.0924C23.176 25.2374 23.634 25.4214 23.96 25.2704C24.292 25.1184 24.456 24.6334 24.536 24.2534L28.911 3.6364C29.081 2.9554 28.999 2.4074 28.696 2.1554C28.465 1.9634 28.121 1.9494 27.749 2.1174L2.03299 12.0354C1.24399 12.3524 0.995992 12.6784 0.999992 12.7864C1.00299 12.8574 1.17299 13.0534 1.67999 13.2084L8.27399 15.2664C8.43199 15.3154 8.55499 15.4404 8.60399 15.5984L10.871 23.0594C10.932 23.2264 10.979 23.3924 11.02 23.5364C11.052 23.6504 11.092 23.7924 11.119 23.8344C11.115 23.8294 11.195 23.8534 11.408 23.8544C11.855 23.8544 12.025 23.6874 12.365 23.3564L14.025 21.7424C14.223 21.5484 14.539 21.5544 14.732 21.7524C14.924 21.9504 14.92 22.2674 14.722 22.4594L13.09 24.0444C12.688 24.4374 12.262 24.8534 11.408 24.8534C10.428 24.8534 10.23 24.4194 10.057 23.8074C10.022 23.6834 9.98199 23.5404 9.92199 23.3754L7.72399 16.1424L1.38499 14.1634C0.214992 13.8054 0.0149925 13.1734 0.000992454 12.8284C-0.0190075 12.3554 0.253992 11.6714 1.66799 11.1054L27.363 1.1974C28.06 0.879403 28.808 0.947403 29.337 1.3884C29.95 1.8994 30.15 2.8014 29.886 3.8624L25.515 24.4604C25.331 25.3384 24.949 25.9174 24.378 26.1794C24.163 26.2784 23.933 26.3274 23.687 26.3274Z"/>
        <path d="M17.5 10C17.5 10.275 17.275 10.5 17 10.5C16.725 10.5 16.5 10.275 16.5 10C16.5 9.725 16.725 9.5 17 9.5C17.275 9.5 17.5 9.725 17.5 10Z"/>
    </symbol>

    <symbol id="original-icon" viewBox="0 0 36 36">
        <path d="M26.392 36H3.60799C1.58299 35.967 -0.0320067 34.298 -6.69074e-06 32.272V5.3C-0.0330067 3.274 1.58199 1.605 3.60799 1.572H4.55699V0.591C4.55199 0.271 4.80699 0.008 5.12699 0.003H6.64599C6.96499 0.008 7.21999 0.272 7.21499 0.591V1.572H10.633V0.591C10.627 0.271 10.881 0.007 11.2 0H12.719C13.039 0.005 13.294 0.268 13.289 0.588V1.569H16.707V0.588C16.703 0.269 16.957 0.005 17.277 0H18.8C19.12 0.005 19.375 0.268 19.37 0.588V1.569H22.788V0.588C22.783 0.269 23.038 0.005 23.357 0H24.876C25.196 0.005 25.451 0.268 25.446 0.588V1.569H26.395C28.421 1.604 30.035 3.274 30 5.3V32.275C30.032 34.299 28.417 35.967 26.392 36ZM27.343 5.395C27.352 4.809 26.885 4.325 26.298 4.316H25.444V5.3C25.449 5.62 25.194 5.884 24.874 5.889H23.355C23.035 5.883 22.78 5.62 22.785 5.3V4.319H19.367V5.3C19.372 5.62 19.117 5.884 18.797 5.889H17.278C16.958 5.883 16.704 5.62 16.709 5.3V4.319H13.291V5.3C13.296 5.62 13.041 5.884 12.721 5.889H11.2C10.88 5.883 10.626 5.62 10.631 5.3V4.319H7.21399V5.3C7.21899 5.62 6.96499 5.883 6.64499 5.889H5.12499C4.80599 5.884 4.54999 5.62 4.55499 5.3V4.319H3.70099C3.11499 4.329 2.64799 4.812 2.65699 5.398V32.177C2.64799 32.763 3.11499 33.246 3.70099 33.256H26.301C26.887 33.247 27.355 32.764 27.346 32.177V5.4L27.343 5.395ZM22.88 27.27H12.722C12.402 27.264 12.148 27.001 12.153 26.681V25.112C12.148 24.792 12.402 24.529 12.722 24.523H22.88C23.2 24.529 23.454 24.792 23.449 25.112V26.681C23.455 27.001 23.2 27.264 22.88 27.27ZM22.88 20.796H12.722C12.402 20.79 12.148 20.527 12.153 20.207V18.638C12.148 18.318 12.402 18.055 12.722 18.049H22.88C23.2 18.055 23.454 18.318 23.449 18.638V20.207C23.456 20.527 23.202 20.793 22.882 20.8C22.881 20.8 22.881 20.8 22.88 20.8V20.796ZM22.88 13.635H7.59999C7.27999 13.63 7.02499 13.366 7.02999 13.046V11.477C7.02499 11.157 7.27999 10.893 7.59999 10.888H22.88C23.2 10.894 23.454 11.157 23.449 11.477V13.046C23.455 13.366 23.2 13.629 22.88 13.635ZM7.59999 18.049H10.068C10.388 18.054 10.643 18.318 10.638 18.638V20.207C10.643 20.527 10.388 20.791 10.068 20.796H7.59999C7.27999 20.791 7.02499 20.527 7.02999 20.207V18.638C7.02499 18.318 7.28099 18.054 7.59999 18.049ZM7.59999 24.523H10.068C10.388 24.528 10.643 24.792 10.638 25.112V26.681C10.643 27.001 10.388 27.265 10.068 27.27H7.59999C7.27999 27.265 7.02499 27.001 7.02999 26.681V25.112C7.02499 24.792 7.28099 24.528 7.59999 24.523Z"/>
    </symbol>

    <symbol id="zapchasti-icon" viewBox="0 0 36 36">
        <path d="M18 36C8.059 36 0 27.941 0 18C0 8.059 8.059 0 18 0C27.941 0 36 8.059 36 18C36 27.941 27.941 36 18 36ZM29.883 28.336C32.127 25.764 33.471 22.53 33.71 19.125H31.453C31.222 21.933 30.115 24.597 28.287 26.74L29.883 28.336ZM6.15 28.374L7.75 26.774C5.903 24.624 4.783 21.946 4.55 19.121H2.29C2.53 22.545 3.886 25.795 6.15 28.374ZM2.29 16.874C2.79 16.88 4.172 16.896 4.546 16.881C4.775 14.071 5.882 11.404 7.711 9.258L6.087 7.694C3.859 10.263 2.527 13.485 2.29 16.877V16.874ZM16.875 2.287C13.485 2.526 10.264 3.86 7.697 6.087L9.261 7.711C11.405 5.885 14.068 4.778 16.875 4.547V2.29V2.287ZM6.75 18C6.757 21.353 8.266 24.526 10.862 26.648L9.316 28.335L9.305 28.326L7.773 29.977C13.678 35.02 22.378 35.006 28.267 29.944L26.734 28.293L26.714 28.31L25.122 26.729C29.94 22.799 30.66 15.708 26.73 10.891C22.8 6.074 15.71 5.353 10.892 9.282C8.272 11.419 6.752 14.62 6.75 18ZM19.125 2.29V4.547C21.917 4.777 24.567 5.873 26.705 7.682L28.335 6.115C25.763 3.872 22.529 2.529 19.125 2.29ZM29.883 7.663L28.283 9.263C30.11 11.407 31.217 14.071 31.448 16.879H33.705C33.468 13.473 32.126 10.237 29.883 7.663ZM21.3 18C21.301 19.826 19.821 21.306 17.995 21.307C16.169 21.308 14.689 19.828 14.688 18.002C14.687 16.176 16.167 14.696 17.993 14.695C18.496 14.695 18.992 14.809 19.444 15.03L23.126 11.348L24.717 12.939L21.01 16.647C21.201 17.072 21.3 17.534 21.3 18ZM16.8 18C16.797 18.663 17.332 19.202 17.995 19.205C18.658 19.208 19.197 18.673 19.2 18.01C19.203 17.347 18.668 16.808 18.005 16.805C18.003 16.805 18.002 16.805 18 16.805C17.34 16.802 16.803 17.335 16.8 17.995C16.8 17.997 16.8 17.998 16.8 18ZM21.37 29.25H14.62V27H21.37V29.25Z"/>
    </symbol>

    <symbol id="shini-icon" viewBox="0 0 36 36">
        <path d="M18 36C8.059 36 0 27.941 0 18C0 8.059 8.059 0 18 0C27.941 0 36 8.059 36 18C36 27.941 27.941 36 18 36ZM29.921 7.709L29.883 7.734L28.266 9.281L26.719 7.664L28.331 6.114C25.742 3.856 22.483 2.511 19.055 2.286V4.5H16.805V2.3C13.408 2.554 10.186 3.907 7.626 6.155L9.141 7.669L7.523 9.216L6.052 7.744C3.846 10.304 2.527 13.509 2.29 16.88H4.359V19.13H2.29C2.529 22.535 3.873 25.769 6.117 28.341L7.594 26.864L9.141 28.411L7.699 29.918C10.247 32.129 13.441 33.458 16.805 33.71V31.57H19.055V33.715C22.468 33.49 25.714 32.156 28.298 29.915L26.719 28.336L28.266 26.789L29.85 28.373C32.113 25.795 33.469 22.547 33.709 19.125H31.43V16.875H33.71C33.472 13.49 32.143 10.274 29.921 7.709ZM18 29.953C11.399 29.953 6.047 24.601 6.047 18C6.047 11.399 11.399 6.047 18 6.047C24.601 6.047 29.953 11.399 29.953 18C29.953 24.601 24.601 29.953 18 29.953ZM18 8.297C12.643 8.297 8.3 12.64 8.3 17.997C8.3 23.354 12.643 27.697 18 27.697C23.357 27.697 27.7 23.354 27.7 17.997C27.698 12.641 23.356 8.3 18 8.3V8.297Z"/>
    </symbol>

    <symbol id="diski-icon" viewBox="0 0 36 36">
        <path d="M18 36C8.059 36 0 27.941 0 18C0 8.059 8.059 0 18 0C27.941 0 36 8.059 36 18C36 27.941 27.941 36 18 36ZM18 2.25C9.302 2.25 2.25 9.302 2.25 18C2.25 26.698 9.302 33.75 18 33.75C26.698 33.75 33.75 26.698 33.75 18C33.75 9.302 26.698 2.25 18 2.25ZM18 29.95C11.399 29.952 6.046 24.601 6.044 18C6.042 11.399 11.393 6.046 17.994 6.044C24.595 6.042 29.948 11.393 29.95 17.994C29.95 17.996 29.95 17.998 29.95 18C29.95 24.6 24.6 29.951 18 29.953V29.95ZM18 27.7C19.556 27.702 21.09 27.327 22.47 26.609L18.91 22.709V22.692C18.315 22.806 17.705 22.806 17.11 22.692L13.527 26.607C14.908 27.326 16.443 27.701 18 27.7ZM18 15.536C16.641 15.535 15.539 16.637 15.538 17.996C15.537 19.355 16.639 20.457 17.998 20.458C19.357 20.459 20.459 19.357 20.46 17.998V17.997C20.459 16.639 19.358 15.539 18 15.539V15.536ZM8.3 18C8.297 20.745 9.46 23.363 11.5 25.2L14.055 20.7C13.553 19.967 13.267 19.108 13.229 18.22L8.467 16.247C8.359 16.825 8.303 17.412 8.3 18ZM9.008 14.356L14.153 15.168C14.63 14.519 15.263 14 15.993 13.661L16.843 8.361C13.334 8.784 10.332 11.08 9.005 14.356H9.008V14.356ZM19.208 8.37L20.108 13.702C20.801 14.042 21.401 14.545 21.858 15.168L27.008 14.376C25.691 11.103 22.701 8.803 19.2 8.37H19.208V8.37ZM22.788 18.227C22.745 19.108 22.458 19.96 21.958 20.687L24.498 25.217C26.541 23.375 27.705 20.751 27.7 18C27.699 17.435 27.652 16.872 27.56 16.315L22.788 18.227Z"/>
    </symbol>

    <symbol id="akkumulator-icon" viewBox="0 0 41 36">
        <g clip-path="url(#clip0_2_9)">
            <path opacity="0.1" d="M20.234 28.469C25.3686 28.469 29.531 24.3836 29.531 19.344C29.531 14.3044 25.3686 10.219 20.234 10.219C15.0994 10.219 10.937 14.3044 10.937 19.344C10.937 24.3836 15.0994 28.469 20.234 28.469Z"/>
            <path d="M34.987 36H6.013C2.72 36.028 0.029 33.382 0 30.089V8.6C0.019 5.728 2.091 3.281 4.92 2.789V1.612C4.928 0.714 5.662 -0.00799996 6.56 4.13347e-08H10.933C11.831 -0.00799996 12.565 0.714 12.573 1.612V2.687H28.427V1.612C28.435 0.714 29.169 -0.00799996 30.067 4.13347e-08H34.44C35.338 -0.00799996 36.072 0.714 36.08 1.612V2.741C36.136 2.763 36.189 2.791 36.239 2.825C38.994 3.379 40.981 5.79 41 8.6V30.089C40.971 33.382 38.28 36.028 34.987 36ZM38.267 9.672C38.257 7.596 37.049 5.712 35.167 4.836H6.287C6.177 4.836 6.068 4.814 5.966 4.771C4.012 5.618 2.744 7.541 2.734 9.671V30.627C2.747 32.124 3.97 33.327 5.467 33.314H35.533C37.03 33.327 38.253 32.124 38.266 30.627L38.267 9.672ZM34.44 12.9H32.8V14.512C32.787 14.814 32.532 15.048 32.23 15.035C31.946 15.023 31.719 14.796 31.707 14.512V12.9H30.067C29.77 12.9 29.529 12.659 29.529 12.362C29.529 12.065 29.77 11.825 30.067 11.825H31.707V10.209C31.72 9.907 31.975 9.673 32.277 9.686C32.561 9.698 32.788 9.925 32.8 10.209V11.821H34.44C34.738 11.821 34.98 12.063 34.98 12.361C34.98 12.659 34.738 12.9 34.44 12.9ZM18.69 25.254L20.046 20.147H16.946L21.5 13.433L21.016 18.256H24.6L18.69 25.254ZM10.933 12.9H6.56C6.263 12.9 6.023 12.659 6.023 12.362C6.023 12.065 6.264 11.825 6.56 11.825H10.933C11.215 11.733 11.527 11.914 11.618 12.196C11.71 12.478 11.555 12.781 11.273 12.873C11.166 12.908 11.05 12.908 10.933 12.9Z"/>
        </g>
    </symbol>

    <symbol id="maslo-icon" viewBox="0 0 34 36">
        <g clip-path="url(#clip0_2_14)">
        <path opacity="0.1" d="M4.784 15.075C4.784 15.075 12.228 14.375 18.407 17.466C25.423 20.981 33 17.466 33 17.466L32.208 34.167L6.25 34.208L4.792 27.708C7.637 26.914 9.667 26.473 9.584 23.52C9.583 20.22 4.784 15.075 4.784 15.075Z"/>
        <path d="M29.325 36H9.208C6.635 36.009 4.542 33.932 4.533 31.359V29.065C1.889 28.516 -0.00499966 26.184 3.39498e-07 23.484C3.39498e-07 20.839 2.44 17.075 4.533 15.359V0H13.6V3.375H15.319L16.9 5.625H27.058C29.631 5.616 31.724 7.693 31.733 10.266V15.288C33.137 16.122 33.999 17.633 34 19.266V31.359C33.991 33.932 31.898 36.009 29.325 36ZM2.267 23.625C2.173 25.394 3.53 26.904 5.298 26.998C5.401 27.004 5.504 27.004 5.607 27C5.968 26.987 6.327 26.944 6.681 26.871C8.147 26.496 9.146 25.138 9.066 23.627C9.066 22.205 7.903 20.035 6.729 18.533C6.729 18.533 6.518 18.3 6.271 17.98C6.108 17.796 5.947 17.629 5.793 17.48C5.74 17.429 5.663 17.411 5.593 17.434C5.572 17.445 5.551 17.458 5.531 17.47C5.248 17.711 4.985 17.975 4.746 18.259C4.666 18.377 4.531 18.519 4.531 18.519C3.306 19.971 2.521 21.742 2.267 23.625ZM11.333 2.25H6.8V4.038C7.528 3.603 8.36 3.374 9.208 3.375H11.333V2.25ZM29.467 9.914C29.463 8.784 28.543 7.871 27.413 7.875H18.484L23.233 14.625H29.325C29.373 14.625 29.42 14.625 29.467 14.625V9.914ZM31.734 18.914C31.73 17.784 30.81 16.871 29.68 16.875L22.108 16.855L14.163 5.625H8.783C7.653 5.621 6.733 6.534 6.729 7.664V15.426C8.867 17.283 11.329 20.802 11.329 23.485C11.334 26.211 9.405 28.557 6.729 29.079V31.712C6.734 32.842 7.653 33.754 8.783 33.75H29.683C30.813 33.754 31.733 32.841 31.737 31.711V18.911L31.734 18.914ZM15.867 28.125H27.2V30.375H15.867V28.125ZM15.867 24.75H27.2V27H15.867V24.75ZM15.867 21.375H27.2V23.625H15.867V21.375ZM5.667 23.625C5.671 24.251 5.168 24.762 4.542 24.766C3.916 24.77 3.405 24.267 3.401 23.641C3.397 23.015 3.9 22.504 4.526 22.5C4.528 22.5 4.531 22.5 4.533 22.5C5.157 22.497 5.664 23 5.667 23.624V23.625Z"/>
        </g>
    </symbol>

    <symbol id="avtoximiya-icon" viewBox="0 0 28 35">
        <g clip-path="url(#clip0_2_19)">
        <path d="M28 29.224C28.068 32.344 25.594 34.93 22.474 35H5.526C2.406 34.93 -0.0680044 32.344 -4.43973e-06 29.224C-0.00300444 28.055 0.338996 26.91 0.983996 25.935C1.107 25.641 1.283 25.372 1.503 25.142L8.361 17.942V11.642H7.161C6.333 11.642 5.661 10.97 5.661 10.142C5.661 9.314 6.333 8.642 7.161 8.642H20.833C21.661 8.642 22.333 9.314 22.333 10.142C22.333 10.97 21.661 11.642 20.833 11.642H19.646V17.931L26.527 25.124C26.795 25.402 26.998 25.737 27.118 26.104C27.696 27.042 28.001 28.122 28 29.224ZM5.567 32.09H22.433C24.004 32.054 25.25 30.753 25.216 29.181C25.219 28.462 24.96 27.765 24.489 27.222L24.307 27.032C24.218 26.947 24.123 26.867 24.024 26.794L23.124 25.813C22.064 26.054 20.981 26.179 19.894 26.186C17.26 26.043 16.285 24.71 13.753 24.817C11.817 24.898 10.938 25.761 9.005 26.017C7.647 26.238 6.256 26.158 4.932 25.784L3.522 27.265C3.463 27.326 3.403 27.382 3.341 27.436C2.976 27.945 2.781 28.557 2.783 29.183C2.75 30.754 3.996 32.055 5.567 32.09ZM17.556 19.976C17.348 19.759 17.179 19.508 17.056 19.234C16.877 18.976 16.781 18.67 16.782 18.356V11.638H11.214V18.376C11.215 18.691 11.118 18.998 10.938 19.256C10.817 19.527 10.649 19.776 10.444 19.991L7.431 23.156C9.163 23.585 11.931 21.678 14.244 21.822C16.359 21.953 17.461 23.003 19.729 23.191C20.052 23.217 20.373 23.236 20.679 23.242L17.556 19.976ZM16.825 5.733C15.242 5.803 13.902 4.577 13.832 2.994C13.762 1.411 14.988 0.0709995 16.571 0.000999523C18.154 -0.0690005 19.494 1.157 19.564 2.74C19.566 2.782 19.567 2.825 19.567 2.867C19.601 4.415 18.373 5.698 16.825 5.733ZM10.52 7.274C9.315 7.327 8.29499 6.393 8.24199 5.188C8.18899 3.983 9.123 2.963 10.328 2.91C11.533 2.857 12.553 3.791 12.606 4.996C12.607 5.028 12.608 5.06 12.608 5.092C12.634 6.271 11.699 7.248 10.52 7.274Z"/>
        </g>
    </symbol>

    <symbol id="aksessuar-icon" viewBox="0 0 27 35">
    <g clip-path="url(#clip0_2_21)">
    <path d="M25.962 25.588H17.505V27.059H19.953C21.87 27.05 23.431 28.597 23.44 30.514V30.515V32.794C23.434 34.018 22.438 35.005 21.214 35H5.786C4.562 35.005 3.566 34.018 3.56 32.794V30.515C3.568 28.598 5.129 27.051 7.046 27.059H7.047H9.5V25.588H1.043C0.476001 25.594 0.0110013 25.139 0.00600133 24.572C0.00200133 24.218 0.181001 23.887 0.479001 23.696C0.526001 23.587 0.589001 23.486 0.666001 23.396L6.306 16.764H5.131C4.561 16.767 4.095 16.308 4.092 15.737C4.092 15.736 4.092 15.736 4.092 15.735C4.092 15.509 4.168 15.289 4.307 15.111C4.356 14.969 4.432 14.837 4.53 14.722L8.27 10.296H8.029C7.462 10.302 6.997 9.848 6.991 9.28C6.987 8.943 7.149 8.626 7.424 8.431C7.449 8.396 7.475 8.363 7.503 8.331L10.261 5.05L7.897 1.563C7.585 1.114 7.696 0.497 8.145 0.185C8.149 0.182 8.153 0.18 8.157 0.177C8.615 -0.135 9.24 -0.0209998 9.557 0.434L11.604 3.453L12.637 2.225C12.692 2.134 12.761 2.052 12.843 1.984C13.058 1.808 13.336 1.73 13.611 1.767C13.825 1.776 14.031 1.854 14.196 1.99C14.264 2.048 14.323 2.115 14.372 2.19L15.42 3.439L17.381 0.539C17.697 0.0870002 18.317 -0.0269998 18.773 0.283C19.224 0.588 19.343 1.201 19.039 1.652C19.036 1.656 19.034 1.659 19.031 1.663L16.755 5.032L19.522 8.332C19.551 8.366 19.577 8.401 19.602 8.438C20.064 8.767 20.171 9.409 19.842 9.87C19.647 10.143 19.331 10.304 18.995 10.3H18.757L22.489 14.728C22.587 14.843 22.663 14.975 22.713 15.118C22.851 15.296 22.926 15.515 22.926 15.741C22.924 16.312 22.459 16.773 21.888 16.771H20.717L26.346 23.404C26.422 23.494 26.485 23.595 26.533 23.704C27.006 24.017 27.135 24.655 26.822 25.127C26.631 25.417 26.308 25.589 25.962 25.588ZM13.516 4.388L10.28 8.237H10.48C10.85 8.235 11.193 8.43 11.38 8.749C11.014 7.586 11.659 6.347 12.822 5.981C13.042 5.912 13.272 5.877 13.503 5.879C13.587 5.879 13.67 5.884 13.753 5.894L14.212 5.214L13.516 4.388ZM13.129 8.088C13.127 8.293 13.291 8.461 13.496 8.463C13.701 8.465 13.869 8.301 13.871 8.096C13.873 7.891 13.709 7.723 13.504 7.721C13.503 7.721 13.501 7.721 13.5 7.721C13.296 7.721 13.131 7.884 13.129 8.088ZM18.043 16.819C17.96 16.722 17.892 16.613 17.843 16.496C17.626 16.302 17.502 16.026 17.502 15.735C17.505 15.164 17.97 14.703 18.541 14.706H19.76L15.96 10.206C15.913 10.15 15.871 10.09 15.834 10.027C15.62 9.834 15.497 9.559 15.497 9.27C15.499 8.699 15.964 8.238 16.535 8.24H16.735L15.535 6.814L15.417 6.988C15.614 7.323 15.717 7.704 15.717 8.093C15.704 9.324 14.695 10.311 13.464 10.298C12.621 10.289 11.855 9.805 11.485 9.047C11.502 9.121 11.511 9.198 11.511 9.274C11.511 9.563 11.388 9.839 11.173 10.033C11.137 10.096 11.094 10.155 11.047 10.21L7.247 14.71H8.471C9.038 14.701 9.504 15.153 9.513 15.719C9.518 16.017 9.393 16.302 9.171 16.501C9.122 16.618 9.054 16.726 8.971 16.822L3.266 23.531H10.552C11.123 23.528 11.588 23.989 11.591 24.56C11.591 24.631 11.583 24.702 11.568 24.772V28.089C11.566 28.66 11.101 29.121 10.53 29.119H6.821C6.169 29.116 5.637 29.643 5.634 30.295V32.942H21.36V30.295C21.357 29.643 20.825 29.116 20.173 29.119H16.464C15.893 29.121 15.428 28.66 15.426 28.089V24.56C15.428 23.989 15.893 23.528 16.464 23.53H23.735L18.043 16.819Z"/>
    </g>
    </symbol>

    <symbol id="instrument-icon" viewBox="0 0 37 35">
    <g clip-path="url(#clip0_2_6)">
    <path opacity="0.1" d="M26.3 1.467L21.141 1.7L16.18 4.59L14.391 8.465L13.74 13.684L13.7 16.452L2.6 26.772L1.99 28.749L3.7 30.686L5.733 32.586C5.733 32.586 7.204 33.269 7.319 33.258C7.434 33.247 9.962 30.965 9.962 30.965L18.785 22.465C18.785 22.465 19.735 21.365 19.801 21.358C19.867 21.351 22.688 21.558 22.688 21.558L25.088 21.637C25.088 21.637 28.205 20.751 28.382 20.649C28.559 20.547 30.782 19.028 30.782 19.028L33.182 15.983L34.8 10.521L34.193 8.7L34.234 7.87L32.12 9.57L30.494 11.349L29.07 12.617L28.46 13.329L27.2 14L26.265 12.893L24.6 11.47L23.3 9.73L21.344 7.516L25.817 3.088L26.549 2.139L26.712 1.506L26.3 1.467Z"/>
    <path d="M20.355 22.553V22.527L7.906 34.632C7.396 35.123 6.589 35.123 6.079 34.632L0.378998 29.088C-0.111002 28.617 -0.127002 27.838 0.343998 27.347C0.355998 27.335 0.366998 27.323 0.378998 27.312L12.808 15.227C11.386 11.057 12.508 6.44 15.685 3.388C18.756 0.431 23.154 -0.698 27.269 0.415L27.234 0.449C27.552 0.455 27.856 0.58 28.086 0.8C28.562 1.257 28.577 2.013 28.12 2.488C28.109 2.499 28.098 2.511 28.086 2.522L22.495 7.963L27.81 13.13L33.4 7.694C33.895 7.218 34.677 7.218 35.172 7.694C35.373 7.888 35.5 8.145 35.531 8.422L35.549 8.4C36.728 12.453 35.559 16.826 32.515 19.75C29.289 22.855 24.615 23.932 20.355 22.553ZM33.405 11.134L28.7 15.713C28.205 16.189 27.423 16.189 26.928 15.713C26.873 15.659 26.822 15.6 26.778 15.536C26.713 15.493 26.652 15.444 26.596 15.39L20.169 9.147C20.114 9.093 20.063 9.034 20.019 8.97C19.954 8.927 19.893 8.878 19.837 8.824C19.361 8.367 19.346 7.611 19.803 7.136C19.814 7.125 19.825 7.113 19.837 7.102L24.548 2.522C21.938 2.391 19.391 3.348 17.512 5.164C14.974 7.523 14.027 11.136 15.083 14.436L15.127 14.587C15.157 14.611 15.186 14.636 15.214 14.664C15.704 15.136 15.72 15.916 15.248 16.406C15.237 16.418 15.226 16.429 15.214 16.44L3.117 28.2L6.992 31.968L18.176 21.1L16.266 19.243C15.776 18.771 15.76 17.991 16.232 17.501C16.243 17.489 16.254 17.478 16.266 17.467C16.776 16.976 17.583 16.976 18.093 17.467L20.71 20.011C24.149 21.32 28.035 20.529 30.688 17.978C32.539 16.196 33.53 13.701 33.405 11.134Z"/>
    </g>
    </symbol>

    <symbol id="elektronika-icon" viewBox="0 0 37 36">
    <g clip-path="url(#clip0_2_4)">
    <path d="M35.66 15.213H29.66V20.787H35.66C36.388 20.785 36.98 21.373 36.982 22.101C36.984 22.829 36.396 23.421 35.668 23.423C35.665 23.423 35.662 23.423 35.66 23.423H29.66V26.36C29.651 27.7 28.558 28.779 27.218 28.77C27.215 28.77 27.213 28.77 27.21 28.77H24.23V34.682C24.23 35.419 23.632 36.017 22.895 36.017C22.158 36.017 21.56 35.419 21.56 34.682V28.77H15.9V34.682C15.9 35.419 15.302 36.017 14.565 36.017C13.828 36.017 13.23 35.419 13.23 34.682V28.77H10.24C8.901 28.779 7.809 27.701 7.8 26.362C7.8 26.361 7.8 26.361 7.8 26.36V23.423H1.34C0.612003 23.425 0.0200028 22.837 0.0180028 22.109C0.0160028 21.381 0.604003 20.789 1.332 20.787C1.335 20.787 1.338 20.787 1.34 20.787H7.8V15.213H1.34C0.612003 15.215 0.0200028 14.627 0.0180028 13.899C0.0160028 13.171 0.604003 12.579 1.332 12.577C1.335 12.577 1.338 12.577 1.34 12.577H7.8V9.64C7.808 8.301 8.899 7.222 10.238 7.23C10.239 7.23 10.239 7.23 10.24 7.23H13.23V1.318C13.23 0.581 13.828 -0.0170002 14.565 -0.0170002C15.302 -0.0170002 15.9 0.581 15.9 1.318V7.23H21.56V1.318C21.56 0.581 22.158 -0.0170002 22.895 -0.0170002C23.632 -0.0170002 24.23 0.581 24.23 1.318V7.23H27.21C28.55 7.217 29.647 8.292 29.66 9.632C29.66 9.635 29.66 9.637 29.66 9.64V12.577H35.66C36.388 12.575 36.98 13.163 36.982 13.891C36.984 14.619 36.396 15.211 35.668 15.213C35.666 15.213 35.663 15.213 35.66 15.213ZM26.99 9.866H10.47V26.134H26.99V9.866V9.866ZM13.65 12.577H24.2C24.928 12.575 25.52 13.163 25.522 13.891C25.524 14.619 24.936 15.211 24.208 15.213C24.205 15.213 24.202 15.213 24.2 15.213H13.65C12.922 15.215 12.33 14.627 12.328 13.899C12.326 13.171 12.914 12.579 13.642 12.577C13.644 12.577 13.647 12.577 13.65 12.577ZM13.65 20.787H19.76C20.488 20.785 21.08 21.373 21.082 22.101C21.084 22.829 20.496 23.421 19.768 23.423C19.765 23.423 19.762 23.423 19.76 23.423H13.65C12.922 23.423 12.332 22.833 12.332 22.105C12.332 21.377 12.922 20.787 13.65 20.787Z"/>
    </g>
    </symbol>

    <symbol id="shetki-icon" viewBox="0 0 43 36">
    <path opacity="0.1" d="M21.5 5C34.96 5.447 36.757 10.827 35.759 13L32.752 19.79C32.234 20.577 31.342 21.036 30.4 21H13.1C12.16 21.034 11.271 20.575 10.754 19.79C10.754 19.79 8.255 14.4 7.15 11.951C6.045 9.502 11.282 5 21.5 5Z"/>
    <path d="M42.816 10.733L37.616 23.145C36.92 24.944 35.226 26.16 33.299 26.245H18.909L20.385 28.721C22.345 28.093 24.443 29.173 25.071 31.133C25.699 33.093 24.619 35.191 22.659 35.819C20.699 36.447 18.601 35.367 17.973 33.407C17.856 33.041 17.796 32.658 17.795 32.274C17.793 31.415 18.089 30.582 18.631 29.916L16.442 26.245H9.7C7.774 26.16 6.08 24.943 5.385 23.145L0.185 10.734C-0.767 7.334 2.234 5.434 3.796 4.618C9.16 1.719 15.136 0.139 21.232 0.00800044C21.291 0.00300044 21.349 0.00300044 21.408 0.00800044C21.508 0.0210004 21.657 -0.00499956 21.76 0.00800044C27.857 0.138 33.835 1.718 39.2 4.616C40.765 5.43 43.768 7.332 42.816 10.733ZM21.5 33.872C22.384 33.88 23.106 33.17 23.114 32.286C23.122 31.402 22.412 30.68 21.528 30.672C20.644 30.664 19.922 31.374 19.914 32.258C19.914 32.263 19.914 32.267 19.914 32.272C19.909 33.151 20.617 33.867 21.496 33.872C21.497 33.872 21.499 33.872 21.5 33.872ZM37.511 6.118C32.685 3.416 27.23 2.042 21.7 2.135C21.648 2.131 21.596 2.131 21.544 2.135C21.543 2.138 21.543 2.14 21.544 2.143C21.493 2.139 21.443 2.139 21.392 2.143C15.798 2.058 10.278 3.429 5.374 6.123C2.628 7.43 1.339 8.547 2.542 11.123L6.96 21.638C7.967 24.194 8.743 24.12 10.98 24.12H15.175L6.086 8.879C5.785 8.375 5.947 7.724 6.448 7.419C6.946 7.118 7.594 7.278 7.895 7.776C7.897 7.779 7.898 7.781 7.9 7.784L17.64 24.12H31.916C34.149 24.12 34.923 24.193 35.928 21.637L40.337 11.122C41.538 8.543 40.251 7.425 37.511 6.118Z"/>
    </symbol>

    <symbol id="plus-icon" viewBox="0 0 12 11">
        <path d="M5.14399 10.688V0.511993H6.65599V10.688H5.14399ZM0.679993 6.31999V4.90399H11.12V6.31999H0.679993Z"/>
    </symbol>

    <symbol id="minus-icon" viewBox="0 0 7 3">
        <path d="M0.440002 2.24V0.751999H6.728V2.24H0.440002Z"/>
    </symbol>

    <symbol id="delete-icon" viewBox="0 0 16 18">
        <path d="M9.57143 14.625H10.4286C10.5422 14.625 10.6512 14.5806 10.7316 14.5014C10.812 14.4223 10.8571 14.315 10.8571 14.2031V6.60938C10.8571 6.49749 10.812 6.39018 10.7316 6.31106C10.6512 6.23195 10.5422 6.1875 10.4286 6.1875H9.57143C9.45776 6.1875 9.34876 6.23195 9.26838 6.31106C9.18801 6.39018 9.14286 6.49749 9.14286 6.60938V14.2031C9.14286 14.315 9.18801 14.4223 9.26838 14.5014C9.34876 14.5806 9.45776 14.625 9.57143 14.625ZM15.4286 2.8125H12.4854L11.2711 0.819141C11.1187 0.569185 10.9031 0.362352 10.6454 0.218797C10.3876 0.0752422 10.0965 -0.000138635 9.80036 1.91407e-07H6.19964C5.90362 -1.71833e-05 5.61264 0.0754214 5.35504 0.218971C5.09743 0.36252 4.88197 0.569287 4.72964 0.819141L3.51464 2.8125H0.571429C0.419876 2.8125 0.274531 2.87176 0.167368 2.97725C0.0602039 3.08274 0 3.22582 0 3.375L0 3.9375C0 4.08668 0.0602039 4.22976 0.167368 4.33525C0.274531 4.44074 0.419876 4.5 0.571429 4.5H1.14286V16.3125C1.14286 16.7601 1.32347 17.1893 1.64496 17.5057C1.96645 17.8222 2.40249 18 2.85714 18H13.1429C13.5975 18 14.0336 17.8222 14.355 17.5057C14.6765 17.1893 14.8571 16.7601 14.8571 16.3125V4.5H15.4286C15.5801 4.5 15.7255 4.44074 15.8326 4.33525C15.9398 4.22976 16 4.08668 16 3.9375V3.375C16 3.22582 15.9398 3.08274 15.8326 2.97725C15.7255 2.87176 15.5801 2.8125 15.4286 2.8125ZM6.13714 1.7898C6.15624 1.75851 6.18326 1.73264 6.21557 1.7147C6.24787 1.69677 6.28434 1.6874 6.32143 1.6875H9.67857C9.7156 1.68746 9.752 1.69686 9.78423 1.71479C9.81647 1.73272 9.84343 1.75856 9.8625 1.7898L10.4861 2.8125H5.51393L6.13714 1.7898ZM13.1429 16.3125H2.85714V4.5H13.1429V16.3125ZM5.57143 14.625H6.42857C6.54224 14.625 6.65124 14.5806 6.73162 14.5014C6.81199 14.4223 6.85714 14.315 6.85714 14.2031V6.60938C6.85714 6.49749 6.81199 6.39018 6.73162 6.31106C6.65124 6.23195 6.54224 6.1875 6.42857 6.1875H5.57143C5.45776 6.1875 5.34876 6.23195 5.26838 6.31106C5.18801 6.39018 5.14286 6.49749 5.14286 6.60938V14.2031C5.14286 14.315 5.18801 14.4223 5.26838 14.5014C5.34876 14.5806 5.45776 14.625 5.57143 14.625Z"></path>
    </symbol>

    <symbol id="plitka-icon" viewBox="0 0 18 18">
        <g clip-path="url(#clip0_88_1328)">
        <path d="M3.75 0H0.75C0.336 0 0 0.336 0 0.75V3.75C0 4.164 0.336 4.5 0.75 4.5H3.75C4.164 4.5 4.5 4.164 4.5 3.75V0.75C4.5 0.336 4.164 0 3.75 0Z"/>
        <path d="M3.75 6.75H0.75C0.336 6.75 0 7.086 0 7.5V10.5C0 10.914 0.336 11.25 0.75 11.25H3.75C4.164 11.25 4.5 10.914 4.5 10.5V7.5C4.5 7.086 4.164 6.75 3.75 6.75Z"/>
        <path d="M3.75 13.5H0.75C0.336 13.5 0 13.836 0 14.25V17.25C0 17.664 0.336 18 0.75 18H3.75C4.164 18 4.5 17.664 4.5 17.25V14.25C4.5 13.836 4.164 13.5 3.75 13.5Z"/>
        <path d="M10.5 0H7.5C7.086 0 6.75 0.336 6.75 0.75V3.75C6.75 4.164 7.086 4.5 7.5 4.5H10.5C10.914 4.5 11.25 4.164 11.25 3.75V0.75C11.25 0.336 10.914 0 10.5 0Z"/>
        <path d="M10.5 6.75H7.5C7.086 6.75 6.75 7.086 6.75 7.5V10.5C6.75 10.914 7.086 11.25 7.5 11.25H10.5C10.914 11.25 11.25 10.914 11.25 10.5V7.5C11.25 7.086 10.914 6.75 10.5 6.75Z"/>
        <path d="M10.5 13.5H7.5C7.086 13.5 6.75 13.836 6.75 14.25V17.25C6.75 17.664 7.086 18 7.5 18H10.5C10.914 18 11.25 17.664 11.25 17.25V14.25C11.25 13.836 10.914 13.5 10.5 13.5Z"/>
        <path d="M17.25 0H14.25C13.836 0 13.5 0.336 13.5 0.75V3.75C13.5 4.164 13.836 4.5 14.25 4.5H17.25C17.664 4.5 18 4.164 18 3.75V0.75C18 0.336 17.664 0 17.25 0Z"/>
        <path d="M17.25 6.75H14.25C13.836 6.75 13.5 7.086 13.5 7.5V10.5C13.5 10.914 13.836 11.25 14.25 11.25H17.25C17.664 11.25 18 10.914 18 10.5V7.5C18 7.086 17.664 6.75 17.25 6.75Z"/>
        <path d="M17.25 13.5H14.25C13.836 13.5 13.5 13.836 13.5 14.25V17.25C13.5 17.664 13.836 18 14.25 18H17.25C17.664 18 18 17.664 18 17.25V14.25C18 13.836 17.664 13.5 17.25 13.5Z"/>
        </g>
    </symbol>

    <symbol id="spisok-icon" viewBox="0 0 22 17">
        <path d="M20.2157 16.3496H6.1731C5.59433 16.3496 5.12524 15.8805 5.12524 15.3018C5.12524 14.723 5.59433 14.2539 6.1731 14.2539H20.2154C20.7941 14.2539 21.2632 14.723 21.2632 15.3018C21.2632 15.8805 20.7945 16.3496 20.2157 16.3496Z"/>
        <path d="M20.2157 9.77149H6.1731C5.59433 9.77149 5.12524 9.3024 5.12524 8.72363C5.12524 8.14487 5.59433 7.67578 6.1731 7.67578H20.2154C20.7941 7.67578 21.2632 8.14487 21.2632 8.72363C21.2636 9.3024 20.7945 9.77149 20.2157 9.77149Z"/>
        <path d="M20.2157 3.19434H6.1731C5.59433 3.19434 5.12524 2.72525 5.12524 2.14648C5.12524 1.56772 5.59433 1.09863 6.1731 1.09863H20.2154C20.7941 1.09863 21.2632 1.56772 21.2632 2.14648C21.2632 2.72525 20.7945 3.19434 20.2157 3.19434Z"/>
        <path d="M1.67045 3.63484C2.44766 3.63484 3.07771 3.00479 3.07771 2.22758C3.07771 1.45037 2.44766 0.820312 1.67045 0.820312C0.893238 0.820312 0.263184 1.45037 0.263184 2.22758C0.263184 3.00479 0.893238 3.63484 1.67045 3.63484Z"/>
        <path d="M1.67045 10.1309C2.44766 10.1309 3.07771 9.50088 3.07771 8.72367C3.07771 7.94646 2.44766 7.31641 1.67045 7.31641C0.893238 7.31641 0.263184 7.94646 0.263184 8.72367C0.263184 9.50088 0.893238 10.1309 1.67045 10.1309Z"/>
        <path d="M1.67045 16.627C2.44766 16.627 3.07771 15.997 3.07771 15.2198C3.07771 14.4426 2.44766 13.8125 1.67045 13.8125C0.893238 13.8125 0.263184 14.4426 0.263184 15.2198C0.263184 15.997 0.893238 16.627 1.67045 16.627Z"/>
    </symbol>

    <symbol id="dubble-right-arrow" viewBox="0 0 24 24">
        <path d="M19.0996 10.586L13.8106 5.29297L12.3996 6.70697L17.6886 12L12.3996 17.293L13.8146 18.707L19.0996 13.414C19.4745 13.0389 19.6852 12.5303 19.6852 12C19.6852 11.4696 19.4745 10.961 19.0996 10.586V10.586Z"/>
        <path d="M12.8108 11.293L6.81078 5.29297L5.39978 6.70697L10.6888 12L5.39978 17.293L6.81478 18.707L12.8148 12.707C13.0017 12.5189 13.1063 12.2643 13.1056 11.9991C13.1048 11.734 12.9988 11.48 12.8108 11.293V11.293Z"/>
    </symbol>

    <symbol id="pagination-right-arrow" viewBox="0 0 24 24">
        <path d="M10.8111 18.707L9.40015 17.293L14.6891 12L9.40015 6.70697L10.8151 5.29297L16.1001 10.586C16.4751 10.961 16.6857 11.4696 16.6857 12C16.6857 12.5303 16.4751 13.0389 16.1001 13.414L10.8111 18.707Z"/>
    </symbol>

    <symbol id="pagination-left-arrow" viewBox="0 0 24 24">
        <path d="M13.7751 18.707L8.48206 13.414C8.10712 13.0389 7.89648 12.5303 7.89648 12C7.89648 11.4696 8.10712 10.961 8.48206 10.586L13.7751 5.29297L15.1891 6.70697L9.90006 12L15.1931 17.293L13.7751 18.707Z"/>
    </symbol>

    <symbol id="filter-icon" viewBox="0 0 20 18">
        <path d="M2.63247 1L17.3763 1.10315C17.9179 1.10706 18.2005 1.74939 17.8361 2.14856L12.4758 8.02161V12.2676C12.4758 12.423 12.4176 12.5729 12.3126 12.688L8.56408 16.7949C8.18001 17.2157 7.47241 16.9462 7.47241 16.3745V8.01685L2.15845 2.03931C1.80061 1.63696 2.08823 1 2.62806 1H2.63247Z" stroke-width="2"/>
    </symbol>
    
    <symbol id="pen-icon" viewBox="0 0 38 38">
        <path d="M9.99416 20.5733L17.5839 28.4424L33.5406 11.8914L25.9543 4.02178L9.99416 20.5733ZM27.7538 10.0245C28.2809 10.5724 28.2809 11.4598 27.7538 12.0068L18.5132 21.5883C18.2499 21.8631 17.9041 21.999 17.5596 21.999C17.2117 21.999 16.8668 21.8631 16.6035 21.5883C16.0756 21.0404 16.0756 20.1534 16.6035 19.6064L25.8429 10.0245C26.3699 9.477 27.226 9.477 27.7538 10.0245Z"/>
        <path d="M6.52059 31.9322L14.9525 29.6811L8.77728 23.2763L6.52059 31.9322Z"/>
        <path d="M36.6186 4.56058L33.0216 0.82854C31.9549 -0.276831 30.0947 -0.275529 29.0323 0.82854L27.8635 2.04115L35.4524 9.90986L36.6186 8.69942C37.7166 7.55758 37.7166 5.70068 36.6186 4.56058Z"/>
        <path d="M33.2547 38H1.38893C0.621626 38 0 37.3548 0 36.559V1.51234C0 0.716528 0.621208 0.0718002 1.38893 0.0718002H22.785C23.5532 0.0718002 24.1735 0.716528 24.1735 1.51234C24.1735 2.30772 23.5532 2.95288 22.785 2.95288H2.77785V35.118H33.2547C34.3397 35.118 35.2226 34.2028 35.2226 33.0771V15.0043C35.2226 14.2085 35.8438 13.5637 36.6111 13.5637C37.378 13.5637 38 14.2085 38 15.0043V33.0771C38.0004 35.7914 35.8714 38 33.2547 38Z"/>
    </symbol>

    <symbol id="upload-img-icon" viewBox="0 0 20 25">
        <path d="M11.1676 12.4191L8.95739 15.1869L7.78977 13.7249C7.76851 13.6982 7.74135 13.6766 7.71034 13.6618C7.67933 13.647 7.64529 13.6392 7.6108 13.6392C7.5763 13.6392 7.54226 13.647 7.51125 13.6618C7.48024 13.6766 7.45308 13.6982 7.43182 13.7249L4.59659 17.274C4.57036 17.3069 4.55408 17.3464 4.54962 17.3879C4.54516 17.4295 4.5527 17.4714 4.57137 17.509C4.59004 17.5465 4.61909 17.5782 4.6552 17.6003C4.69131 17.6223 4.73302 17.634 4.77557 17.6339H15.2273C15.4176 17.6339 15.5227 17.4191 15.4063 17.274L11.5284 12.4191C11.5069 12.3924 11.4794 12.3708 11.4482 12.3559C11.417 12.3411 11.3827 12.3334 11.348 12.3334C11.3133 12.3334 11.2791 12.3411 11.2478 12.3559C11.2166 12.3708 11.1892 12.3924 11.1676 12.4191V12.4191ZM5.68182 10.5469C5.68182 10.8429 5.80154 11.1268 6.01465 11.3361C6.22776 11.5454 6.5168 11.6629 6.81818 11.6629C7.11956 11.6629 7.4086 11.5454 7.62171 11.3361C7.83482 11.1268 7.95455 10.8429 7.95455 10.5469C7.95455 10.2509 7.83482 9.967 7.62171 9.75769C7.4086 9.54839 7.11956 9.4308 6.81818 9.4308C6.5168 9.4308 6.22776 9.54839 6.01465 9.75769C5.80154 9.967 5.68182 10.2509 5.68182 10.5469ZM19.733 6.26674L13.6193 0.262277C13.4489 0.0948661 13.2188 0 12.9773 0H0.909091C0.40625 0 0 0.398996 0 0.892857V24.1071C0 24.601 0.40625 25 0.909091 25H19.0909C19.5938 25 20 24.601 20 24.1071V6.90011C20 6.66295 19.9034 6.43415 19.733 6.26674ZM17.9034 7.31027H12.5568V2.05915L17.9034 7.31027ZM17.9545 22.9911H2.04545V2.00893H10.625V8.03571C10.625 8.34651 10.7507 8.64459 10.9745 8.86436C11.1982 9.08412 11.5017 9.20759 11.8182 9.20759H17.9545V22.9911Z"/>
    </symbol>

    <symbol id="hint-icon" viewBox="0 0 17 17">
        <path d="M8.5 16C12.6421 16 16 12.6421 16 8.5C16 4.35786 12.6421 1 8.5 1C4.35786 1 1 4.35786 1 8.5C1 12.6421 4.35786 16 8.5 16Z" stroke-linecap="round" stroke-linejoin="round"/>
        <path d="M8.5 5.49963V8.49963" stroke-linecap="round" stroke-linejoin="round"/>
        <path d="M8.5 11.4998H8.50667" stroke-linecap="round" stroke-linejoin="round"/>
    </symbol>

    <symbol id="zaglushka-icon" viewBox="0 0 42 42">
        <path d="M21 41C32.0457 41 41 32.0457 41 21C41 9.9543 32.0457 1 21 1C9.9543 1 1 9.9543 1 21C1 32.0457 9.9543 41 21 41Z" stroke-width="2" stroke-linecap="round" stroke-linejoin="round"/>
        <path d="M21 29C25.4183 29 29 25.4183 29 21C29 16.5817 25.4183 13 21 13C16.5817 13 13 16.5817 13 21C13 25.4183 16.5817 29 21 29Z" stroke-width="2" stroke-linecap="round" stroke-linejoin="round"/>
        <path d="M6.85986 6.85986L15.3399 15.3399" stroke-width="2" stroke-linecap="round" stroke-linejoin="round"/>
        <path d="M26.6602 26.6602L35.1402 35.1402" stroke-width="2" stroke-linecap="round" stroke-linejoin="round"/>
        <path d="M26.6602 15.3399L35.1402 6.85986" stroke-width="2" stroke-linecap="round" stroke-linejoin="round"/>
        <path d="M26.6602 15.3398L33.7202 8.27979" stroke-width="2" stroke-linecap="round" stroke-linejoin="round"/>
        <path d="M6.85986 35.1402L15.3399 26.6602" stroke-width="2" stroke-linecap="round" stroke-linejoin="round"/>
    </symbol>

    <symbol id="left-arrow" viewBox="0 0 14 12">
        <path d="M3.68689 7L6.67157 10.0463C7.10948 10.4932 7.10948 11.2179 6.67157 11.6648C6.23367 12.1117 5.52369 12.1117 5.08579 11.6648L0.328427 6.80926C0.110282 6.58661 0.000808195 6.29505 5.12161e-06 6.00323L0 6L5.12114e-06 5.99677C0.000808283 5.70495 0.110282 5.41339 0.328427 5.19074L5.08579 0.335205C5.52369 -0.111735 6.23367 -0.111735 6.67157 0.335205C7.10947 0.782145 7.10948 1.50678 6.67157 1.95372L3.68689 5L13 5C13.5523 5 14 5.44772 14 6C14 6.55228 13.5523 7 13 7L3.68689 7Z"/>
    </symbol>
</svg>