<svg width="216" height="63" viewBox="0 0 216 63" fill="none" xmlns="http://www.w3.org/2000/svg">
<path d="M214.567 55.5624C214.567 56.3553 214.408 57.1405 214.1 57.8729C213.791 58.6054 213.339 59.2709 212.769 59.8313C212.199 60.3916 211.522 60.836 210.778 61.1388C210.033 61.4417 209.235 61.5971 208.43 61.5963H7.57053C5.94256 61.598 4.38056 60.9633 3.22806 59.8317C2.07556 58.7002 1.42693 57.1645 1.4248 55.5624V7.44395C1.42693 5.84111 2.0753 4.30462 3.22758 3.17184C4.37985 2.03905 5.94182 1.40258 7.57053 1.40216H208.428C209.234 1.40216 210.032 1.55845 210.777 1.8621C211.522 2.16574 212.199 2.6108 212.769 3.17185C213.338 3.73291 213.791 4.39896 214.099 5.13197C214.407 5.86499 214.566 6.6506 214.566 7.44395L214.567 55.5624Z" fill="white"/>
<path d="M208.429 63H7.57049C5.56502 62.9996 3.64162 62.2163 2.22234 60.8219C0.803052 59.4275 0.00381587 57.536 0 55.5624L0 7.4455C0.00296681 5.47091 0.801676 3.5781 2.22091 2.18229C3.64015 0.786485 5.56403 0.00166663 7.57049 0L208.428 0C210.434 0.00249824 212.357 0.787584 213.777 2.18321C215.196 3.57883 215.995 5.47116 215.998 7.4455V55.5624C216.002 59.6648 212.6 63 208.429 63V63Z" fill="#A6A6A6"/>
<path d="M214.567 55.5624C214.567 56.3553 214.408 57.1405 214.1 57.8729C213.791 58.6054 213.339 59.2709 212.769 59.8313C212.199 60.3916 211.522 60.836 210.778 61.1388C210.033 61.4417 209.235 61.5971 208.43 61.5963H7.57053C5.94256 61.598 4.38056 60.9633 3.22806 59.8317C2.07556 58.7002 1.42693 57.1645 1.4248 55.5624V7.44395C1.42693 5.84111 2.0753 4.30462 3.22758 3.17184C4.37985 2.03905 5.94182 1.40258 7.57053 1.40216H208.428C209.234 1.40216 210.032 1.55845 210.777 1.8621C211.522 2.16574 212.199 2.6108 212.769 3.17185C213.338 3.73291 213.791 4.39896 214.099 5.13197C214.407 5.86499 214.566 6.6506 214.566 7.44395L214.567 55.5624Z" fill="black"/>
<path d="M48.2309 31.1684C48.1845 26.0908 52.4556 23.6205 52.6509 23.5055C50.232 20.0348 46.4828 19.5606 45.1652 19.5228C42.0163 19.1967 38.9619 21.3771 37.3578 21.3771C35.7217 21.3771 33.2516 19.5543 30.5894 19.6079C27.1635 19.6599 23.9586 21.6118 22.2008 24.643C18.5733 30.8234 21.2787 39.9057 24.7542 44.9014C26.4928 47.3497 28.5243 50.0799 31.1833 49.9838C33.7847 49.8798 34.7564 48.3532 37.8957 48.3532C41.0062 48.3532 41.9187 49.9838 44.6306 49.9224C47.4225 49.8798 49.1802 47.4647 50.8579 44.996C52.867 42.1933 53.6738 39.43 53.7059 39.2882C53.6418 39.2661 48.2853 37.2527 48.2309 31.1684V31.1684ZM43.1081 16.2364C44.5073 14.5145 45.4646 12.1718 45.1989 9.79449C43.1738 9.88272 40.6412 11.173 39.1828 12.8571C37.8925 14.3412 36.7399 16.7737 37.0377 19.0612C39.3125 19.2282 41.6481 17.9316 43.1081 16.2364V16.2364Z" fill="white"/>
<path d="M208.429 0H100.843L142.983 63H208.429C210.435 62.9983 212.359 62.2139 213.778 60.8188C215.197 59.4237 215.996 57.5317 216 55.5577V7.4455C215.997 5.47103 215.198 3.57847 213.779 2.18275C212.359 0.787035 210.436 0.00208259 208.429 0V0Z" fill="url(#paint0_linear_148_3)"/>
<path d="M85.9104 49.6324H82.2748L80.2834 43.4741H73.3612L71.4642 49.6324H67.9247L74.7844 28.6666H79.0203L85.9104 49.6324V49.6324ZM79.683 40.8903L77.8821 35.4157C77.6916 34.8564 77.333 33.5394 76.8079 31.4661H76.7438C76.5325 32.3578 76.1948 33.6749 75.7321 35.4157L73.9615 40.8903H79.683ZM103.517 41.8876C103.517 44.4587 102.808 46.491 101.388 47.9829C100.116 49.311 98.5364 49.9743 96.6522 49.9743C94.6175 49.9743 93.1543 49.2606 92.2658 47.8301V55.7624H88.8528V39.4835C88.8528 37.8687 88.8096 36.2129 88.7263 34.5146H91.728L91.9185 36.9108H91.9825C93.1207 35.1054 94.848 34.2026 97.1661 34.2026C98.9783 34.2026 100.491 34.9069 101.701 36.3169C102.91 37.73 103.517 39.5859 103.517 41.8876ZM100.04 42.0105C100.04 40.539 99.7035 39.3259 99.0279 38.3697C98.2899 37.3756 97.299 36.8777 96.0567 36.8777C95.2146 36.8777 94.4494 37.155 93.7659 37.7017C93.0807 38.2531 92.6324 38.973 92.4227 39.8647C92.3291 40.1982 92.2759 40.5414 92.2642 40.8872V43.4095C92.2642 44.5075 92.6068 45.4355 93.292 46.1948C93.9772 46.951 94.8673 47.3307 95.9622 47.3307C97.2477 47.3307 98.2483 46.8408 98.9639 45.8687C99.6811 44.8935 100.04 43.608 100.04 42.0105V42.0105ZM121.185 41.8876C121.185 44.4587 120.476 46.491 119.056 47.9829C117.784 49.311 116.205 49.9743 114.319 49.9743C112.285 49.9743 110.821 49.2606 109.933 47.8301V55.7624H106.52V39.4835C106.52 37.8687 106.477 36.2129 106.393 34.5146H109.395L109.586 36.9108H109.65C110.786 35.1054 112.514 34.2026 114.833 34.2026C116.644 34.2026 118.157 34.9069 119.37 36.3169C120.577 37.73 121.185 39.5859 121.185 41.8876V41.8876ZM117.707 42.0105C117.707 40.539 117.369 39.3259 116.693 38.3697C115.955 37.3756 114.968 36.8777 113.725 36.8777C112.883 36.8777 112.118 37.155 111.431 37.7017C110.746 38.2531 110.3 38.973 110.09 39.8647C109.986 40.2807 109.93 40.6194 109.93 40.8872V43.4095C109.93 44.5075 110.274 45.4355 110.956 46.1948C111.641 46.9495 112.531 47.3307 113.629 47.3307C114.916 47.3307 115.917 46.8408 116.631 45.8687C117.348 44.8935 117.707 43.608 117.707 42.0105V42.0105ZM140.94 43.7513C140.94 45.5363 140.306 46.9873 139.046 48.1074C137.66 49.3299 135.725 49.9428 133.243 49.9428C130.951 49.9428 129.113 49.508 127.727 48.6368L128.516 45.8372C130.013 46.71 131.657 47.1448 133.447 47.1448C134.734 47.1448 135.734 46.8581 136.448 46.2894C137.164 45.719 137.526 44.9565 137.526 44.005C137.526 43.1527 137.226 42.439 136.639 41.8577C136.048 41.2779 135.071 40.7375 133.699 40.2413C129.969 38.8722 128.103 36.8698 128.103 34.2357C128.103 32.5153 128.762 31.1069 130.078 30.0057C131.394 28.906 133.139 28.3562 135.31 28.3562C137.249 28.3562 138.864 28.6886 140.146 29.3519L139.29 32.09C138.083 31.4472 136.72 31.1258 135.196 31.1258C133.992 31.1258 133.048 31.4173 132.372 31.997C131.804 32.5153 131.516 33.1471 131.516 33.897C131.516 34.7241 131.844 35.411 132.497 35.9498C133.064 36.446 134.098 36.9864 135.593 37.5662C137.428 38.294 138.776 39.1416 139.639 40.1152C140.508 41.0888 140.94 42.3035 140.94 43.7513ZM152.253 37.0353H148.491V44.3752C148.491 46.2421 149.154 47.1732 150.483 47.1732C151.093 47.1732 151.599 47.1228 151.999 47.0172L152.093 49.5678C151.421 49.8152 150.536 49.9396 149.439 49.9396C148.091 49.9396 147.038 49.5347 146.277 48.725C145.52 47.9152 145.139 46.5588 145.139 44.6493V37.029H142.898V34.5083H145.139V31.7402L148.491 30.7446V34.5083H152.253V37.0353V37.0353ZM169.194 41.949C169.194 44.2728 168.518 46.1807 167.17 47.6726C165.76 49.2086 163.884 49.9743 161.545 49.9743C159.288 49.9743 157.493 49.2386 156.155 47.7687C154.816 46.2957 154.147 44.4398 154.147 42.2011C154.147 39.8584 154.839 37.9396 156.217 36.4476C157.599 34.9541 159.459 34.2074 161.798 34.2074C164.052 34.2074 165.862 34.9447 167.233 36.4161C168.542 37.8435 169.194 39.6867 169.194 41.949ZM165.656 42.0262C165.656 40.6414 165.352 39.4536 164.742 38.4595C164.026 37.259 163.002 36.6587 161.675 36.6587C160.307 36.6587 159.259 37.259 158.545 38.4595C157.933 39.4536 157.629 40.6619 157.629 42.0893C157.629 43.4756 157.933 44.6667 158.545 45.6576C159.283 46.8581 160.312 47.4583 161.646 47.4583C162.95 47.4583 163.973 46.8455 164.713 45.6277C165.341 44.6099 165.656 43.4142 165.656 42.0262ZM180.293 37.4685C179.938 37.4054 179.578 37.3743 179.217 37.3756C178.016 37.3756 177.088 37.8198 176.435 38.7147C175.868 39.5024 175.583 40.4981 175.583 41.7001V49.6324H172.17V39.2755C172.173 37.6885 172.14 36.1017 172.071 34.5161H175.043L175.168 37.4086H175.263C175.625 36.4145 176.191 35.6126 176.969 35.0124C177.681 34.4879 178.547 34.2039 179.436 34.2026C179.752 34.2026 180.037 34.2247 180.289 34.2641L180.293 37.4685V37.4685ZM195.557 41.3583C195.566 41.8688 195.524 42.3791 195.432 42.8817H185.193C185.231 44.3752 185.728 45.519 186.678 46.3067C187.541 47.0093 188.657 47.3622 190.028 47.3622C191.544 47.3622 192.927 47.1259 194.171 46.6486L194.705 48.9786C193.252 49.6025 191.536 49.9129 189.555 49.9129C187.173 49.9129 185.303 49.2228 183.943 47.8459C182.585 46.4674 181.905 44.6147 181.905 42.2941C181.905 40.016 182.537 38.1176 183.803 36.6036C185.129 34.9872 186.92 34.179 189.174 34.179C191.388 34.179 193.064 34.9872 194.203 36.6036C195.104 37.8844 195.557 39.4725 195.557 41.3583V41.3583ZM192.302 40.487C192.326 39.4898 192.102 38.6312 191.64 37.9049C191.049 36.9691 190.14 36.5028 188.921 36.5028C187.806 36.5028 186.896 36.9581 186.205 37.8718C185.636 38.5981 185.299 39.4709 185.194 40.4839L192.302 40.487Z" fill="white"/>
<path d="M72.3767 21.2541C71.4274 21.2541 70.6062 21.2085 69.9226 21.1313V10.9949C70.8787 10.8496 71.8448 10.7779 72.8122 10.7807C76.7263 10.7807 78.5289 12.6759 78.5289 15.7653C78.5289 19.329 76.3997 21.2541 72.3767 21.2541ZM72.9498 12.0804C72.4216 12.0804 71.9717 12.1119 71.5987 12.1875V19.893C71.8004 19.9245 72.1878 19.9387 72.7321 19.9387C75.2967 19.9387 76.7567 18.5019 76.7567 15.811C76.7567 13.4116 75.436 12.0804 72.9498 12.0804V12.0804ZM84.1463 21.3313C81.9403 21.3313 80.5107 19.7102 80.5107 17.5093C80.5107 15.2155 81.9707 13.5802 84.2712 13.5802C86.4451 13.5802 87.9067 15.1241 87.9067 17.388C87.9067 19.7102 86.4003 21.3313 84.1463 21.3313ZM84.2103 14.787C82.9985 14.787 82.2221 15.9024 82.2221 17.4621C82.2221 18.9918 83.0145 20.1072 84.1943 20.1072C85.3742 20.1072 86.1666 18.9146 86.1666 17.4306C86.1666 15.9182 85.3902 14.787 84.2103 14.787ZM100.486 13.733L98.1251 21.1628H96.5866L95.6085 17.9363C95.3653 17.1471 95.1628 16.3462 95.0018 15.5369H94.9698C94.8465 16.3467 94.6128 17.158 94.3646 17.9363L93.3241 21.1628H91.7696L89.5476 13.733H91.2717L92.1266 17.2651C92.3283 18.1064 92.498 18.9004 92.6389 19.6504H92.6709C92.7942 19.0249 92.9959 18.2435 93.292 17.2809L94.3646 13.7346H95.7318L96.7579 17.2053C97.0061 18.0466 97.2078 18.8721 97.3646 19.6519H97.4095C97.5183 18.8878 97.6896 18.0765 97.9217 17.2053L98.839 13.7346L100.486 13.733V13.733ZM109.179 21.1628H107.501V16.8965C107.501 15.5826 106.989 14.9241 105.979 14.9241C104.985 14.9241 104.301 15.7653 104.301 16.7437V21.1628H102.623V15.8567C102.623 15.1998 102.607 14.4955 102.561 13.7315H104.037L104.115 14.8784H104.162C104.613 14.0844 105.529 13.5802 106.555 13.5802C108.14 13.5802 109.181 14.7728 109.181 16.7137L109.179 21.1628V21.1628ZM113.806 21.1628H112.126V10.3238H113.806V21.1628ZM119.922 21.3313C117.718 21.3313 116.287 19.7102 116.287 17.5093C116.287 15.2155 117.747 13.5802 120.046 13.5802C122.221 13.5802 123.681 15.1241 123.681 17.388C123.683 19.7102 122.175 21.3313 119.922 21.3313ZM119.985 14.787C118.773 14.787 117.997 15.9024 117.997 17.4621C117.997 18.9918 118.791 20.1072 119.967 20.1072C121.149 20.1072 121.94 18.9146 121.94 17.4306C121.941 15.9182 121.166 14.787 119.985 14.787V14.787ZM130.296 21.1628L130.174 20.3073H130.13C129.617 20.9958 128.87 21.3313 127.922 21.3313C126.569 21.3313 125.609 20.3987 125.609 19.1446C125.609 17.3108 127.224 16.3624 130.021 16.3624V16.2254C130.021 15.247 129.494 14.7571 128.453 14.7571C127.709 14.7571 127.056 14.9414 126.481 15.3085L126.14 14.223C126.838 13.7945 127.709 13.5802 128.732 13.5802C130.704 13.5802 131.7 14.6042 131.7 16.6539V19.3904C131.7 20.1403 131.734 20.7217 131.809 21.1643L130.296 21.1628V21.1628ZM130.066 17.4621C128.202 17.4621 127.267 17.9064 127.267 18.9603C127.267 19.7402 127.749 20.1214 128.418 20.1214C129.271 20.1214 130.066 19.4802 130.066 18.609V17.4621V17.4621ZM139.847 21.1628L139.768 19.9702H139.722C139.24 20.8713 138.43 21.3313 137.298 21.3313C135.478 21.3313 134.13 19.7559 134.13 17.5393C134.13 15.2155 135.528 13.5786 137.436 13.5786C138.446 13.5786 139.162 13.9142 139.565 14.5885H139.599V10.3238H141.278V19.1604C141.278 19.8788 141.296 20.5515 141.34 21.1628H139.847ZM139.599 16.7909C139.599 15.7512 138.899 14.8642 137.831 14.8642C136.587 14.8642 135.827 15.9497 135.827 17.4778C135.827 18.9761 136.616 20.0017 137.798 20.0017C138.853 20.0017 139.599 19.099 139.599 18.0292V16.7909ZM151.925 21.3313C149.721 21.3313 148.291 19.7102 148.291 17.5093C148.291 15.2155 149.751 13.5802 152.05 13.5802C154.226 13.5802 155.686 15.1241 155.686 17.388C155.687 19.7102 154.181 21.3313 151.925 21.3313ZM151.988 14.787C150.778 14.787 150.001 15.9024 150.001 17.4621C150.001 18.9918 150.794 20.1072 151.972 20.1072C153.153 20.1072 153.944 18.9146 153.944 17.4306C153.947 15.9182 153.171 14.787 151.988 14.787ZM164.708 21.1628H163.029V16.8965C163.029 15.5826 162.517 14.9241 161.507 14.9241C160.512 14.9241 159.83 15.7653 159.83 16.7437V21.1628H158.151V15.8567C158.151 15.1998 158.135 14.4955 158.089 13.7315H159.565L159.643 14.8784H159.69C160.139 14.0844 161.057 13.5786 162.081 13.5786C163.666 13.5786 164.708 14.7712 164.708 16.7122V21.1628ZM175.996 14.9713H174.15V18.5791C174.15 19.4975 174.474 19.956 175.127 19.956C175.423 19.956 175.671 19.9245 175.871 19.8788L175.918 21.1328C175.593 21.2557 175.157 21.3172 174.616 21.3172C173.294 21.3172 172.503 20.5988 172.503 18.7177V14.9713H171.401V13.733H172.503V12.3719L174.15 11.8819V13.7315H175.996V14.9713V14.9713ZM184.878 21.1628H183.201V16.928C183.201 15.5983 182.691 14.9256 181.679 14.9256C180.81 14.9256 180 15.507 180 16.6838V21.1628H178.324V10.3238H180V14.787H180.033C180.562 13.9772 181.327 13.5786 182.303 13.5786C183.901 13.5786 184.878 14.8012 184.878 16.7437V21.1628V21.1628ZM193.977 17.8449H188.942C188.974 19.2518 189.92 20.0458 191.321 20.0458C192.065 20.0458 192.751 19.9229 193.356 19.6945L193.617 20.8414C192.903 21.147 192.062 21.2998 191.084 21.2998C188.723 21.2998 187.325 19.8315 187.325 17.555C187.325 15.277 188.756 13.5645 190.895 13.5645C192.824 13.5645 194.035 14.9713 194.035 17.0966C194.045 17.3474 194.026 17.5986 193.977 17.8449V17.8449ZM192.438 16.6681C192.438 15.5211 191.851 14.7114 190.778 14.7114C189.815 14.7114 189.053 15.5369 188.944 16.6681H192.438V16.6681Z" fill="white"/>
<defs>
<linearGradient id="paint0_linear_148_3" x1="158.42" y1="63.1673" x2="158.42" y2="-164.041" gradientUnits="userSpaceOnUse">
<stop stop-color="#1A1A1A" stop-opacity="0.1"/>
<stop offset="0.123" stop-color="#212121" stop-opacity="0.151"/>
<stop offset="0.308" stop-color="#353535" stop-opacity="0.227"/>
<stop offset="0.532" stop-color="#575757" stop-opacity="0.318"/>
<stop offset="0.783" stop-color="#858585" stop-opacity="0.421"/>
<stop offset="1" stop-color="#B3B3B3" stop-opacity="0.51"/>
</linearGradient>
</defs>
</svg>
