<svg width="39" height="30" viewBox="0 0 39 30" fill="none" xmlns="http://www.w3.org/2000/svg">
<path d="M10.1167 0.18094C9.22553 0.310865 8.24291 0.983419 7.82397 1.75533C7.43549 2.48138 7.38979 2.83294 7.38979 5.27095V7.51025H5.356C4.22866 7.51025 3.07846 7.54847 2.79663 7.58668C1.44838 7.78539 0.351508 8.80951 0.0772894 10.1317C0.0239691 10.4068 0.00111753 13.1123 0.0163519 18.936L0.0392035 27.343L0.222016 27.7862C0.572407 28.6651 1.37983 29.4294 2.26342 29.7198C2.68998 29.8574 3.1394 29.865 15.8068 29.865C28.4742 29.865 28.9236 29.8574 29.3501 29.7198C30.2337 29.4294 31.0488 28.6575 31.3915 27.7862C31.5667 27.3582 31.5744 27.2513 31.5972 24.9202L31.6201 22.5052L33.9966 22.4746C36.1904 22.444 36.4037 22.4287 36.815 22.2835C37.6833 21.9549 38.4374 21.2288 38.7802 20.3729L38.963 19.9296V2.65716L38.7802 2.21389C38.4451 1.36555 37.691 0.631857 36.815 0.303222L36.3732 0.135084L23.4621 0.127441C16.3628 0.119798 10.3529 0.142726 10.1167 0.18094ZM10.8175 0.822923C10.8708 0.884065 10.9546 0.937563 11.008 0.937563C11.0613 0.937563 11.1451 0.884065 11.1984 0.822923C11.2669 0.738854 11.4421 0.708283 11.8078 0.708283C12.1734 0.708283 12.3486 0.738854 12.4171 0.822923C12.4705 0.884065 12.5542 0.937563 12.6076 0.937563C12.6609 0.937563 12.7447 0.884065 12.798 0.822923C12.8665 0.738854 13.0417 0.708283 13.4074 0.708283C13.773 0.708283 13.9482 0.738854 14.0167 0.822923C14.0701 0.884065 14.1691 0.937563 14.2453 0.937563C14.3214 0.937563 14.4205 0.884065 14.4738 0.822923C14.5423 0.738854 14.7175 0.708283 15.0831 0.708283C15.4488 0.708283 15.624 0.738854 15.6925 0.822923C15.7458 0.884065 15.8296 0.937563 15.883 0.937563C15.9363 0.937563 16.0201 0.884065 16.0734 0.822923C16.1419 0.738854 16.3171 0.708283 16.6828 0.708283C17.0484 0.708283 17.2236 0.738854 17.2921 0.822923C17.3455 0.884065 17.4292 0.937563 17.4826 0.937563C17.5359 0.937563 17.6197 0.884065 17.673 0.822923C17.8101 0.662427 18.7165 0.662427 18.8994 0.830566C19.0365 0.952849 19.3488 0.922278 19.3488 0.777067C19.3488 0.738854 19.6078 0.708283 19.9201 0.708283C20.2324 0.708283 20.4914 0.738854 20.4914 0.777067C20.4914 0.922278 20.8037 0.952849 20.9408 0.830566C21.1236 0.662427 22.03 0.662427 22.1671 0.822923C22.2205 0.884065 22.3042 0.937563 22.3576 0.937563C22.4109 0.937563 22.4947 0.884065 22.548 0.822923C22.6165 0.738854 22.7917 0.708283 23.1574 0.708283C23.523 0.708283 23.6982 0.738854 23.7667 0.822923C23.8201 0.884065 23.9039 0.937563 23.9572 0.937563C24.0105 0.937563 24.0943 0.884065 24.1476 0.822923C24.2162 0.738854 24.3914 0.708283 24.757 0.708283C25.1226 0.708283 25.2978 0.738854 25.3664 0.822923C25.4197 0.884065 25.5187 0.937563 25.5949 0.937563C25.671 0.937563 25.7701 0.884065 25.8234 0.822923C25.8919 0.738854 26.0671 0.708283 26.4328 0.708283C26.7984 0.708283 26.9736 0.738854 27.0421 0.822923C27.0955 0.884065 27.1792 0.937563 27.2326 0.937563C27.2859 0.937563 27.3697 0.884065 27.423 0.822923C27.4915 0.738854 27.6667 0.708283 28.0324 0.708283C28.398 0.708283 28.5732 0.738854 28.6417 0.822923C28.6951 0.884065 28.7789 0.937563 28.8322 0.937563C28.8855 0.937563 28.9693 0.884065 29.0226 0.822923C29.1597 0.662427 30.0662 0.662427 30.249 0.830566C30.3861 0.952849 30.6984 0.922278 30.6984 0.777067C30.6984 0.738854 30.9497 0.708283 31.2621 0.708283C31.6886 0.708283 31.8333 0.738854 31.8714 0.822923C31.9247 0.968134 32.1761 0.968134 32.298 0.822923C32.3665 0.738854 32.5417 0.708283 32.9074 0.708283C33.273 0.708283 33.4482 0.738854 33.5167 0.822923C33.5701 0.884065 33.6539 0.937563 33.7072 0.937563C33.7605 0.937563 33.8443 0.884065 33.8976 0.822923C33.9662 0.738854 34.1414 0.708283 34.507 0.708283C34.8726 0.708283 35.0478 0.738854 35.1164 0.822923C35.2382 0.968134 35.3753 0.968134 35.4972 0.822923C35.7638 0.501931 37.4777 1.12099 37.4777 1.54898C37.4777 1.63305 37.5615 1.71711 37.7062 1.77061C37.889 1.83175 37.988 1.95404 38.1404 2.29031C38.3156 2.67245 38.3537 2.86351 38.3765 3.62778L38.407 4.52961H7.98393L8.0144 3.62778C8.03725 2.87116 8.07534 2.6648 8.24291 2.29796C8.34955 2.06103 8.51713 1.83175 8.60092 1.7859C8.69233 1.7324 8.76088 1.64833 8.76088 1.58719C8.76088 1.47255 9.30932 1.06749 9.65209 0.929921C9.76635 0.884065 10.0406 0.815281 10.2462 0.78471C10.4595 0.754139 10.6499 0.723569 10.6728 0.715926C10.7033 0.715926 10.7642 0.761782 10.8175 0.822923ZM28.7027 8.19045C29.6244 8.32802 30.3708 8.87829 30.7593 9.71134L30.965 10.147V27.2665L30.7593 27.7022C30.3708 28.5352 29.6167 29.0855 28.6798 29.2231C28.0857 29.3071 3.52788 29.3071 2.93373 29.2231C1.99682 29.0855 1.24272 28.5352 0.854243 27.7022L0.648578 27.2665V10.147L0.854243 9.71134C1.22748 8.90886 1.99682 8.32038 2.84233 8.19809C3.41362 8.11402 28.1238 8.11402 28.7027 8.19045ZM38.3537 19.8532L38.1251 20.3117C37.9576 20.648 37.8433 20.7779 37.7062 20.8085C37.5767 20.8391 37.5081 20.9155 37.4929 21.0378C37.4472 21.3588 36.8074 21.7027 36.0761 21.8097C35.6724 21.8632 35.6115 21.8555 35.5201 21.7256C35.383 21.5269 35.223 21.5345 35.1164 21.7256C35.0478 21.8555 34.9564 21.8785 34.5222 21.8785C34.0957 21.8785 33.9966 21.8555 33.9128 21.7256C33.791 21.5269 33.6234 21.5269 33.5015 21.7256C33.4177 21.8555 33.3187 21.8785 32.8921 21.8785C32.458 21.8785 32.3665 21.8555 32.298 21.7256C32.1914 21.5345 32.0314 21.5345 31.8638 21.7256C31.7876 21.8097 31.7039 21.8785 31.6734 21.8785C31.6353 21.8785 31.6124 21.1218 31.6124 20.1971C31.6124 18.8138 31.6277 18.5157 31.7191 18.5157C31.7724 18.5157 31.841 18.5845 31.8638 18.6685C31.8867 18.7603 31.9705 18.8214 32.0695 18.8214C32.1685 18.8214 32.2523 18.7603 32.2751 18.6685C32.3132 18.531 32.3818 18.5157 32.8464 18.5157C33.3035 18.5157 33.3949 18.5386 33.5091 18.6838C33.6615 18.8673 33.89 18.829 33.9509 18.6074C33.9738 18.5233 34.1109 18.4316 34.3013 18.3781C35.0706 18.1718 35.5734 17.4151 35.5658 16.4904C35.5581 16.1923 35.5353 15.8713 35.5048 15.7643C35.4744 15.6573 35.482 15.5121 35.5277 15.4433C35.6115 15.2981 35.4744 15.0765 35.2915 15.0765C35.0935 15.0765 34.7355 14.7479 34.7355 14.5644C34.7355 14.3504 34.5374 14.2511 34.347 14.3734C34.1566 14.4956 33.174 14.488 32.9835 14.3734C32.8617 14.2969 32.8007 14.2969 32.6789 14.3734C32.5951 14.4192 32.3208 14.4651 32.0695 14.4651H31.6124V12.4551C31.6124 10.5215 31.5744 10.0705 31.3458 9.47442C31.2925 9.35214 31.4906 9.34449 34.8421 9.34449H38.3994L38.3537 19.8532ZM34.3546 15.2446C34.7736 15.5351 34.9183 15.7873 34.9488 16.3375C34.9869 16.9413 34.7964 17.3922 34.3775 17.675C34.1109 17.8584 34.0347 17.8661 32.854 17.8966L31.6124 17.9196V15.0765H32.8617C34.0271 15.0765 34.1185 15.0841 34.3546 15.2446Z" fill="white"/>
<path d="M10.0098 1.35024C9.85748 1.46488 9.90318 1.67887 10.1012 1.7553C10.2536 1.81644 10.4592 1.61009 10.3983 1.45723C10.3297 1.28145 10.1698 1.2356 10.0098 1.35024Z" fill="white"/>
<path d="M11.6257 1.36552C11.5343 1.45723 11.5266 1.51837 11.58 1.63301C11.6714 1.80115 11.8085 1.82408 11.9456 1.68651C12.0827 1.54894 12.0598 1.41137 11.8923 1.31966C11.778 1.26616 11.7171 1.27381 11.6257 1.36552Z" fill="white"/>
<path d="M14.8763 1.35794C14.7697 1.44201 14.7545 1.49551 14.823 1.6025C14.9525 1.8165 15.1886 1.77828 15.2191 1.54136C15.2496 1.2968 15.082 1.21273 14.8763 1.35794Z" fill="white"/>
<path d="M16.4932 1.36547C16.3561 1.51068 16.3714 1.61768 16.5466 1.73232C16.638 1.78582 16.7065 1.77818 16.7903 1.70939C16.9579 1.57183 16.9426 1.41897 16.7675 1.31962C16.6532 1.26612 16.5846 1.27376 16.4932 1.36547Z" fill="white"/>
<path d="M21.3594 1.35024C21.2071 1.46488 21.2528 1.67887 21.4508 1.7553C21.6032 1.81644 21.8088 1.61009 21.7479 1.45723C21.6794 1.28145 21.5194 1.2356 21.3594 1.35024Z" fill="white"/>
<path d="M22.9753 1.36552C22.8839 1.45723 22.8763 1.51837 22.9296 1.63301C23.021 1.80115 23.1581 1.82408 23.2952 1.68651C23.4323 1.54894 23.4095 1.41137 23.2419 1.31966C23.1276 1.26616 23.0667 1.27381 22.9753 1.36552Z" fill="white"/>
<path d="M26.2259 1.35794C26.1193 1.44201 26.1041 1.49551 26.1726 1.6025C26.3021 1.8165 26.5382 1.77828 26.5687 1.54136C26.5992 1.2968 26.4316 1.21273 26.2259 1.35794Z" fill="white"/>
<path d="M27.8424 1.35025C27.6901 1.46489 27.7282 1.67889 27.9186 1.74767C28.0557 1.80117 28.2614 1.65596 28.2614 1.5031C28.2614 1.33497 27.9948 1.23561 27.8424 1.35025Z" fill="white"/>
<path d="M29.5013 1.29683C29.3871 1.34268 29.3718 1.67132 29.4785 1.7401C29.6156 1.82417 29.8593 1.69425 29.8593 1.54904C29.8593 1.38854 29.646 1.24333 29.5013 1.29683Z" fill="white"/>
<path d="M32.7093 1.35027C32.557 1.46491 32.6103 1.6789 32.8007 1.75533C32.9531 1.80883 33.1435 1.58719 33.0902 1.43434C33.0292 1.28148 32.8617 1.24327 32.7093 1.35027Z" fill="white"/>
<path d="M34.3175 1.36547C34.1803 1.51068 34.1956 1.61768 34.3708 1.73232C34.4622 1.78582 34.5307 1.77818 34.6145 1.70939C34.7821 1.57183 34.7669 1.41897 34.5917 1.31962C34.4774 1.26612 34.4089 1.27376 34.3175 1.36547Z" fill="white"/>
<path d="M13.2093 1.4267C13.1331 1.62541 13.2398 1.79354 13.4226 1.76297C13.5521 1.74769 13.5978 1.68655 13.5978 1.54898C13.5978 1.41141 13.5521 1.35027 13.4226 1.33498C13.3236 1.3197 13.2322 1.35791 13.2093 1.4267Z" fill="white"/>
<path d="M18.0543 1.50315C18.0543 1.73243 18.1533 1.80885 18.3666 1.74007C18.6027 1.66364 18.5266 1.36558 18.2676 1.33501C18.0848 1.31208 18.0543 1.33501 18.0543 1.50315Z" fill="white"/>
<path d="M19.6839 1.4267C19.6078 1.62541 19.7144 1.79354 19.8972 1.76297C20.0267 1.74769 20.0724 1.68655 20.0724 1.54898C20.0724 1.41141 20.0267 1.35027 19.8972 1.33498C19.7982 1.3197 19.7068 1.35791 19.6839 1.4267Z" fill="white"/>
<path d="M24.5589 1.4267C24.4828 1.62541 24.5894 1.79354 24.7722 1.76297C24.9017 1.74769 24.9474 1.68655 24.9474 1.54898C24.9474 1.41141 24.9017 1.35027 24.7722 1.33498C24.6732 1.3197 24.5818 1.35791 24.5589 1.4267Z" fill="white"/>
<path d="M31.0335 1.4267C30.9574 1.62541 31.064 1.79354 31.2468 1.76297C31.3763 1.74769 31.422 1.68655 31.422 1.54898C31.422 1.41141 31.3763 1.35027 31.2468 1.33498C31.1478 1.3197 31.0564 1.35791 31.0335 1.4267Z" fill="white"/>
<path d="M35.9085 1.4267C35.8324 1.62541 35.939 1.79354 36.1218 1.76297C36.2513 1.74769 36.297 1.68655 36.297 1.54898C36.297 1.41141 36.2513 1.35027 36.1218 1.33498C36.0228 1.3197 35.9314 1.35791 35.9085 1.4267Z" fill="white"/>
<path d="M9.17221 2.19096C9.09604 2.38967 9.20268 2.55781 9.38549 2.52724C9.51498 2.51196 9.56069 2.45081 9.56069 2.31325C9.56069 2.17568 9.51498 2.11454 9.38549 2.09925C9.28647 2.08397 9.19506 2.12218 9.17221 2.19096Z" fill="white"/>
<path d="M10.7863 2.1986C10.7253 2.36674 10.8167 2.54252 10.9691 2.54252C11.1443 2.54252 11.289 2.3591 11.2281 2.20625C11.1671 2.05339 10.8472 2.04575 10.7863 2.1986Z" fill="white"/>
<path d="M12.4476 2.19096C12.3714 2.38967 12.4781 2.55781 12.6609 2.52724C12.7904 2.51196 12.8361 2.45081 12.8361 2.31325C12.8361 2.17568 12.7904 2.11454 12.6609 2.09925C12.5619 2.08397 12.4705 2.12218 12.4476 2.19096Z" fill="white"/>
<path d="M14.0472 2.19096C13.971 2.38967 14.0777 2.55781 14.2605 2.52724C14.39 2.51196 14.4357 2.45081 14.4357 2.31325C14.4357 2.17568 14.39 2.11454 14.2605 2.09925C14.1615 2.08397 14.0701 2.12218 14.0472 2.19096Z" fill="white"/>
<path d="M15.6468 2.19096C15.5706 2.38967 15.6773 2.55781 15.8601 2.52724C15.9896 2.51196 16.0353 2.45081 16.0353 2.31325C16.0353 2.17568 15.9896 2.11454 15.8601 2.09925C15.7611 2.08397 15.6697 2.12218 15.6468 2.19096Z" fill="white"/>
<path d="M17.261 2.20625C17.2001 2.3591 17.3448 2.54252 17.52 2.54252C17.6724 2.54252 17.7638 2.36674 17.7028 2.1986C17.6419 2.04575 17.322 2.05339 17.261 2.20625Z" fill="white"/>
<path d="M18.9222 2.19096C18.846 2.38967 18.9527 2.55781 19.1355 2.52724C19.265 2.51196 19.3107 2.45081 19.3107 2.31325C19.3107 2.17568 19.265 2.11454 19.1355 2.09925C19.0365 2.08397 18.9451 2.12218 18.9222 2.19096Z" fill="white"/>
<path d="M20.5218 2.19096C20.4457 2.38967 20.5523 2.55781 20.7351 2.52724C20.8646 2.51196 20.9103 2.45081 20.9103 2.31325C20.9103 2.17568 20.8646 2.11454 20.7351 2.09925C20.6361 2.08397 20.5447 2.12218 20.5218 2.19096Z" fill="white"/>
<path d="M22.1359 2.1986C22.0749 2.36674 22.1664 2.54252 22.3187 2.54252C22.4939 2.54252 22.6386 2.3591 22.5777 2.20625C22.5167 2.05339 22.1968 2.04575 22.1359 2.1986Z" fill="white"/>
<path d="M23.7811 2.18334C23.6592 2.32855 23.842 2.56548 24.0401 2.52726C24.2534 2.48905 24.2381 2.12985 24.0248 2.09928C23.941 2.08399 23.8268 2.1222 23.7811 2.18334Z" fill="white"/>
<path d="M25.3968 2.19096C25.3207 2.38967 25.4273 2.55781 25.6101 2.52724C25.7396 2.51196 25.7853 2.45081 25.7853 2.31325C25.7853 2.17568 25.7396 2.11454 25.6101 2.09925C25.5111 2.08397 25.4197 2.12218 25.3968 2.19096Z" fill="white"/>
<path d="M26.9964 2.19096C26.9203 2.38967 27.0269 2.55781 27.2097 2.52724C27.3392 2.51196 27.3849 2.45081 27.3849 2.31325C27.3849 2.17568 27.3392 2.11454 27.2097 2.09925C27.1107 2.08397 27.0193 2.12218 26.9964 2.19096Z" fill="white"/>
<path d="M28.6107 2.20625C28.5497 2.3591 28.6944 2.54252 28.8696 2.54252C29.022 2.54252 29.1134 2.36674 29.0525 2.1986C28.9915 2.04575 28.6716 2.05339 28.6107 2.20625Z" fill="white"/>
<path d="M30.2718 2.19096C30.1957 2.38967 30.3023 2.55781 30.4851 2.52724C30.6146 2.51196 30.6603 2.45081 30.6603 2.31325C30.6603 2.17568 30.6146 2.11454 30.4851 2.09925C30.3861 2.08397 30.2947 2.12218 30.2718 2.19096Z" fill="white"/>
<path d="M31.8714 2.19096C31.7953 2.38967 31.9019 2.55781 32.0847 2.52724C32.2142 2.51196 32.2599 2.45081 32.2599 2.31325C32.2599 2.17568 32.2142 2.11454 32.0847 2.09925C31.9857 2.08397 31.8943 2.12218 31.8714 2.19096Z" fill="white"/>
<path d="M33.4855 2.1986C33.4246 2.36674 33.516 2.54252 33.6683 2.54252C33.7445 2.54252 33.8435 2.48902 33.8968 2.42788C34.0111 2.29032 33.8816 2.08396 33.6683 2.08396C33.5921 2.08396 33.516 2.13746 33.4855 2.1986Z" fill="white"/>
<path d="M35.1155 2.19858C35.0394 2.2903 35.0394 2.33615 35.1155 2.42786C35.2679 2.61893 35.5345 2.5425 35.5345 2.31322C35.5345 2.08394 35.2679 2.00752 35.1155 2.19858Z" fill="white"/>
<path d="M36.7464 2.19096C36.6703 2.38967 36.7769 2.55781 36.9597 2.52724C37.0892 2.51196 37.1349 2.45081 37.1349 2.31325C37.1349 2.17568 37.0892 2.11454 36.9597 2.09925C36.8607 2.08397 36.7693 2.12218 36.7464 2.19096Z" fill="white"/>
<path d="M8.33432 3.03166C8.25815 3.23037 8.36479 3.3985 8.5476 3.36793C8.67709 3.35265 8.7228 3.29151 8.7228 3.15394C8.7228 3.01637 8.67709 2.95523 8.5476 2.93994C8.44858 2.92466 8.35717 2.96287 8.33432 3.03166Z" fill="white"/>
<path d="M9.94838 3.0393C9.88745 3.20743 9.97885 3.38322 10.1312 3.38322C10.3445 3.38322 10.474 3.17686 10.3597 3.0393C10.3064 2.97816 10.2074 2.92466 10.1312 2.92466C10.055 2.92466 9.97885 2.97816 9.94838 3.0393Z" fill="white"/>
<path d="M11.5784 3.03928C11.5022 3.13099 11.5022 3.17684 11.5784 3.26856C11.7308 3.45962 11.9974 3.3832 11.9974 3.15392C11.9974 2.92464 11.7308 2.84821 11.5784 3.03928Z" fill="white"/>
<path d="M13.2093 3.03166C13.1331 3.23037 13.2398 3.3985 13.4226 3.36793C13.5521 3.35265 13.5978 3.29151 13.5978 3.15394C13.5978 3.01637 13.5521 2.95523 13.4226 2.93994C13.3236 2.92466 13.2322 2.96287 13.2093 3.03166Z" fill="white"/>
<path d="M14.8089 3.03166C14.7328 3.23037 14.8394 3.3985 15.0222 3.36793C15.1517 3.35265 15.1974 3.29151 15.1974 3.15394C15.1974 3.01637 15.1517 2.95523 15.0222 2.93994C14.9232 2.92466 14.8318 2.96287 14.8089 3.03166Z" fill="white"/>
<path d="M16.4231 3.0393C16.3545 3.22272 16.4536 3.38322 16.644 3.38322C16.743 3.38322 16.8344 3.32972 16.8649 3.26858C16.9335 3.08515 16.8344 2.92466 16.644 2.92466C16.545 2.92466 16.4536 2.97816 16.4231 3.0393Z" fill="white"/>
<path d="M18.0843 3.03166C18.0082 3.23037 18.1148 3.3985 18.2976 3.36793C18.4271 3.35265 18.4728 3.29151 18.4728 3.15394C18.4728 3.01637 18.4271 2.95523 18.2976 2.93994C18.1986 2.92466 18.1072 2.96287 18.0843 3.03166Z" fill="white"/>
<path d="M19.6839 3.03166C19.6078 3.23037 19.7144 3.3985 19.8972 3.36793C20.0267 3.35265 20.0724 3.29151 20.0724 3.15394C20.0724 3.01637 20.0267 2.95523 19.8972 2.93994C19.7982 2.92466 19.7068 2.96287 19.6839 3.03166Z" fill="white"/>
<path d="M21.2906 3.07751C21.2296 3.26858 21.2982 3.38322 21.4734 3.38322C21.6867 3.38322 21.8238 3.18451 21.7095 3.0393C21.5724 2.8788 21.3439 2.89409 21.2906 3.07751Z" fill="white"/>
<path d="M22.928 3.03928C22.8519 3.13099 22.8519 3.17684 22.928 3.26856C23.0804 3.45962 23.347 3.3832 23.347 3.15392C23.347 2.92464 23.0804 2.84821 22.928 3.03928Z" fill="white"/>
<path d="M24.5589 3.03166C24.4828 3.23037 24.5894 3.3985 24.7722 3.36793C24.9017 3.35265 24.9474 3.29151 24.9474 3.15394C24.9474 3.01637 24.9017 2.95523 24.7722 2.93994C24.6732 2.92466 24.5818 2.96287 24.5589 3.03166Z" fill="white"/>
<path d="M26.1585 3.03166C26.0824 3.23037 26.189 3.3985 26.3718 3.36793C26.5013 3.35265 26.547 3.29151 26.547 3.15394C26.547 3.01637 26.5013 2.95523 26.3718 2.93994C26.2728 2.92466 26.1814 2.96287 26.1585 3.03166Z" fill="white"/>
<path d="M27.7727 3.0393C27.7042 3.22272 27.8032 3.38322 27.9936 3.38322C28.0926 3.38322 28.184 3.32972 28.2145 3.26858C28.2831 3.08515 28.184 2.92466 27.9936 2.92466C27.8946 2.92466 27.8032 2.97816 27.7727 3.0393Z" fill="white"/>
<path d="M29.4339 3.03166C29.3578 3.23037 29.4644 3.3985 29.6472 3.36793C29.7767 3.35265 29.8224 3.29151 29.8224 3.15394C29.8224 3.01637 29.7767 2.95523 29.6472 2.93994C29.5482 2.92466 29.4568 2.96287 29.4339 3.03166Z" fill="white"/>
<path d="M31.0335 3.03166C30.9574 3.23037 31.064 3.3985 31.2468 3.36793C31.3763 3.35265 31.422 3.29151 31.422 3.15394C31.422 3.01637 31.3763 2.95523 31.2468 2.93994C31.1478 2.92466 31.0564 2.96287 31.0335 3.03166Z" fill="white"/>
<path d="M32.6338 3.0393C32.5652 3.21508 32.6566 3.38322 32.8166 3.38322C32.9004 3.38322 33.007 3.32972 33.0603 3.26858C33.1822 3.12337 33.0375 2.92466 32.8166 2.92466C32.7404 2.92466 32.6566 2.97816 32.6338 3.0393Z" fill="white"/>
<path d="M34.2776 3.03928C34.2015 3.13099 34.2015 3.17684 34.2776 3.26856C34.43 3.45962 34.6966 3.3832 34.6966 3.15392C34.6966 2.92464 34.43 2.84821 34.2776 3.03928Z" fill="white"/>
<path d="M35.9085 3.03166C35.8324 3.23037 35.939 3.3985 36.1218 3.36793C36.2513 3.35265 36.297 3.29151 36.297 3.15394C36.297 3.01637 36.2513 2.95523 36.1218 2.93994C36.0228 2.92466 35.9314 2.96287 35.9085 3.03166Z" fill="white"/>
<path d="M37.5082 3.03166C37.432 3.23037 37.5386 3.3985 37.7214 3.36793C37.8509 3.35265 37.8966 3.29151 37.8966 3.15394C37.8966 3.01637 37.8509 2.95523 37.7214 2.93994C37.6224 2.92466 37.531 2.96287 37.5082 3.03166Z" fill="white"/>
<path d="M9.17221 3.79592C9.09604 3.99463 9.20268 4.16277 9.38549 4.1322C9.51498 4.11691 9.56069 4.05577 9.56069 3.9182C9.56069 3.78064 9.51498 3.71949 9.38549 3.70421C9.28647 3.68892 9.19506 3.72714 9.17221 3.79592Z" fill="white"/>
<path d="M10.8337 3.78068C10.6966 3.91825 10.7195 4.05581 10.887 4.14753C11.0013 4.20103 11.0622 4.19338 11.1536 4.10167C11.2222 4.04053 11.2755 3.95646 11.2755 3.92589C11.2755 3.84182 11.1003 3.68897 11.0089 3.68897C10.9632 3.68897 10.887 3.72718 10.8337 3.78068Z" fill="white"/>
<path d="M12.4316 3.81885C12.3326 4.01756 12.4011 4.14748 12.6144 4.14748C12.8353 4.14748 12.9267 3.96406 12.7972 3.80356C12.6677 3.65071 12.5154 3.65835 12.4316 3.81885Z" fill="white"/>
<path d="M14.0472 3.79592C13.971 3.99463 14.0777 4.16277 14.2605 4.1322C14.39 4.11691 14.4357 4.05577 14.4357 3.9182C14.4357 3.78064 14.39 3.71949 14.2605 3.70421C14.1615 3.68892 14.0701 3.72714 14.0472 3.79592Z" fill="white"/>
<path d="M15.6915 3.80356C15.562 3.96406 15.6534 4.14748 15.8743 4.14748C16.0876 4.14748 16.1562 4.01756 16.0571 3.81885C15.9733 3.65835 15.821 3.65071 15.6915 3.80356Z" fill="white"/>
<path d="M17.3008 3.78824C17.1104 4.02516 17.3998 4.29265 17.6512 4.10923C17.7578 4.02516 17.7731 3.97166 17.7045 3.86466C17.5979 3.68888 17.4151 3.65067 17.3008 3.78824Z" fill="white"/>
<path d="M18.9222 3.79592C18.846 3.99463 18.9527 4.16277 19.1355 4.1322C19.265 4.11691 19.3107 4.05577 19.3107 3.9182C19.3107 3.78064 19.265 3.71949 19.1355 3.70421C19.0365 3.68892 18.9451 3.72714 18.9222 3.79592Z" fill="white"/>
<path d="M20.5218 3.79592C20.4457 3.99463 20.5523 4.16277 20.7351 4.1322C20.8646 4.11691 20.9103 4.05577 20.9103 3.9182C20.9103 3.78064 20.8646 3.71949 20.7351 3.70421C20.6361 3.68892 20.5447 3.72714 20.5218 3.79592Z" fill="white"/>
<path d="M22.1833 3.78068C22.0462 3.91825 22.0691 4.05581 22.2366 4.14753C22.3509 4.20103 22.4118 4.19338 22.5032 4.10167C22.5718 4.04053 22.6251 3.95646 22.6251 3.92589C22.6251 3.84182 22.4499 3.68897 22.3585 3.68897C22.3128 3.68897 22.2366 3.72718 22.1833 3.78068Z" fill="white"/>
<path d="M23.7812 3.81885C23.6822 4.01756 23.7507 4.14748 23.964 4.14748C24.1849 4.14748 24.2763 3.96406 24.1468 3.80356C24.0173 3.65071 23.865 3.65835 23.7812 3.81885Z" fill="white"/>
<path d="M25.3968 3.79592C25.3207 3.99463 25.4273 4.16277 25.6101 4.1322C25.7396 4.11691 25.7853 4.05577 25.7853 3.9182C25.7853 3.78064 25.7396 3.71949 25.6101 3.70421C25.5111 3.68892 25.4197 3.72714 25.3968 3.79592Z" fill="white"/>
<path d="M27.0411 3.80356C26.9116 3.96406 27.003 4.14748 27.2239 4.14748C27.4372 4.14748 27.5058 4.01756 27.4067 3.81885C27.3229 3.65835 27.1706 3.65071 27.0411 3.80356Z" fill="white"/>
<path d="M28.6504 3.78824C28.46 4.02516 28.7494 4.29265 29.0008 4.10923C29.1075 4.02516 29.1227 3.97166 29.0541 3.86466C28.9475 3.68888 28.7647 3.65067 28.6504 3.78824Z" fill="white"/>
<path d="M30.2718 3.79592C30.1957 3.99463 30.3023 4.16277 30.4851 4.1322C30.6146 4.11691 30.6603 4.05577 30.6603 3.9182C30.6603 3.78064 30.6146 3.71949 30.4851 3.70421C30.3861 3.68892 30.2947 3.72714 30.2718 3.79592Z" fill="white"/>
<path d="M31.8714 3.79592C31.7953 3.99463 31.9019 4.16277 32.0847 4.1322C32.2142 4.11691 32.2599 4.05577 32.2599 3.9182C32.2599 3.78064 32.2142 3.71949 32.0847 3.70421C31.9857 3.68892 31.8943 3.72714 31.8714 3.79592Z" fill="white"/>
<path d="M33.5329 3.78068C33.3958 3.91825 33.4187 4.05581 33.5863 4.14753C33.7005 4.20103 33.7614 4.19338 33.8529 4.10167C33.9214 4.04053 33.9747 3.95646 33.9747 3.92589C33.9747 3.84182 33.7995 3.68897 33.7081 3.68897C33.6624 3.68897 33.5863 3.72718 33.5329 3.78068Z" fill="white"/>
<path d="M35.1308 3.81885C35.0318 4.01756 35.1004 4.14748 35.3136 4.14748C35.5345 4.14748 35.6259 3.96406 35.4964 3.80356C35.367 3.65071 35.2146 3.65835 35.1308 3.81885Z" fill="white"/>
<path d="M36.7464 3.79592C36.6703 3.99463 36.7769 4.16277 36.9597 4.1322C37.0892 4.11691 37.1349 4.05577 37.1349 3.9182C37.1349 3.78064 37.0892 3.71949 36.9597 3.70421C36.8607 3.68892 36.7693 3.72714 36.7464 3.79592Z" fill="white"/>
<path d="M4.38145 11.324C4.01582 11.4157 3.81016 11.5533 3.65781 11.8131C3.5207 12.0347 3.50547 12.2105 3.50547 13.9378C3.50547 15.7644 3.51309 15.8255 3.68066 16.0777C4.03105 16.6051 4.06914 16.6127 7.02461 16.5898C9.55352 16.5668 9.67539 16.5592 9.87344 16.4063C9.9877 16.3223 10.1553 16.1541 10.2391 16.0395C10.3914 15.8408 10.399 15.7261 10.399 13.9301C10.399 12.1341 10.3914 12.0195 10.2391 11.8207C10.1553 11.7061 9.9877 11.538 9.87344 11.4539C9.67539 11.301 9.56113 11.2934 7.13887 11.2781C5.74492 11.2705 4.51094 11.2934 4.38145 11.324ZM9.70586 12.1112C9.80488 12.2564 9.82773 12.5621 9.82773 13.953V15.6192L9.44688 16.0013L6.8875 15.9784C4.45762 15.9554 4.32813 15.9478 4.22148 15.8102C4.05391 15.5733 4.06914 12.2335 4.23672 12.0653C4.33574 11.9583 4.69375 11.943 6.97129 11.943H9.5916L9.70586 12.1112Z" fill="white"/>
<path d="M3.62813 21.29C3.54434 21.3511 3.49864 21.4658 3.52149 21.5804L3.54434 21.7638H9.10489L9.12774 21.5804C9.18106 21.2059 9.08203 21.1906 6.32461 21.1906C4.33653 21.1906 3.73477 21.2135 3.62813 21.29Z" fill="white"/>
<path d="M10.8645 21.29C10.7807 21.3511 10.735 21.4658 10.7578 21.5804L10.7807 21.7638H16.4174L16.4402 21.5804C16.4936 21.2059 16.4022 21.1906 13.599 21.1906C11.5805 21.1906 10.9711 21.2135 10.8645 21.29Z" fill="white"/>
<path d="M3.58053 24.5839C3.53482 24.645 3.50435 24.775 3.51959 24.8743C3.54244 25.0272 3.58814 25.0501 3.96138 25.073C4.28892 25.096 4.39556 25.0654 4.47174 24.966C4.60123 24.7903 4.59361 24.7444 4.44888 24.5992C4.29654 24.4463 3.71002 24.4387 3.58053 24.5839Z" fill="white"/>
<path d="M5.56099 24.5839C5.51529 24.645 5.48482 24.775 5.50006 24.8743C5.52291 25.0425 5.56099 25.0501 6.15513 25.073C6.79498 25.096 7.00826 25.0272 7.00826 24.8132C7.00826 24.7597 6.95494 24.6603 6.88638 24.5992C6.72642 24.4311 5.6981 24.4234 5.56099 24.5839Z" fill="white"/>
<path d="M8.06111 24.561C7.90115 24.6527 7.88592 24.8667 8.01541 24.9967C8.06873 25.0502 8.33533 25.0884 8.68572 25.0884C9.03611 25.0884 9.30272 25.0502 9.35604 24.9967C9.49315 24.8591 9.46268 24.6451 9.30272 24.5534C9.11229 24.454 8.22869 24.454 8.06111 24.561Z" fill="white"/>
<path d="M10.4828 24.5992C10.4143 24.6603 10.3609 24.7597 10.3609 24.8132C10.3609 25.0272 10.5742 25.096 11.2141 25.073C11.8082 25.0501 11.8463 25.0425 11.8691 24.8743C11.9148 24.561 11.7625 24.4769 11.1531 24.4769C10.7494 24.4769 10.5666 24.5075 10.4828 24.5992Z" fill="white"/>
<path d="M12.9211 24.6451C12.8373 24.7597 12.8297 24.8438 12.883 24.9508C12.944 25.0655 13.0506 25.0884 13.599 25.0884C14.1475 25.0884 14.2541 25.0655 14.3151 24.9508C14.3684 24.8438 14.3608 24.7597 14.277 24.6451C14.178 24.4999 14.0865 24.477 13.599 24.477C13.1115 24.477 13.0201 24.4999 12.9211 24.6451Z" fill="white"/>
<path d="M15.3872 24.5839C15.3415 24.6451 15.311 24.775 15.3262 24.8743C15.3491 25.0272 15.3948 25.0501 15.7528 25.0731C16.3165 25.1036 16.545 24.8896 16.2555 24.5992C16.1032 24.4464 15.5167 24.4387 15.3872 24.5839Z" fill="white"/>
<path d="M32.6396 9.57377C32.5786 9.78013 32.6472 9.87948 32.8681 9.87948C33.0738 9.87948 33.1804 9.68077 33.0509 9.52792C32.9214 9.37506 32.6929 9.39799 32.6396 9.57377Z" fill="white"/>
<path d="M34.2872 9.52792C34.1577 9.68077 34.2643 9.87948 34.47 9.87948C34.6909 9.87948 34.7594 9.78013 34.6985 9.57377C34.6452 9.39799 34.4166 9.37506 34.2872 9.52792Z" fill="white"/>
<path d="M35.9085 9.52792C35.8324 9.72663 35.939 9.89477 36.1218 9.8642C36.2513 9.84891 36.297 9.78777 36.297 9.6502C36.297 9.51263 36.2513 9.45149 36.1218 9.43621C36.0228 9.42092 35.9314 9.45914 35.9085 9.52792Z" fill="white"/>
<path d="M37.5082 9.52792C37.432 9.72663 37.5386 9.89477 37.7214 9.8642C37.8509 9.84891 37.8966 9.78777 37.8966 9.6502C37.8966 9.51263 37.8509 9.45149 37.7214 9.43621C37.6224 9.42092 37.531 9.45914 37.5082 9.52792Z" fill="white"/>
<path d="M31.94 10.2387C31.8105 10.2845 31.8181 10.5291 31.9476 10.6361C32.1152 10.7737 32.3132 10.6514 32.2828 10.4221C32.2599 10.231 32.1304 10.1546 31.94 10.2387Z" fill="white"/>
<path d="M33.5324 10.2768C33.4791 10.3303 33.441 10.4068 33.441 10.4603C33.441 10.5978 33.6391 10.7278 33.7686 10.6743C33.9285 10.6131 33.9971 10.4144 33.8904 10.2921C33.7838 10.1622 33.6543 10.1546 33.5324 10.2768Z" fill="white"/>
<path d="M35.1171 10.3304C35.0637 10.4451 35.0714 10.5138 35.1628 10.6055C35.3075 10.7431 35.4141 10.7278 35.5284 10.5521C35.5817 10.4603 35.5741 10.3916 35.5055 10.3075C35.3684 10.1393 35.2161 10.1546 35.1171 10.3304Z" fill="white"/>
<path d="M36.7696 10.2387C36.6781 10.3228 36.7086 10.5444 36.8305 10.6438C36.9676 10.7584 37.1733 10.6285 37.1733 10.4145C37.1733 10.2387 36.8914 10.1164 36.7696 10.2387Z" fill="white"/>
<path d="M32.6712 11.1482C32.6027 11.2322 32.5951 11.301 32.6484 11.3927C32.7626 11.5685 32.8693 11.5838 33.014 11.4462C33.1054 11.3545 33.113 11.2857 33.0597 11.1711C32.9607 10.9953 32.8083 10.98 32.6712 11.1482Z" fill="white"/>
<path d="M34.2792 11.1711C34.2259 11.2857 34.2335 11.3545 34.3249 11.4462C34.4696 11.5838 34.5763 11.5685 34.6905 11.3927C34.7438 11.301 34.7362 11.2322 34.6677 11.1482C34.5305 10.98 34.3782 10.9953 34.2792 11.1711Z" fill="white"/>
<path d="M35.9763 11.0793C35.8316 11.1328 35.8544 11.4615 35.9992 11.515C36.1515 11.5761 36.3343 11.4309 36.3343 11.2551C36.3343 11.1481 36.1591 10.9953 36.083 11.0335C36.0753 11.0335 36.022 11.0564 35.9763 11.0793Z" fill="white"/>
<path d="M37.57 11.1175C37.4482 11.2398 37.4558 11.3697 37.5853 11.4767C37.7529 11.6143 37.9509 11.492 37.9204 11.2627C37.8976 11.0488 37.7148 10.9723 37.57 11.1175Z" fill="white"/>
<path d="M31.9312 11.8819C31.7255 12.0882 31.9692 12.4398 32.2206 12.2869C32.3425 12.2105 32.312 11.8895 32.1749 11.836C32.0226 11.7749 32.0378 11.7749 31.9312 11.8819Z" fill="white"/>
<path d="M33.5469 11.8971C33.3946 12.0118 33.4403 12.2257 33.6383 12.3022C33.7907 12.3633 33.9963 12.157 33.9354 12.0041C33.8669 11.8283 33.7069 11.7825 33.5469 11.8971Z" fill="white"/>
<path d="M35.1628 11.9124C35.0714 12.0041 35.0637 12.0652 35.1171 12.1799C35.2085 12.348 35.3456 12.371 35.4827 12.2334C35.6198 12.0958 35.597 11.9582 35.4294 11.8665C35.3151 11.813 35.2542 11.8207 35.1628 11.9124Z" fill="white"/>
<path d="M36.7912 11.9048C36.6465 12.0806 36.7303 12.2869 36.9436 12.2869C37.0654 12.2869 37.1416 12.2411 37.1568 12.1494C37.1873 12.0118 37.0502 11.7901 36.9436 11.7901C36.9131 11.7901 36.8445 11.8436 36.7912 11.9048Z" fill="white"/>
<path d="M32.7093 12.7378C32.557 12.8525 32.6103 13.0665 32.8007 13.1429C32.9531 13.1964 33.1435 12.9748 33.0902 12.8219C33.0292 12.6691 32.8617 12.6308 32.7093 12.7378Z" fill="white"/>
<path d="M34.3175 12.7532C34.1803 12.8984 34.1956 13.0054 34.3708 13.12C34.4622 13.1735 34.5307 13.1659 34.6145 13.0971C34.7821 12.9596 34.7669 12.8067 34.5917 12.7073C34.4774 12.6538 34.4089 12.6615 34.3175 12.7532Z" fill="white"/>
<path d="M35.9533 12.7455C35.8086 12.9213 35.8924 13.1276 36.1057 13.1276C36.2428 13.1276 36.3037 13.0818 36.3189 12.9595C36.3494 12.7378 36.0904 12.585 35.9533 12.7455Z" fill="white"/>
<path d="M37.6064 12.7226C37.4312 12.8143 37.4464 13.0665 37.6293 13.1277C37.8349 13.1888 37.9339 13.12 37.9339 12.8984C37.9339 12.692 37.7892 12.6156 37.6064 12.7226Z" fill="white"/>
<path d="M31.8714 13.5785C31.7953 13.7772 31.9019 13.9454 32.0847 13.9148C32.2142 13.8995 32.2599 13.8384 32.2599 13.7008C32.2599 13.5632 32.2142 13.5021 32.0847 13.4868C31.9857 13.4715 31.8943 13.5097 31.8714 13.5785Z" fill="white"/>
<path d="M33.4787 13.548C33.3949 13.6779 33.5167 13.9301 33.6615 13.9301C33.8443 13.9301 33.989 13.7543 33.9281 13.5938C33.8747 13.4562 33.5548 13.4257 33.4787 13.548Z" fill="white"/>
<path d="M35.1155 13.5862C35.0394 13.6779 35.0394 13.7237 35.1155 13.8154C35.2679 14.0065 35.5345 13.9301 35.5345 13.7008C35.5345 13.4715 35.2679 13.3951 35.1155 13.5862Z" fill="white"/>
<path d="M36.7464 13.5785C36.6703 13.7772 36.7769 13.9454 36.9597 13.9148C37.0892 13.8995 37.1349 13.8384 37.1349 13.7008C37.1349 13.5632 37.0892 13.5021 36.9597 13.4868C36.8607 13.4715 36.7693 13.5097 36.7464 13.5785Z" fill="white"/>
<path d="M35.9085 14.4192C35.8324 14.6179 35.939 14.7861 36.1218 14.7555C36.2513 14.7402 36.297 14.6791 36.297 14.5415C36.297 14.4039 36.2513 14.3428 36.1218 14.3275C36.0228 14.3122 35.9314 14.3504 35.9085 14.4192Z" fill="white"/>
<path d="M37.5082 14.4192C37.432 14.6179 37.5386 14.7861 37.7214 14.7555C37.8509 14.7402 37.8966 14.6791 37.8966 14.5415C37.8966 14.4039 37.8509 14.3428 37.7214 14.3275C37.6224 14.3122 37.531 14.3504 37.5082 14.4192Z" fill="white"/>
<path d="M36.7464 15.1835C36.6703 15.3822 36.7769 15.5503 36.9597 15.5198C37.0892 15.5045 37.1349 15.4433 37.1349 15.3058C37.1349 15.1682 37.0892 15.1071 36.9597 15.0918C36.8607 15.0765 36.7693 15.1147 36.7464 15.1835Z" fill="white"/>
<path d="M35.9085 16.0242C35.8324 16.2229 35.939 16.391 36.1218 16.3605C36.2513 16.3452 36.297 16.284 36.297 16.1465C36.297 16.0089 36.2513 15.9478 36.1218 15.9325C36.0228 15.9172 35.9314 15.9554 35.9085 16.0242Z" fill="white"/>
<path d="M37.577 15.9707C37.4323 16.0242 37.4551 16.284 37.6151 16.3681C37.8055 16.4674 37.9503 16.3604 37.9198 16.1388C37.8969 15.9554 37.7598 15.8942 37.577 15.9707Z" fill="white"/>
<path d="M36.8145 16.735C36.6774 16.7885 36.6926 17.1171 36.8297 17.1706C37.0125 17.2394 37.1725 17.14 37.1725 16.9489C37.1725 16.8114 37.0049 16.6432 36.9211 16.6891C36.9135 16.6891 36.8602 16.712 36.8145 16.735Z" fill="white"/>
<path d="M35.9766 17.5756C35.8395 17.6291 35.8547 17.9578 35.9918 18.0113C36.266 18.1183 36.4565 17.8278 36.2432 17.6139C36.1442 17.5145 36.1213 17.5145 35.9766 17.5756Z" fill="white"/>
<path d="M37.547 17.6444C37.4251 17.7973 37.547 18.0189 37.7527 18.0189C38.0193 18.0189 37.966 17.5298 37.6994 17.5221C37.6689 17.5221 37.6079 17.5756 37.547 17.6444Z" fill="white"/>
<path d="M35.094 18.4622C35.0712 18.5233 35.1016 18.638 35.1549 18.7221C35.2387 18.8291 35.292 18.8443 35.3987 18.7756C35.612 18.6456 35.5739 18.4087 35.3378 18.3781C35.2159 18.3629 35.1169 18.4011 35.094 18.4622Z" fill="white"/>
<path d="M36.7464 18.4698C36.6703 18.6685 36.7769 18.8367 36.9597 18.8061C37.0892 18.7908 37.1349 18.7297 37.1349 18.5921C37.1349 18.4545 37.0892 18.3934 36.9597 18.3781C36.8607 18.3628 36.7693 18.401 36.7464 18.4698Z" fill="white"/>
<path d="M32.6322 19.3182C32.5789 19.4481 32.7236 19.6621 32.8683 19.6621C33.0131 19.6621 33.1426 19.471 33.0892 19.3258C33.0283 19.173 32.6855 19.1653 32.6322 19.3182Z" fill="white"/>
<path d="M34.2487 19.3258C34.1725 19.5245 34.3934 19.7232 34.5686 19.6162C34.6371 19.5703 34.6981 19.4633 34.6981 19.3869C34.6981 19.1882 34.3172 19.1423 34.2487 19.3258Z" fill="white"/>
<path d="M35.9085 19.3105C35.8324 19.5092 35.939 19.6774 36.1218 19.6468C36.2513 19.6315 36.297 19.5704 36.297 19.4328C36.297 19.2952 36.2513 19.2341 36.1218 19.2188C36.0228 19.2035 35.9314 19.2417 35.9085 19.3105Z" fill="white"/>
<path d="M37.5082 19.3105C37.432 19.5092 37.5386 19.6774 37.7214 19.6468C37.8509 19.6315 37.8966 19.5704 37.8966 19.4328C37.8966 19.2952 37.8509 19.2341 37.7214 19.2188C37.6224 19.2035 37.531 19.2417 37.5082 19.3105Z" fill="white"/>
<path d="M31.8714 20.0748C31.7953 20.2735 31.9019 20.4416 32.0847 20.4111C32.2142 20.3958 32.2599 20.3346 32.2599 20.1971C32.2599 20.0595 32.2142 19.9984 32.0847 19.9831C31.9857 19.9678 31.8943 20.006 31.8714 20.0748Z" fill="white"/>
<path d="M33.4775 20.1206C33.4165 20.327 33.4851 20.4264 33.706 20.4264C33.9116 20.4264 34.0183 20.2276 33.8888 20.0748C33.7593 19.9219 33.5308 19.9449 33.4775 20.1206Z" fill="white"/>
<path d="M35.1155 20.0824C35.0394 20.1741 35.0394 20.22 35.1155 20.3117C35.2679 20.5028 35.5345 20.4263 35.5345 20.1971C35.5345 19.9678 35.2679 19.8913 35.1155 20.0824Z" fill="white"/>
<path d="M36.7464 20.0748C36.6703 20.2735 36.7769 20.4416 36.9597 20.4111C37.0892 20.3958 37.1349 20.3346 37.1349 20.1971C37.1349 20.0595 37.0892 19.9984 36.9597 19.9831C36.8607 19.9678 36.7693 20.006 36.7464 20.0748Z" fill="white"/>
<path d="M32.6396 20.9613C32.5786 21.1677 32.6472 21.267 32.8681 21.267C33.0738 21.267 33.1804 21.0683 33.0509 20.9155C32.9214 20.7626 32.6929 20.7856 32.6396 20.9613Z" fill="white"/>
<path d="M34.2872 20.9155C34.1577 21.0683 34.2643 21.267 34.47 21.267C34.6909 21.267 34.7594 21.1677 34.6985 20.9613C34.6452 20.7856 34.4166 20.7626 34.2872 20.9155Z" fill="white"/>
<path d="M35.9085 20.9155C35.8324 21.1142 35.939 21.2823 36.1218 21.2518C36.2513 21.2365 36.297 21.1753 36.297 21.0378C36.297 20.9002 36.2513 20.8391 36.1218 20.8238C36.0228 20.8085 35.9314 20.8467 35.9085 20.9155Z" fill="white"/>
</svg>
