<svg width="216" height="63" viewBox="0 0 216 63" fill="none" xmlns="http://www.w3.org/2000/svg">
<g clip-path="url(#clip0_148_13)">
<path d="M207.996 63H8.00383C3.60391 63 0.00402832 59.4563 0.00402832 55.1251V7.87601C0.00402832 3.54481 3.60391 0.00115967 8.00383 0.00115967H207.996C212.396 0.00115967 215.996 3.54481 215.996 7.87601V55.1251C215.996 59.4563 212.396 63 207.996 63Z" fill="#100F0D"/>
<path d="M207.996 0.00115967H8.00383C3.60391 0.00115967 0.00402832 3.54481 0.00402832 7.87601V55.1251C0.00402832 59.4563 3.60391 63 8.00383 63H207.996C212.396 63 215.996 59.4563 215.996 55.1251V7.87601C215.996 3.54481 212.396 0.00115967 207.996 0.00115967V0.00115967ZM207.996 1.2605C211.701 1.2605 214.716 4.22841 214.716 7.87601V55.1251C214.716 58.7727 211.701 61.7406 207.996 61.7406H8.00383C4.29835 61.7406 1.28467 58.7727 1.28467 55.1251V7.87601C1.28467 4.22841 4.29835 1.2605 8.00383 1.2605H207.996" fill="#A2A2A1"/>
<path d="M171.096 47.2503H174.081V27.5599H171.096V47.2503ZM197.987 34.6534L194.564 43.1896H194.462L190.91 34.6534H187.694L193.022 46.5841L189.984 53.2209H193.097L201.307 34.6539L197.987 34.6534ZM181.055 45.0137C180.079 45.0137 178.714 44.5319 178.714 43.3415C178.714 41.8218 180.413 41.2392 181.879 41.2392C183.191 41.2392 183.81 41.5174 184.607 41.8976C184.375 43.7217 182.78 45.0136 181.055 45.0136L181.055 45.0137ZM181.416 34.2227C179.255 34.2227 177.016 35.1602 176.09 37.2374L178.74 38.3263C179.306 37.2373 180.36 36.883 181.468 36.883C183.012 36.883 184.581 37.7941 184.607 39.4159V39.6183C184.066 39.3143 182.907 38.8585 181.493 38.8585C178.636 38.8585 175.728 40.4032 175.728 43.291C175.728 45.9255 178.071 47.6228 180.695 47.6228C182.701 47.6228 183.81 46.7363 184.503 45.6973H184.607V47.218H187.49V39.6686C187.49 36.1729 184.837 34.2227 181.416 34.2227V34.2227ZM162.965 37.0502H158.719V30.3014H162.965C165.197 30.3014 166.464 32.12 166.464 33.6757C166.464 35.2016 165.197 37.0502 162.965 37.0502ZM162.888 27.5604H155.735V47.2508H158.719V39.7912H162.888C166.197 39.7912 169.45 37.4337 169.45 33.6765C169.45 29.9199 166.197 27.5612 162.888 27.5612L162.888 27.5604ZM123.88 45.017C121.817 45.017 120.091 43.3165 120.091 40.983C120.091 38.6224 121.817 36.8979 123.88 36.8979C125.916 36.8979 127.514 38.6225 127.514 40.983C127.514 43.3165 125.916 45.017 123.88 45.017ZM127.308 35.7556H127.205C126.535 34.9692 125.245 34.2587 123.622 34.2587C120.219 34.2587 117.101 37.2025 117.101 40.983C117.101 44.7377 120.219 47.6557 123.622 47.6557C125.245 47.6557 126.535 46.945 127.205 46.1336H127.308V47.097C127.308 49.6607 125.916 51.0302 123.674 51.0302C121.844 51.0302 120.71 49.7363 120.246 48.6454L117.643 49.711C118.39 51.4864 120.374 53.6694 123.674 53.6694C127.18 53.6694 130.144 51.6391 130.144 46.6909V34.6645H127.308L127.308 35.7556ZM132.207 47.2497H135.195V27.5593H132.207V47.2497ZM139.603 40.7542C139.527 38.1659 141.641 36.8468 143.161 36.8468C144.347 36.8468 145.351 37.4307 145.688 38.2674L139.603 40.7542ZM148.883 38.5209C148.316 37.0247 146.589 34.2587 143.058 34.2587C139.551 34.2587 136.639 36.9736 136.639 40.9572C136.639 44.7126 139.527 47.6558 143.392 47.6558C146.511 47.6558 148.316 45.7788 149.064 44.6873L146.744 43.1647C145.97 44.2813 144.914 45.0171 143.392 45.0171C141.872 45.0171 140.789 44.3318 140.094 42.987L149.192 39.2827L148.883 38.5209ZM76.3918 36.3141V39.1558H83.2996C83.0933 40.7543 82.5521 41.9213 81.7271 42.7334C80.7215 43.7226 79.1491 44.8141 76.3916 44.8141C72.1385 44.8141 68.8137 41.4396 68.8137 37.2529C68.8137 33.0663 72.1385 29.6914 76.3916 29.6914C78.6858 29.6914 80.3609 30.5796 81.5982 31.7215L83.6351 29.7165C81.9076 28.0929 79.6139 26.8496 76.3916 26.8496C70.5654 26.8496 65.6681 31.5184 65.6681 37.2529C65.6681 42.9869 70.5654 47.6558 76.3916 47.6558C79.5359 47.6558 81.9077 46.6407 83.7632 44.7379C85.6708 42.8601 86.2638 40.2214 86.2638 38.0897C86.2638 37.4308 86.2118 36.8218 86.1088 36.3141H76.3918ZM94.1182 45.017C92.0556 45.017 90.277 43.3423 90.277 40.9572C90.277 38.5468 92.0556 36.898 94.1182 36.898C96.1799 36.898 97.9585 38.5468 97.9585 40.9572C97.9585 43.3423 96.1799 45.017 94.1182 45.017ZM94.1182 34.2587C90.3538 34.2587 87.2869 37.075 87.2869 40.9572C87.2869 44.8141 90.3538 47.6558 94.1182 47.6558C97.8811 47.6558 100.949 44.8141 100.949 40.9572C100.949 37.075 97.8811 34.2587 94.1182 34.2587V34.2587ZM109.019 45.017C106.957 45.017 105.178 43.3423 105.178 40.9572C105.178 38.5468 106.958 36.898 109.019 36.898C111.081 36.898 112.859 38.5468 112.859 40.9572C112.859 43.3423 111.081 45.017 109.019 45.017ZM109.019 34.2587C105.256 34.2587 102.189 37.075 102.189 40.9572C102.189 44.8141 105.256 47.6558 109.019 47.6558C112.783 47.6558 115.85 44.8141 115.85 40.9572C115.85 37.075 112.783 34.2587 109.019 34.2587" fill="white"/>
<path d="M33.1464 30.5934L16.1136 48.3902C16.1143 48.3939 16.1156 48.397 16.1162 48.4007C16.6386 50.3333 18.4317 51.7562 20.5598 51.7562C21.4105 51.7562 22.2092 51.5298 22.8941 51.1324L22.9485 51.101L42.1221 40.2098L33.1473 30.5932" fill="#EB3131"/>
<path d="M50.3796 27.5634L50.3633 27.5525L42.0854 22.8286L32.7594 30.9977L42.1178 40.2088L50.352 35.532C51.7956 34.7648 52.7756 33.2667 52.7756 31.5391C52.7756 29.8239 51.8088 28.3333 50.3795 27.5636" fill="#F6B60B"/>
<path d="M16.1112 14.6122C16.0088 14.9839 15.955 15.3732 15.955 15.7775V47.2261C15.955 47.6297 16.0081 48.0203 16.1118 48.3907L33.7326 31.0486L16.1118 14.6126" fill="#5778C5"/>
<path d="M33.2723 31.5018L42.0891 22.8253L22.9371 11.8947C22.241 11.4843 21.4285 11.2474 20.5591 11.2474C18.431 11.2474 16.6354 12.6729 16.1129 14.6077C16.1123 14.6096 16.1123 14.6109 16.1123 14.6125L33.2723 31.5022" fill="#3BAD49"/>
<path d="M75.8316 15.4059H71.1642V16.5429H74.6617C74.5667 17.4707 74.1916 18.1991 73.5592 18.7282C72.9267 19.2574 72.1192 19.5231 71.1642 19.5231C70.1167 19.5231 69.2292 19.1639 68.5019 18.4503C67.7893 17.7218 67.4269 16.8211 67.4269 15.7358C67.4269 14.6507 67.7893 13.7499 68.5019 13.0216C69.2292 12.3079 70.1167 11.9511 71.1642 11.9511C71.7018 11.9511 72.2142 12.0421 72.6841 12.2415C73.1542 12.4407 73.5316 12.7188 73.8266 13.0757L74.7141 12.2021C74.3116 11.7517 73.8017 11.4072 73.169 11.1562C72.5366 10.9051 71.8766 10.7846 71.1641 10.7846C69.7667 10.7846 68.5818 11.262 67.6142 12.2144C66.6467 13.1692 66.1617 14.3455 66.1617 15.7359C66.1617 17.1262 66.6467 18.3051 67.6142 19.2576C68.5817 20.2098 69.7667 20.6873 71.1641 20.6873C72.6315 20.6873 73.8015 20.2246 74.7015 19.2845C75.494 18.502 75.8989 17.4438 75.8989 16.1199C75.8989 15.8959 75.8714 15.6572 75.8314 15.4061L75.8316 15.4059ZM77.6397 10.9961V20.4755H83.262V19.3115H78.8772V16.3043H82.8321V15.1674H78.8772V12.1626H83.262V10.996L77.6397 10.9961ZM91.1457 12.1626V10.9961H84.5283V12.1626H87.2184V20.4755H88.4558V12.1626H91.1457ZM97.1367 10.9961H95.8993V20.4755H97.1367V10.9961ZM105.305 12.1626V10.9961H98.6874V12.1626H101.377V20.4755H102.615V12.1626H105.305ZM117.792 12.2291C116.837 11.2619 115.667 10.7845 114.269 10.7845C112.869 10.7845 111.7 11.2619 110.744 12.2143C109.789 13.1544 109.32 14.3332 109.32 15.7358C109.32 17.1384 109.79 18.3173 110.744 19.2575C111.7 20.2097 112.869 20.6873 114.269 20.6873C115.654 20.6873 116.837 20.2097 117.792 19.2575C118.747 18.3174 119.217 17.1385 119.217 15.7358C119.217 14.3454 118.747 13.169 117.792 12.2291V12.2291ZM111.632 13.0215C112.344 12.3078 113.219 11.951 114.269 11.951C115.317 11.951 116.192 12.3079 116.892 13.0215C117.604 13.7228 117.954 14.6381 117.954 15.7358C117.954 16.8359 117.604 17.7487 116.892 18.4502C116.192 19.1638 115.317 19.523 114.269 19.523C113.219 19.523 112.344 19.1638 111.632 18.4502C110.934 17.734 110.585 16.8359 110.585 15.7358C110.585 14.6382 110.934 13.7375 111.632 13.0215V13.0215ZM122.157 14.5719L122.104 12.7433H122.157L127.052 20.4754H128.344V10.996H127.107V16.5428L127.159 18.3714H127.107L122.427 10.996H120.919V20.4754H122.157V14.5719Z" fill="white" stroke="white" stroke-width="0.26666" stroke-miterlimit="10"/>
</g>
<defs>
<clipPath id="clip0_148_13">
<rect width="216" height="63" fill="white"/>
</clipPath>
</defs>
</svg>
