<svg width="26" height="20" viewBox="0 0 26 20" fill="none" xmlns="http://www.w3.org/2000/svg">
<g clip-path="url(#clip0_112_39)">
<path d="M25.753 12.8663V12.5579H25.675L25.584 12.7635L25.493 12.5579H25.415V12.8663H25.467V12.635L25.558 12.8406H25.623L25.714 12.635V12.8663H25.753ZM25.233 12.8663V12.6093H25.337V12.5579H25.077V12.6093H25.181V12.8663H25.233Z" fill="#00A2E5"/>
<path d="M16.51 14.1902H9.47699V1.69666H16.51V14.1902Z" fill="#7375CF"/>
<path d="M9.932 7.94344C9.932 5.41131 11.128 3.1491 13 1.69666C11.635 0.62982 9.906 0 8.034 0C3.601 0 0 3.56041 0 7.94344C0 12.3265 3.601 15.8869 8.034 15.8869C9.906 15.8869 11.635 15.2571 13 14.1902C11.128 12.7378 9.932 10.4756 9.932 7.94344Z" fill="#EB001B"/>
<path d="M26 7.94344C26 12.3265 22.399 15.8869 17.966 15.8869C16.094 15.8869 14.365 15.2571 13 14.1902C14.872 12.7378 16.068 10.4756 16.068 7.94344C16.068 5.41131 14.872 3.1491 13 1.69666C14.365 0.62982 16.094 0 17.966 0C22.399 0 26 3.56041 26 7.94344Z" fill="#00A2E5"/>
<path d="M18.876 17.725C18.967 17.725 19.11 17.7378 19.201 17.7764L19.058 18.2134C18.954 18.1748 18.863 18.162 18.772 18.162C18.473 18.162 18.317 18.3548 18.317 18.7018V19.8843H17.849V17.7764H18.304V18.0334C18.434 17.8406 18.616 17.725 18.876 17.725ZM17.16 18.1877H16.406V19.1388C16.406 19.3445 16.484 19.4859 16.718 19.4859C16.835 19.4859 16.991 19.4473 17.134 19.3702L17.264 19.7687C17.121 19.8715 16.887 19.9358 16.679 19.9358C16.133 19.9358 15.938 19.6401 15.938 19.1517V18.1877H15.509V17.7635H15.938V17.1208H16.406V17.7635H17.16V18.1877V18.1877ZM11.219 18.6376C11.271 18.3291 11.453 18.1234 11.791 18.1234C12.09 18.1234 12.285 18.3034 12.337 18.6376H11.219ZM12.818 18.8304C12.818 18.1748 12.402 17.725 11.804 17.725C11.18 17.725 10.738 18.1748 10.738 18.8304C10.738 19.4987 11.193 19.9358 11.83 19.9358C12.155 19.9358 12.441 19.8586 12.701 19.6401L12.467 19.3059C12.285 19.4473 12.064 19.5244 11.843 19.5244C11.544 19.5244 11.271 19.3831 11.206 19.0103H12.792C12.805 18.946 12.818 18.8946 12.818 18.8304ZM14.859 18.3162C14.729 18.2391 14.469 18.1363 14.196 18.1363C13.936 18.1363 13.793 18.2262 13.793 18.3805C13.793 18.5219 13.949 18.5604 14.157 18.5861L14.378 18.6119C14.846 18.6761 15.119 18.8689 15.119 19.2417C15.119 19.6401 14.768 19.9358 14.144 19.9358C13.793 19.9358 13.468 19.8458 13.221 19.6658L13.442 19.3059C13.598 19.4216 13.832 19.5244 14.157 19.5244C14.469 19.5244 14.638 19.4345 14.638 19.2674C14.638 19.1517 14.521 19.0874 14.261 19.0489L14.04 19.0232C13.559 18.9589 13.299 18.7404 13.299 18.4062C13.299 17.982 13.65 17.725 14.183 17.725C14.521 17.725 14.833 17.8021 15.054 17.9435L14.859 18.3162ZM20.579 18.1491C20.488 18.1491 20.397 18.162 20.319 18.2005C20.241 18.2391 20.163 18.2777 20.111 18.3419C20.059 18.4062 20.007 18.4705 19.968 18.5604C19.929 18.6376 19.916 18.7404 19.916 18.8304C19.916 18.9332 19.929 19.0232 19.968 19.1003C20.007 19.1774 20.046 19.2545 20.111 19.3188C20.176 19.3831 20.241 19.4216 20.319 19.4602C20.397 19.4987 20.488 19.5116 20.579 19.5116C20.67 19.5116 20.761 19.4987 20.839 19.4602C20.917 19.4216 20.995 19.3831 21.047 19.3188C21.112 19.2545 21.151 19.1903 21.19 19.1003C21.229 19.0232 21.242 18.9203 21.242 18.8304C21.242 18.7275 21.229 18.6376 21.19 18.5604C21.151 18.4833 21.112 18.4062 21.047 18.3419C20.982 18.2777 20.917 18.2391 20.839 18.2005C20.761 18.1748 20.67 18.1491 20.579 18.1491ZM20.579 17.725C20.748 17.725 20.904 17.7507 21.034 17.8149C21.177 17.8664 21.294 17.9435 21.398 18.0463C21.502 18.1491 21.58 18.2648 21.645 18.3933C21.697 18.5347 21.736 18.6761 21.736 18.8304C21.736 18.9846 21.71 19.1388 21.645 19.2674C21.593 19.4088 21.502 19.5244 21.398 19.6144C21.294 19.7173 21.177 19.7944 21.034 19.8458C20.891 19.8972 20.735 19.9358 20.579 19.9358C20.41 19.9358 20.254 19.9101 20.124 19.8458C19.981 19.7944 19.864 19.7173 19.76 19.6144C19.656 19.5116 19.578 19.3959 19.513 19.2674C19.461 19.126 19.422 18.9846 19.422 18.8304C19.422 18.6761 19.448 18.5219 19.513 18.3933C19.565 18.252 19.656 18.1363 19.76 18.0463C19.864 17.9435 19.981 17.8664 20.124 17.8149C20.254 17.7507 20.41 17.725 20.579 17.725ZM8.51498 18.8304C8.51498 18.4576 8.76198 18.1491 9.16498 18.1491C9.55498 18.1491 9.80198 18.4448 9.80198 18.8304C9.80198 19.216 9.54198 19.4987 9.16498 19.4987C8.76198 19.4987 8.51498 19.2031 8.51498 18.8304ZM10.244 18.8304V17.7764H9.77598V18.0334C9.63298 17.8406 9.41198 17.725 9.09998 17.725C8.50198 17.725 8.03398 18.1877 8.03398 18.8304C8.03398 19.473 8.50198 19.9358 9.09998 19.9358C9.39898 19.9358 9.61998 19.8201 9.77598 19.6273V19.8843H10.244V18.8304ZM7.63098 19.8843V18.5604C7.63098 18.0592 7.30598 17.725 6.78598 17.725C6.51298 17.725 6.22698 17.8021 6.03198 18.0977C5.88898 17.8664 5.65498 17.725 5.32998 17.725C5.10898 17.725 4.87498 17.7892 4.70598 18.0334V17.7764H4.23798V19.8843H4.70598V18.7147C4.70598 18.3548 4.91398 18.1491 5.22598 18.1491C5.53798 18.1491 5.69398 18.3419 5.69398 18.7018V19.8715H6.16198V18.7018C6.16198 18.3419 6.38298 18.1363 6.68198 18.1363C6.99398 18.1363 7.14998 18.3291 7.14998 18.689V19.8586H7.63098V19.8843Z" fill="black"/>
<path d="M22.23 19.7172V19.7686H22.282C22.295 19.7686 22.308 19.7686 22.308 19.7558C22.321 19.7558 22.321 19.7429 22.321 19.73C22.321 19.7172 22.321 19.7172 22.308 19.7172C22.308 19.7172 22.295 19.7043 22.282 19.7043H22.23V19.7172ZM22.282 19.6915C22.308 19.6915 22.321 19.6915 22.334 19.7043C22.347 19.7172 22.36 19.73 22.36 19.7558C22.36 19.7686 22.36 19.7815 22.347 19.7943C22.334 19.8072 22.321 19.8072 22.295 19.8072L22.36 19.8843H22.308L22.243 19.8072H22.23V19.8843H22.191V19.6915H22.282ZM22.269 19.9486C22.295 19.9486 22.308 19.9486 22.334 19.9357C22.36 19.9228 22.373 19.91 22.386 19.8971C22.399 19.8843 22.412 19.8714 22.425 19.8457C22.438 19.82 22.438 19.8072 22.438 19.7815C22.438 19.7558 22.438 19.7429 22.425 19.7172C22.412 19.6915 22.399 19.6786 22.386 19.6658C22.373 19.6529 22.36 19.6401 22.334 19.6272C22.321 19.6144 22.295 19.6144 22.269 19.6144C22.243 19.6144 22.23 19.6144 22.204 19.6272C22.178 19.6401 22.165 19.6529 22.152 19.6658C22.139 19.6786 22.126 19.7043 22.113 19.7172C22.1 19.7429 22.1 19.7558 22.1 19.7815C22.1 19.8072 22.1 19.82 22.113 19.8457C22.126 19.8714 22.139 19.8843 22.152 19.8971C22.165 19.91 22.191 19.9228 22.204 19.9357C22.23 19.9486 22.243 19.9486 22.269 19.9486ZM22.269 19.5758C22.295 19.5758 22.321 19.5758 22.347 19.5887C22.373 19.6015 22.399 19.6144 22.412 19.6272C22.425 19.6401 22.451 19.6658 22.464 19.6915C22.477 19.7172 22.477 19.7429 22.477 19.7686C22.477 19.7943 22.477 19.82 22.464 19.8457C22.451 19.8714 22.438 19.8971 22.412 19.91C22.386 19.9228 22.373 19.9486 22.347 19.9614C22.321 19.9743 22.295 19.9743 22.269 19.9743C22.243 19.9743 22.204 19.9743 22.178 19.9614C22.152 19.9486 22.126 19.9357 22.113 19.91C22.1 19.8971 22.074 19.8714 22.061 19.8457C22.048 19.82 22.048 19.7943 22.048 19.7686C22.048 19.7429 22.048 19.7172 22.061 19.6915C22.074 19.6658 22.087 19.6401 22.113 19.6272C22.126 19.6144 22.152 19.5887 22.178 19.5887C22.204 19.5758 22.243 19.5758 22.269 19.5758Z" fill="black"/>
</g>
<defs>
<clipPath id="clip0_112_39">
<rect width="26" height="20" fill="white"/>
</clipPath>
</defs>
</svg>
