<svg width="26" height="20" viewBox="0 0 26 20" fill="none" xmlns="http://www.w3.org/2000/svg">
<g clip-path="url(#clip0_112_49)">
<path d="M4.71237 19.9562V18.6289C4.71237 18.1212 4.40012 17.7887 3.86409 17.7887C3.59608 17.7887 3.30464 17.8763 3.10428 18.165C2.94816 17.9227 2.72438 17.7887 2.38871 17.7887C2.16493 17.7887 1.94115 17.8557 1.76421 18.098V17.8325H1.29584V19.9562H1.76421V18.7835C1.76421 18.4073 1.96457 18.2294 2.27682 18.2294C2.58907 18.2294 2.7452 18.4279 2.7452 18.7835V19.9562H3.21357V18.7835C3.21357 18.4073 3.43735 18.2294 3.72618 18.2294C4.03843 18.2294 4.19456 18.4279 4.19456 18.7835V19.9562H4.71237ZM11.6599 17.8325H10.9001V17.1908H10.4317V17.8325H10.0076V18.2526H10.4317V19.2268C10.4317 19.714 10.6321 20 11.1681 20C11.3685 20 11.5923 19.933 11.7484 19.8454L11.6131 19.4459C11.4778 19.5335 11.3217 19.5567 11.2098 19.5567C10.986 19.5567 10.8975 19.4227 10.8975 19.2036V18.2526H11.6573V17.8325H11.6599ZM15.6359 17.7861C15.3679 17.7861 15.1884 17.9201 15.0765 18.0954V17.8299H14.6081V19.9537H15.0765V18.7578C15.0765 18.4047 15.2326 18.2036 15.524 18.2036C15.6125 18.2036 15.7244 18.2268 15.8155 18.2475L15.9508 17.8042C15.8571 17.7861 15.7244 17.7861 15.6359 17.7861ZM9.6277 18.0078C9.40392 17.8531 9.09167 17.7861 8.75601 17.7861C8.21998 17.7861 7.86349 18.0516 7.86349 18.4717C7.86349 18.8248 8.13151 19.0258 8.59988 19.0902L8.82366 19.1134C9.06826 19.1573 9.20356 19.2243 9.20356 19.3351C9.20356 19.4897 9.02402 19.6006 8.71177 19.6006C8.39952 19.6006 8.15232 19.4897 7.9962 19.3789L7.77242 19.732C8.01701 19.9098 8.35268 19.9975 8.68835 19.9975C9.31285 19.9975 9.67194 19.7088 9.67194 19.3119C9.67194 18.9356 9.3805 18.7372 8.93555 18.6701L8.71177 18.6469C8.51141 18.6238 8.35529 18.5799 8.35529 18.4485C8.35529 18.2939 8.51141 18.2062 8.75861 18.2062C9.02662 18.2062 9.29464 18.3171 9.42994 18.3841L9.6277 18.0078ZM22.0891 17.7861C21.8211 17.7861 21.6415 17.9201 21.5296 18.0954V17.8299H21.0612V19.9537H21.5296V18.7578C21.5296 18.4047 21.6857 18.2036 21.9772 18.2036C22.0657 18.2036 22.1775 18.2268 22.2686 18.2475L22.4039 17.8093C22.3129 17.7861 22.1801 17.7861 22.0891 17.7861ZM16.1043 18.8944C16.1043 19.5361 16.5518 20 17.244 20C17.5562 20 17.78 19.933 18.0038 19.7578L17.78 19.3815C17.6005 19.5155 17.4235 19.5799 17.2206 19.5799C16.8407 19.5799 16.5727 19.3145 16.5727 18.8944C16.5727 18.4949 16.8407 18.2294 17.2206 18.2088C17.4209 18.2088 17.6005 18.2758 17.78 18.4073L18.0038 18.031C17.78 17.8531 17.5562 17.7887 17.244 17.7887C16.5518 17.7861 16.1043 18.2526 16.1043 18.8944ZM20.4368 18.8944V17.8325H19.9684V18.098C19.8123 17.8995 19.5885 17.7887 19.297 17.7887C18.6934 17.7887 18.225 18.2526 18.225 18.8944C18.225 19.5361 18.6934 20 19.297 20C19.6093 20 19.8331 19.8892 19.9684 19.6908V19.9562H20.4368V18.8944ZM18.7168 18.8944C18.7168 18.5181 18.9614 18.2088 19.3647 18.2088C19.7446 18.2088 20.0126 18.4975 20.0126 18.8944C20.0126 19.2707 19.7446 19.5799 19.3647 19.5799C18.964 19.5567 18.7168 19.2681 18.7168 18.8944ZM13.1119 17.7861C12.4874 17.7861 12.0398 18.2294 12.0398 18.8918C12.0398 19.5567 12.4874 19.9975 13.1353 19.9975C13.4476 19.9975 13.7598 19.9098 14.007 19.7088L13.7832 19.3763C13.6037 19.5104 13.3799 19.598 13.1587 19.598C12.8673 19.598 12.5785 19.464 12.5108 19.0902H14.0955C14.0955 19.0232 14.0955 18.9794 14.0955 18.9124C14.1163 18.2294 13.713 17.7861 13.1119 17.7861ZM13.1119 18.1856C13.4033 18.1856 13.6037 18.3634 13.6479 18.6933H12.5316C12.5759 18.4073 12.7762 18.1856 13.1119 18.1856ZM24.7484 18.8944V16.9923H24.28V18.098C24.1239 17.8995 23.9001 17.7887 23.6087 17.7887C23.005 17.7887 22.5366 18.2526 22.5366 18.8944C22.5366 19.5361 23.005 20 23.6087 20C23.9209 20 24.1447 19.8892 24.28 19.6908V19.9562H24.7484V18.8944ZM23.0284 18.8944C23.0284 18.5181 23.273 18.2088 23.6763 18.2088C24.0562 18.2088 24.3243 18.4975 24.3243 18.8944C24.3243 19.2707 24.0562 19.5799 23.6763 19.5799C23.273 19.5567 23.0284 19.2681 23.0284 18.8944ZM7.34828 18.8944V17.8325H6.8799V18.098C6.72378 17.8995 6.5 17.7887 6.20857 17.7887C5.60488 17.7887 5.13651 18.2526 5.13651 18.8944C5.13651 19.5361 5.60488 20 6.20857 20C6.52082 20 6.7446 19.8892 6.8799 19.6908V19.9562H7.34828V18.8944ZM5.60749 18.8944C5.60749 18.5181 5.85208 18.2088 6.2554 18.2088C6.63531 18.2088 6.90332 18.4975 6.90332 18.8944C6.90332 19.2707 6.63531 19.5799 6.2554 19.5799C5.85208 19.5567 5.60749 19.2681 5.60749 18.8944Z" fill="black"/>
<path d="M16.5076 1.70361H9.47159V14.2242H16.5076V1.70361Z" fill="#FF5A00"/>
<path d="M9.93995 7.96392C9.93995 5.4201 11.1473 3.16237 13 1.70361C11.6365 0.641753 9.91653 0 8.04043 0C3.59608 0 0 3.56186 0 7.96392C0 12.366 3.59608 15.9278 8.04043 15.9278C9.91653 15.9278 11.6365 15.2861 13 14.2242C11.1447 12.7861 9.93995 10.5077 9.93995 7.96392Z" fill="#EB001B"/>
<path d="M26 7.96392C26 12.366 22.4039 15.9278 17.9596 15.9278C16.0835 15.9278 14.3635 15.2861 13 14.2242C14.8761 12.7629 16.06 10.5077 16.06 7.96392C16.06 5.4201 14.8527 3.16237 13 1.70361C14.3609 0.641753 16.0809 0 17.957 0C22.4039 0 26 3.58505 26 7.96392Z" fill="#F79E1B"/>
</g>
<defs>
<clipPath id="clip0_112_49">
<rect width="26" height="20" fill="white"/>
</clipPath>
</defs>
</svg>
