<svg width="62" height="18" viewBox="0 0 62 18" fill="none" xmlns="http://www.w3.org/2000/svg">
<path fill-rule="evenodd" clip-rule="evenodd" d="M5.73334 0.457842C6.28724 0.454528 7.9334 0.306266 8.63068 2.65959C9.10038 4.24482 9.84858 6.8415 10.8753 10.4496H11.2934C12.3945 6.64568 13.1508 4.04901 13.5625 2.65959C14.267 0.281752 16.0284 0.457889 16.733 0.457889L22.1687 0.457895V17.3669H16.6284V7.40216H16.2569L13.1685 17.3669H9.00018L5.91176 7.39478H5.54025V17.3669H0V0.457895L5.73334 0.457842ZM30.1244 0.457895V10.4301H30.5664L34.3231 2.23003C35.0524 0.598189 36.6067 0.457895 36.6067 0.457895H41.968V17.367H36.312V7.39478H35.87L32.1869 15.5948C31.4577 17.2193 29.8297 17.367 29.8297 17.367H24.4684V0.457895H30.1244ZM61.5175 8.4932C60.7285 10.7289 58.2509 12.33 55.5079 12.33H49.5765V17.367H44.198V8.4932H61.5175Z" fill="#0F754E"/>
<path fill-rule="evenodd" clip-rule="evenodd" d="M55.7673 0.457916H43.916C44.198 4.22245 47.4399 7.44514 50.796 7.44514H61.8912C62.5315 4.31637 60.3273 0.457916 55.7673 0.457916Z" fill="url(#paint0_linear_201_29)"/>
<defs>
<linearGradient id="paint0_linear_201_29" x1="62" y1="4.85318" x2="43.916" y2="4.85318" gradientUnits="userSpaceOnUse">
<stop stop-color="#1F5CD7"/>
<stop offset="1" stop-color="#02AEFF"/>
</linearGradient>
</defs>
</svg>
