<svg width="70" height="18" viewBox="0 0 70 18" fill="none" xmlns="http://www.w3.org/2000/svg">
<path d="M26.0869 3.68127H22.2261C21.9619 3.68127 21.7373 3.86673 21.6961 4.11873L20.1346 13.6844C20.1036 13.8731 20.2548 14.0433 20.453 14.0433H22.2961C22.5603 14.0433 22.785 13.8578 22.8262 13.6053L23.2473 11.0253C23.288 10.7727 23.5132 10.5873 23.7769 10.5873H24.999C27.5422 10.5873 29.0099 9.39818 29.3932 7.04182C29.566 6.01091 29.4006 5.20091 28.901 4.63364C28.3523 4.01073 27.379 3.68127 26.0869 3.68127ZM26.5323 7.17491C26.3211 8.51346 25.2627 8.51346 24.2392 8.51346H23.6566L24.0653 6.01364C24.0896 5.86255 24.2251 5.75127 24.3832 5.75127H24.6502C25.3473 5.75127 26.005 5.75127 26.3448 6.13527C26.5475 6.36437 26.6096 6.70473 26.5323 7.17491Z" fill="#253B80"/>
<path d="M37.6273 7.13187H35.7785C35.621 7.13187 35.4849 7.24314 35.4607 7.39423L35.3788 7.89387L35.2495 7.71278C34.8493 7.1515 33.9568 6.96387 33.066 6.96387C31.023 6.96387 29.2781 8.45896 28.9382 10.5562C28.7615 11.6024 29.0128 12.6028 29.6269 13.3004C30.1903 13.9419 30.9965 14.2091 31.9556 14.2091C33.6017 14.2091 34.5145 13.1864 34.5145 13.1864L34.4321 13.6828C34.4011 13.8726 34.5524 14.0428 34.7494 14.0428H36.4147C36.6794 14.0428 36.903 13.8573 36.9448 13.6048L37.944 7.49078C37.9756 7.30259 37.8249 7.13187 37.6273 7.13187ZM35.0503 10.6086C34.8719 11.6291 34.0336 12.3142 32.9644 12.3142C32.4275 12.3142 31.9985 12.1479 31.723 11.8326C31.4498 11.5195 31.3459 11.0739 31.4328 10.5775C31.5994 9.56569 32.4518 8.85823 33.5046 8.85823C34.0296 8.85823 34.4564 9.02678 34.7375 9.34478C35.0192 9.66605 35.131 10.1144 35.0503 10.6086Z" fill="#253B80"/>
<path d="M47.4735 7.13184H45.6157C45.4385 7.13184 45.2719 7.21693 45.1714 7.35929L42.6091 11.0062L41.523 7.50165C41.4547 7.28238 41.2452 7.13184 41.0081 7.13184H39.1825C38.9606 7.13184 38.8065 7.34129 38.8771 7.54311L40.9235 13.3457L38.9996 15.9698C38.8483 16.1766 39.0007 16.4607 39.2621 16.4607H41.1177C41.2938 16.4607 41.4586 16.3778 41.5585 16.2382L47.7377 7.62002C47.8856 7.41384 47.7338 7.13184 47.4735 7.13184Z" fill="#253B80"/>
<path d="M53.6245 3.68127H49.7632C49.4996 3.68127 49.2749 3.86673 49.2337 4.11873L47.6723 13.6844C47.6412 13.8731 47.7925 14.0433 47.9895 14.0433H49.971C50.155 14.0433 50.3125 13.9135 50.3413 13.7367L50.7844 11.0253C50.8251 10.7727 51.0503 10.5873 51.314 10.5873H52.5356C55.0793 10.5873 56.5465 9.39818 56.9303 7.04182C57.1036 6.01091 56.9371 5.20091 56.4375 4.63364C55.8894 4.01073 54.9167 3.68127 53.6245 3.68127ZM54.0699 7.17491C53.8594 8.51346 52.8009 8.51346 51.7769 8.51346H51.1948L51.6041 6.01364C51.6284 5.86255 51.7628 5.75127 51.9214 5.75127H52.1884C52.885 5.75127 53.5432 5.75127 53.8831 6.13527C54.0857 6.36437 54.1473 6.70473 54.0699 7.17491Z" fill="#179BD7"/>
<path d="M65.1643 7.13187H63.3167C63.1581 7.13187 63.0231 7.24314 62.9994 7.39423L62.9176 7.89387L62.7877 7.71278C62.3875 7.1515 61.4956 6.96387 60.6048 6.96387C58.5618 6.96387 56.8174 8.45896 56.4776 10.5562C56.3014 11.6024 56.5515 12.6028 57.1657 13.3004C57.7302 13.9419 58.5352 14.2091 59.4943 14.2091C61.1405 14.2091 62.0533 13.1864 62.0533 13.1864L61.9709 13.6828C61.9398 13.8726 62.0911 14.0428 62.2893 14.0428H63.954C64.2177 14.0428 64.4423 13.8573 64.4835 13.6048L65.4833 7.49078C65.5138 7.30259 65.3625 7.13187 65.1643 7.13187ZM62.5873 10.6086C62.4101 11.6291 61.5706 12.3142 60.5014 12.3142C59.9657 12.3142 59.5356 12.1479 59.2601 11.8326C58.9868 11.5195 58.8841 11.0739 58.9699 10.5775C59.1376 9.56569 59.9889 8.85823 61.0417 8.85823C61.5667 8.85823 61.9935 9.02678 62.2746 9.34478C62.5574 9.66605 62.6692 10.1144 62.5873 10.6086Z" fill="#179BD7"/>
<path d="M67.344 3.9437L65.7594 13.6844C65.7283 13.8732 65.8796 14.0433 66.0766 14.0433H67.6697C67.9344 14.0433 68.1591 13.8579 68.1998 13.6053L69.7623 4.04024C69.7934 3.85151 69.6421 3.68079 69.4451 3.68079H67.6612C67.5037 3.68133 67.3682 3.7926 67.344 3.9437Z" fill="#179BD7"/>
<path d="M4.10176 15.9022L4.397 14.0902L3.73934 14.0754H0.598938L2.78136 0.704715C2.78813 0.664351 2.81015 0.626715 2.84233 0.599987C2.8745 0.57326 2.91571 0.558533 2.95862 0.558533H8.25378C10.0117 0.558533 11.2248 0.911987 11.8582 1.60962C12.1551 1.9369 12.3443 2.2789 12.4357 2.65526C12.5317 3.05017 12.5334 3.52199 12.4397 4.09744L12.4329 4.13944V4.50817L12.7298 4.67071C12.9799 4.7989 13.1786 4.94562 13.331 5.11362C13.5851 5.39344 13.7493 5.74908 13.8188 6.17071C13.8905 6.60435 13.8668 7.12035 13.7493 7.70453C13.6139 8.37653 13.3948 8.96181 13.099 9.44072C12.8269 9.88199 12.4803 10.248 12.0688 10.5316C11.6759 10.8011 11.209 11.0056 10.6812 11.1365C10.1697 11.2653 9.5866 11.3302 8.947 11.3302H8.53491C8.24023 11.3302 7.95402 11.4327 7.72934 11.6165C7.5041 11.8042 7.35507 12.0605 7.30934 12.3409L7.27829 12.504L6.75668 15.6976L6.73297 15.8149C6.72676 15.852 6.71604 15.8705 6.70023 15.8831C6.68612 15.8945 6.66579 15.9022 6.64603 15.9022H4.10176Z" fill="#253B80"/>
<path d="M13.011 4.18201C12.9952 4.27964 12.9771 4.37946 12.9568 4.48201C12.2585 7.94619 9.86943 9.14292 6.81822 9.14292H5.26467C4.89153 9.14292 4.57709 9.40473 4.51895 9.76037L3.72354 14.6346L3.4983 16.0162C3.46048 16.2496 3.64677 16.4602 3.89064 16.4602H6.64604C6.97233 16.4602 7.24951 16.2311 7.30088 15.9202L7.32798 15.7849L7.84677 12.6038L7.88007 12.4293C7.93088 12.1173 8.20862 11.8882 8.53491 11.8882H8.94701C11.6166 11.8882 13.7064 10.8409 14.3173 7.81037C14.5724 6.54437 14.4403 5.48728 13.7652 4.74382C13.5608 4.51964 13.3073 4.33364 13.011 4.18201Z" fill="#179BD7"/>
<path d="M12.2805 3.90051C12.1738 3.87051 12.0637 3.84323 11.9508 3.81869C11.8373 3.79469 11.721 3.77342 11.6014 3.75487C11.1825 3.68942 10.7235 3.65833 10.2319 3.65833H6.08153C5.97935 3.65833 5.88226 3.68069 5.79532 3.72105C5.60395 3.80996 5.46169 3.98505 5.42726 4.19942L4.54435 9.60269L4.51895 9.76033C4.5771 9.40469 4.89153 9.14287 5.26468 9.14287H6.81823C9.86944 9.14287 12.2585 7.9456 12.9568 4.48196C12.9777 4.37942 12.9952 4.2796 13.011 4.18196C12.8343 4.09142 12.6429 4.01396 12.4369 3.94796C12.386 3.9316 12.3335 3.91578 12.2805 3.90051Z" fill="#222D65"/>
<path d="M5.42725 4.19945C5.46169 3.98509 5.60395 3.81 5.79532 3.72164C5.88282 3.68127 5.97935 3.65891 6.08153 3.65891H10.2318C10.7235 3.65891 11.1825 3.69 11.6014 3.75545C11.721 3.774 11.8373 3.79527 11.9508 3.81927C12.0637 3.84382 12.1738 3.87109 12.2805 3.90109C12.3335 3.91636 12.386 3.93218 12.4374 3.948C12.6435 4.014 12.8348 4.092 13.0115 4.182C13.2193 2.90182 13.0098 2.03018 12.2935 1.24091C11.5037 0.372 10.0783 0 8.25435 0H2.95919C2.58661 0 2.26878 0.261818 2.2112 0.618L0.00563885 14.1262C-0.0378289 14.3935 0.175558 14.6345 0.454429 14.6345H3.72354L4.54435 9.60273L5.42725 4.19945Z" fill="#253B80"/>
</svg>
