<svg width="90" height="67" viewBox="0 0 90 67" fill="none" xmlns="http://www.w3.org/2000/svg">
<path fill-rule="evenodd" clip-rule="evenodd" d="M65.5326 23.242L65.0055 24.9189C64.726 25.7883 63.8086 27.2193 62.1013 27.3642C62.2881 28.1476 62.7043 29.0276 63.6232 29.4064L64.9463 29.9468L64.2324 31.1815C64.0713 31.4442 63.2405 32.6562 61.5073 32.6562C61.2111 32.6562 60.9241 32.626 60.6491 32.5687C60.5793 32.8751 60.4927 33.183 60.3894 33.4895C59.9838 34.6894 60.3332 35.5241 60.3484 35.5589L60.9863 36.8931L59.5221 37.2781L59.5199 37.2786C59.4841 37.2879 59.0492 37.4004 58.5226 37.4004C58.2719 37.4004 58.0335 37.3747 57.8102 37.3218C57.6401 37.2826 57.476 37.2298 57.3196 37.1664C57.1297 37.503 56.9003 37.8094 56.6345 38.0826C55.7019 39.0366 54.3773 39.5196 52.6989 39.5196L51.4974 39.5045L53.9627 40.5264L52.1202 41.4154C51.4671 41.7323 50.6285 42.1384 49.781 42.4463L50.018 43.0848L49.3693 43.3791C49.3117 43.4063 48.0767 43.9542 46.0215 44.075C46.0215 44.075 45.5279 44.0991 45.253 44.0991C44.9781 44.0991 44.4783 44.0765 44.4783 44.0765C42.4108 43.9588 41.1671 43.4055 41.1079 43.3792L41.1078 43.3791L40.4607 43.0863L40.6946 42.4493C39.8713 42.1505 39.0617 41.7595 38.3797 41.429L36.5023 40.5278L38.9751 39.5075L37.7782 39.5225H37.7721C36.0952 39.5225 34.7722 39.0395 33.838 38.0871C33.5707 37.8124 33.3413 37.506 33.1529 37.1694C32.9965 37.2328 32.834 37.2856 32.6639 37.3248C32.4391 37.3777 32.2006 37.4034 31.9499 37.4034C31.3985 37.4034 30.958 37.2841 30.9398 37.2781L29.4816 36.8962L30.1348 35.5362C30.1393 35.5271 30.4887 34.6909 30.0831 33.4924C29.9798 33.1876 29.8918 32.8796 29.8219 32.5717C29.5485 32.6291 29.2644 32.6578 28.9697 32.6592C27.6088 32.6592 26.6533 31.8713 26.2463 31.1981L25.5248 29.9498L26.8478 29.408C27.7652 29.0291 28.1829 28.1506 28.3712 27.3657C26.6396 27.2118 25.7359 25.7808 25.4655 24.9175L24.9278 23.242L26.705 23.2993C26.8341 23.2978 27.905 23.2677 28.9409 22.519C28.923 22.5207 28.9053 22.5226 28.8875 22.5244L28.8875 22.5244C28.8267 22.5308 28.7662 22.5371 28.7039 22.5371C27.6361 22.5371 26.6001 21.8986 26.1855 20.9824L25.4397 19.3296C26.5425 19.3492 27.2548 19.2224 27.2548 19.2224C27.2546 19.2224 27.2553 19.2223 27.257 19.222L27.2571 19.222C27.3003 19.2146 27.9529 19.1031 28.7039 18.3409C29.2675 17.7704 29.9632 17.4685 30.7165 17.4685C31.0462 17.4685 31.3409 17.5273 31.593 17.6073C31.5535 17.473 31.517 17.3372 31.4943 17.1983C31.2755 15.8035 32.0791 14.6941 32.2416 14.4843L33.5737 12.8602L34.3879 14.7666C34.3879 14.7666 34.5914 15.2044 34.9559 15.4186C35.0684 14.8617 35.3402 14.2338 35.9235 13.636C37.0172 12.5085 38.3524 12.3394 39.0511 12.3394C39.3762 12.3394 39.6055 12.3742 39.6815 12.3862L39.7331 12.3953L41.2429 12.6911C41.1533 12.3394 40.9589 11.7297 40.6035 11.1787L39.7286 9.82627L41.9249 10.0753L42.6237 8.59763L43.9832 9.29196L45.2332 8.06177L46.4864 9.29196L47.8413 8.59763L48.5415 10.0753L50.7394 9.82627L49.8661 11.1787C49.5106 11.7297 49.3162 12.341 49.2251 12.6927L50.8078 12.3832C50.864 12.3742 51.0949 12.3394 51.4184 12.3394C52.1172 12.3394 53.4523 12.507 54.549 13.636C55.1308 14.2353 55.4026 14.8617 55.5135 15.4186C55.8719 15.2068 56.0758 14.7796 56.0886 14.7528L56.0892 14.7515L56.9019 12.8557L58.2127 14.4692C58.2127 14.4677 59.2152 15.6481 58.9753 17.1952C58.954 17.3356 58.916 17.4715 58.8765 17.6058C59.1302 17.5258 59.4248 17.4669 59.7545 17.4669C60.5079 17.4669 61.2035 17.7688 61.7655 18.3394C62.5305 19.1157 63.1942 19.2163 63.2327 19.2222C63.2336 19.2223 63.2342 19.2224 63.2344 19.2224C63.2344 19.2224 64.0942 19.3402 65.0343 19.3281L64.284 20.9809C63.8693 21.8956 62.8349 22.5356 61.7655 22.5356C61.7042 22.5356 61.6438 22.5292 61.5835 22.5228L61.5829 22.5227C61.5658 22.5209 61.5487 22.5191 61.5316 22.5175C62.5706 23.2661 63.6415 23.2963 63.7889 23.2963L65.5326 23.242ZM41.3402 13.2738L41.3583 13.2693L41.3553 13.2542L41.3402 13.2738Z" fill="white"/>
<path fill-rule="evenodd" clip-rule="evenodd" d="M48.5789 29.8476H39.2084V24.4696C39.2084 23.9488 39.055 23.425 38.8743 22.942H43.097C43.498 23.3375 43.8914 23.5851 44.265 23.7209C44.218 23.9126 44.1542 24.3065 44.3334 24.7005C44.4808 25.019 44.7466 25.2635 45.1324 25.4265C45.1749 25.819 45.4255 26.4106 46.1151 26.6703C45.8129 26.9737 45.5182 27.2605 45.3997 27.3752L42.5957 27.3314C42.532 27.3012 42.4241 27.2288 42.3755 27.1292C42.3722 27.1211 42.3681 27.1152 42.3641 27.1094C42.3606 27.1043 42.3571 27.0993 42.3542 27.0929L42.8114 27.1669C42.8177 27.1679 42.8248 27.1682 42.8315 27.1683C42.8345 27.1684 42.8375 27.1684 42.8403 27.1684C42.9299 27.1684 43.0058 27.1065 43.021 27.0174C43.0362 26.9163 42.9679 26.8243 42.8692 26.8091L42.3071 26.7216L42.9314 24.5782L42.3405 23.342L41.3927 24.3382L41.335 26.5662L40.6985 26.4665C40.5998 26.4469 40.5056 26.5178 40.4889 26.6175C40.4737 26.7156 40.5405 26.8077 40.6408 26.8258L40.9082 26.8665C40.814 26.9208 40.7501 26.9631 40.7426 26.9692L40.6895 27.0069L40.6742 27.0733C40.5193 27.6982 40.8687 28.2914 41.2484 28.557L41.2347 28.6356C41.218 28.7322 41.2408 28.8257 41.2985 28.9042C41.3548 28.9843 41.4383 29.0325 41.534 29.0491C41.5537 29.0536 41.575 29.0552 41.5932 29.0552C41.7572 29.0552 41.9 28.942 41.9395 28.7774C42.0808 28.794 42.2099 28.7971 42.298 28.7971H42.3724L46.0499 29.4582L46.1121 29.4159C46.4037 29.2137 47.5217 28.4046 47.8878 28.136C47.988 28.2205 48.1004 28.2989 48.2371 28.3639C48.1171 28.7594 48.111 29.3676 48.5789 29.8476ZM39.2083 30.2099H51.2582L51.2567 34.7155C51.2567 36.2068 50.3742 37.2498 48.9843 37.5894L49.2167 36.3849C49.2304 36.314 49.2441 36.2309 49.2547 36.1615C49.3215 36.1886 49.3899 36.2113 49.4658 36.2249C49.5525 36.2415 49.6329 36.249 49.7058 36.249C50.0613 36.249 50.2678 36.0634 50.4061 35.9049L50.5853 35.6981L50.4395 35.4717C50.4385 35.4701 50.4359 35.4661 50.4319 35.4598C50.3796 35.3781 50.0845 34.9169 49.8547 34.5947C49.8061 34.5268 49.759 34.4574 49.7119 34.3849L49.7092 34.3808C49.4271 33.9618 49.0747 33.4385 48.3677 33.4385L48.3039 33.44C48.1884 33.4476 48.0881 33.4702 48.0061 33.5004C47.7844 33.3977 47.5535 33.3434 47.315 33.3434C47.0218 33.3434 46.7743 33.4234 46.6102 33.4792C46.5951 33.4836 46.5805 33.4881 46.5664 33.4924C46.5368 33.5016 46.5099 33.5099 46.4871 33.514L45.1627 33.3842C45.1459 33.3811 45.0913 33.3495 45.0259 33.2725V33.2649L45.313 33.1502C45.2325 32.2008 44.3165 31.6166 43.8047 31.4189C43.7819 31.3238 43.7364 31.2287 43.6558 31.1517L43.3718 30.883L43.1212 31.1804L42.9981 31.3328L41.142 30.5751L42.3495 32.0816L41.8726 32.7985C41.6979 32.9826 41.8908 33.1668 41.8908 33.1668L42.3829 33.5049L42.8933 33.3163C42.9034 33.3163 42.9135 33.3179 42.9236 33.3195C42.9302 33.3206 42.9368 33.3217 42.9434 33.3223C42.929 33.3654 42.9126 33.4789 42.8973 33.5854C42.8853 33.6691 42.8738 33.7485 42.8645 33.7857L41.9789 33.6121L41.0477 34.1344C40.5693 34.4831 40.504 35.0611 40.6817 35.4566L40.785 35.6815L40.9323 35.9984L41.2589 35.8641C41.2635 35.8641 41.268 35.8626 41.2711 35.8596C41.1541 36.2309 41.2027 36.5857 41.4108 36.8166L41.6083 37.0626L41.8711 37.3932L42.1597 37.0853C42.2432 37.0007 42.5197 36.6943 42.6047 36.4317L42.667 36.2309L42.5257 36.077L42.5014 36.0498L42.6594 35.7901L43.8153 36.0604L44.075 36.1192L44.2133 35.8928L44.2892 35.769C44.3029 35.7434 44.3075 35.7389 44.3606 35.7389C44.4017 35.7389 44.4426 35.7419 44.4867 35.7524C44.9226 35.8339 45.3252 35.8747 45.6821 35.8747C46.03 35.8747 46.2366 35.8612 46.4826 35.7796C46.4826 35.7796 47.1039 36.4815 47.1251 36.5071L46.7454 37.6739L46.7286 37.7434C46.0087 37.8022 45.6578 37.9592 45.2341 38.3788C44.6189 37.772 44.1829 37.7086 42.5287 37.7086C40.5495 37.7086 39.2083 36.5555 39.2083 34.7139V30.2099Z" fill="#FFDD2D"/>
<path fill-rule="evenodd" clip-rule="evenodd" d="M48.403 12.8557C47.7788 12.3591 46.6486 11.8942 45.236 11.8942C43.8249 11.8942 42.6978 12.3591 42.072 12.8557C42.072 12.8557 41.8867 11.7463 41.2533 10.7666L42.391 10.895L42.9849 9.63762L44.1302 10.2232L45.236 9.13342L46.3448 10.2232L47.4886 9.63762L48.0841 10.895L49.2217 10.7666C48.5883 11.7463 48.403 12.8557 48.403 12.8557ZM42.6553 11.3689L42.3393 11.3357L42.0371 11.2995C42.1753 11.6074 42.2756 11.9017 42.35 12.1447C43.1489 11.704 44.1833 11.4534 45.2345 11.4534C46.2901 11.4534 47.3261 11.704 48.122 12.1447C48.1949 11.9017 48.2967 11.6089 48.4349 11.2995L48.1342 11.3357L47.8182 11.3689L47.6845 11.0836L47.282 10.2384L46.5484 10.6172L46.2628 10.7621L46.035 10.5387L45.2375 9.7538L44.4416 10.5387L44.2137 10.7621L43.9282 10.6172L43.19 10.2384L42.792 11.0836L42.6553 11.3689ZM43.0715 32.1641C43.0031 32.1581 42.9454 32.2109 42.9409 32.2773C42.9363 32.3467 42.988 32.4056 43.0578 32.4071C43.1246 32.4132 43.1838 32.3619 43.1899 32.294C43.1899 32.2275 43.1413 32.1657 43.0715 32.1641ZM51.2449 40.3314L50.5507 40.0673L50.7421 39.3548L50.9533 38.5775C50.9533 38.5775 49.7229 39.2401 47.9898 39.7382C47.4976 39.8786 47.1255 39.9419 47.1255 39.9419V40.4703C47.1255 40.4703 46.1989 40.6303 45.2617 40.6303H45.2511H45.2374H45.2192H45.2086C44.2713 40.6303 43.3448 40.4703 43.3448 40.4703V39.9419C43.3448 39.9419 42.9712 39.8786 42.4805 39.7382C40.7474 39.2401 39.5186 38.5775 39.5186 38.5775L39.7267 39.3548L39.9226 40.0673L39.227 40.3314L38.4553 40.6182C38.5467 40.662 38.6418 40.7079 38.7401 40.7553C39.593 41.1669 40.6826 41.6927 41.6891 41.9661L41.4249 42.6846C41.4249 42.6846 42.8482 43.3291 45.2192 43.3351V43.3367H45.2268H45.2374H45.2465H45.2527V43.3351C47.6267 43.3291 49.0485 42.6846 49.0485 42.6846L48.7827 41.9661C49.8033 41.6889 50.9118 41.1522 51.7668 40.7382L51.7698 40.7367C51.8541 40.6959 51.936 40.6562 52.015 40.6182L51.2449 40.3314ZM39.2786 40.6665L40.4208 40.2891L40.0836 39.1948C40.5864 39.4786 41.715 39.9042 42.3681 40.102L41.8167 41.6069C40.8082 41.3306 39.9682 41.0092 39.2786 40.6665ZM45.2374 42.9578C43.9114 42.9578 42.397 42.6544 41.9519 42.4974L42.6294 40.6755C43.1914 40.8386 44.361 41.0122 45.2101 41.0061H45.2116H45.2374H45.2602H45.2633C46.1124 41.0122 47.2789 40.8386 47.844 40.6755L48.5199 42.4974C48.0748 42.6559 46.5619 42.9578 45.2374 42.9578ZM48.6551 41.6069L48.1053 40.102C48.7599 39.9042 49.8854 39.4786 50.3897 39.1948L50.0541 40.2891L51.1948 40.6665C50.5036 41.0092 49.6682 41.3306 48.6551 41.6069ZM61.8091 26.6155C63.6364 26.6155 64.247 24.768 64.2729 24.6894L64.4764 24.0389L63.7914 24.06H63.7883C63.5468 24.06 61.5312 24.0072 60.1018 22.2019L59.9666 22.0344L59.9618 22.0283C59.0294 20.8502 58.1442 19.7316 56.5642 19.2208C56.6097 19.1801 56.6751 19.1287 56.7647 19.0714C57.6046 18.522 58.0938 17.8548 58.2168 17.0805C58.396 15.9152 57.6487 14.9869 57.6152 14.9492L57.1064 14.3243L56.789 15.0654L56.7887 15.066C56.7639 15.1206 56.229 16.2986 55.109 16.2986H55.0254C55.0018 16.2972 54.9785 16.296 54.9556 16.2947L54.9552 16.2947C54.9032 16.2919 54.8527 16.2892 54.8021 16.285C54.8416 15.7552 54.7444 14.9356 53.9972 14.1673C53.0994 13.242 51.9967 13.1032 51.4194 13.1032C51.1368 13.1032 50.941 13.1349 50.8939 13.1425C50.8896 13.1432 50.8866 13.1437 50.8848 13.1439L50.1162 13.2949L50.5901 13.9152C50.9623 14.3937 51.2995 15.2767 50.8999 15.7386C50.7789 15.8775 50.5363 15.9919 50.2965 16.105C50.2835 16.1112 50.2704 16.1173 50.2575 16.1235C49.7395 16.3605 49.0332 16.6895 49.0332 17.5287C49.0332 18.0721 49.457 18.6397 50.2256 19.1227C52.5009 20.5446 53.9045 22.0283 54.5105 23.666C55.4477 26.1853 54.225 27.6223 53.0371 28.3784L52.504 28.7196L52.9703 29.1453L52.9708 29.1457C53.0356 29.2022 53.6059 29.6994 54.4467 29.7717C54.6062 29.7822 54.7596 29.7913 54.9024 29.7913C55.4432 29.7913 55.9034 29.7067 56.2771 29.5936C56.1738 29.7732 56.0477 29.9558 55.8882 30.14C55.2093 30.9219 54.3738 31.2781 53.1723 31.2962L52.7257 31.3038L52.6908 31.749C52.6862 31.8381 52.6529 32.6637 53.4396 33.3656C53.5597 33.4743 53.7055 33.5633 53.8574 33.6373C53.3242 34.1143 52.7819 34.9444 52.6772 36.3679C52.589 37.5558 52.3035 37.995 52.3005 37.9995L51.8068 38.7482L52.6984 38.7603C54.1718 38.7603 55.3004 38.3557 56.0826 37.5558C56.5444 37.0817 56.8087 36.5474 56.9651 36.0735C57.2219 36.2909 57.553 36.481 57.9844 36.5821C58.1485 36.6199 58.3277 36.641 58.5206 36.641C58.916 36.641 59.2497 36.562 59.3159 36.5463C59.3194 36.5455 59.3221 36.5449 59.3241 36.5444L59.8937 36.3935L59.6416 35.8652L59.6407 35.8633C59.6121 35.7974 59.1541 34.7451 59.6598 33.2509C59.8801 32.5973 59.9924 32.0117 60.0471 31.5558C60.4056 31.7414 60.8856 31.8954 61.5068 31.8969C62.8769 31.8969 63.5022 30.9088 63.5627 30.8132C63.5644 30.8104 63.5657 30.8084 63.5665 30.8072L63.8445 30.3271L63.3296 30.1158C61.6496 29.423 61.2775 27.5619 61.2031 26.5536C61.3549 26.5823 61.5281 26.6094 61.724 26.6155H61.8091ZM63.1413 30.5611C63.1413 30.5611 62.6491 31.4109 61.5206 31.4109H61.5068C60.1519 31.4033 59.6051 30.5822 59.6051 30.5822C59.6051 30.5822 59.6841 31.6509 59.195 33.0924C58.6072 34.8297 59.1995 36.072 59.1995 36.072C59.1995 36.072 58.8836 36.1565 58.519 36.1565C58.3793 36.1565 58.2335 36.1429 58.0968 36.1067C56.9651 35.8395 56.6827 34.8162 56.6827 34.8162C56.6827 34.8162 56.7874 38.2742 52.7303 38.2742H52.6984C52.6984 38.2742 53.0553 37.7912 53.1617 36.401C53.3546 33.835 55.1029 33.4833 55.1029 33.4833C55.1029 33.4833 54.1703 33.3671 53.7662 33.0063C53.1343 32.4373 53.1784 31.7792 53.1784 31.7792C54.6062 31.7596 55.5404 31.2765 56.2527 30.4569C57.0244 29.5694 57.152 28.614 57.152 28.614C57.152 28.614 56.3849 29.3053 54.9009 29.3053C54.7703 29.3053 54.6306 29.2992 54.4878 29.2856C53.786 29.2298 53.2999 28.786 53.2999 28.786C54.8447 27.8018 55.9292 26.0841 54.9678 23.497C54.1976 21.4246 52.3475 19.8759 50.4853 18.7091C49.8655 18.3243 49.5207 17.8971 49.5207 17.5287C49.5207 16.998 49.9859 16.7822 50.4632 16.5607C50.7652 16.4206 51.072 16.2783 51.2691 16.0525C51.8554 15.3764 51.4878 14.279 50.9789 13.6194C50.9789 13.6194 51.1506 13.5846 51.421 13.5846C51.9572 13.5846 52.8852 13.719 53.6478 14.5039C54.6609 15.5454 54.2401 16.679 54.2401 16.679L54.5121 16.7318C54.668 16.7651 54.8226 16.772 54.9824 16.7792L55.0027 16.7801C55.0209 16.7801 55.0391 16.7805 55.0573 16.7809C55.0756 16.7813 55.0938 16.7816 55.112 16.7816C56.5839 16.7816 57.2416 15.2526 57.2416 15.2526C57.2416 15.2526 58.8062 17.165 56.5034 18.6623C56.1069 18.919 55.9323 19.156 55.9779 19.4095L56.0143 19.5756L56.1783 19.6042C57.7748 20.0344 58.617 21.0996 59.5896 22.3299C59.634 22.386 59.6786 22.4425 59.7236 22.4993C61.2896 24.4781 63.5058 24.5415 63.7792 24.5415H63.808C63.808 24.5415 63.3023 26.1279 61.8122 26.1279H61.8121L61.8033 26.1279L61.7954 26.1279C61.7916 26.1279 61.7877 26.1278 61.7839 26.1278C61.7813 26.1278 61.7786 26.1277 61.776 26.1277C61.7648 26.1275 61.7533 26.1271 61.7408 26.1264C61.0557 26.1023 60.7048 25.8411 60.7048 25.8411C60.7048 25.8411 60.4359 29.4441 63.1413 30.5611ZM60.026 20.6926C59.6782 20.2639 59.2818 19.7808 58.5997 19.4201L57.898 19.0442L58.5481 18.5899C58.5507 18.5883 58.5543 18.5861 58.5589 18.5832L58.559 18.5831C58.6505 18.5257 59.1254 18.2277 59.7556 18.2277C60.2979 18.2277 60.8007 18.4495 61.2169 18.8707C62.2285 19.8986 63.1369 19.9801 63.1702 19.9816L63.8766 20.0239L63.585 20.6669C63.2948 21.3084 62.5293 21.7718 61.7668 21.7718C61.5724 21.7718 61.3809 21.7431 61.2002 21.6812C60.6986 21.5156 60.3752 21.1198 60.0377 20.7068L60.026 20.6926ZM60.869 19.2133C60.4939 18.8284 60.0974 18.7137 59.7572 18.7137C59.2286 18.7137 58.8306 18.9915 58.8306 18.9915C59.5993 19.3975 60.0375 19.9365 60.4055 20.3892C60.7188 20.7746 60.9813 21.0974 61.3536 21.2224C61.4918 21.2692 61.63 21.2903 61.7683 21.2903C62.3652 21.2903 62.9424 20.9053 63.1414 20.4677C63.1414 20.4677 62.0462 20.4012 60.869 19.2133ZM58.9185 25.8336V25.8578C58.5085 22.5703 56.1054 20.1959 53.4321 18.7514C53.1845 18.6201 52.9566 18.5084 52.7349 18.4012C53.549 18.5265 54.8599 18.5416 55.8715 17.6692C55.8715 17.6692 54.3237 18.8012 51.1521 17.7733C51.4067 17.9375 51.7309 18.1212 52.1009 18.3308L52.101 18.3308C53.0069 18.8441 54.1874 19.513 55.2928 20.4314C59.1859 23.8306 56.4001 27.1468 56.4001 27.1468C57.7991 25.6963 57.8568 24.1416 57.4452 22.8721C58.1818 24.0902 58.6527 25.5695 58.5798 27.3929C58.472 30.0057 57.0274 32.2653 55.5069 34.0811C54.7764 34.9626 54.6123 36.0449 54.6123 36.0449C54.6123 36.0449 54.907 35.0894 55.753 34.1068C57.3829 32.2109 58.7758 30.2411 58.958 27.4034C59.1267 27.9182 59.8208 29.3506 60.922 29.8894L60.9217 29.8892C60.8959 29.8731 59.5347 29.0281 58.9185 25.8336ZM38.1696 37.9951C38.1705 37.9968 38.1711 37.9977 38.1711 37.9978L38.6663 38.745L37.7732 38.7571C36.2998 38.7571 35.1727 38.3526 34.3889 37.5526C33.9287 37.0786 33.6628 36.5443 33.5079 36.0704C33.2542 36.2877 32.9201 36.4779 32.4872 36.579C32.3262 36.6168 32.147 36.6379 31.9525 36.6379C31.5494 36.6379 31.2065 36.5551 31.1529 36.5422L31.1528 36.5422L31.149 36.5413L30.5779 36.3903L30.83 35.8621L30.8309 35.86C30.8603 35.7926 31.3187 34.7408 30.8133 33.2477C30.593 32.5941 30.4806 32.0085 30.4259 31.5527C30.066 31.7383 29.5859 31.8923 28.9693 31.8937C27.5776 31.8937 26.9525 30.8785 26.9082 30.8065L26.9065 30.8039L26.6286 30.324L27.142 30.1126C28.8235 29.4183 29.1956 27.5572 29.2716 26.5504C29.1166 26.5806 28.9434 26.6063 28.7505 26.6124L28.6624 26.6154C26.8336 26.6154 26.2245 24.7678 26.2002 24.6893L25.9906 24.0387L26.6787 24.0599C26.9202 24.0599 28.9404 24.0071 30.3683 22.2018L30.5035 22.0343L30.5147 22.0201C31.4447 20.8449 32.3279 19.7288 33.9029 19.2192C33.8573 19.1784 33.7935 19.1271 33.7023 19.0698C32.8623 18.5203 32.3733 17.8532 32.2517 17.0788C32.0735 15.9409 32.7869 15.0267 32.8457 14.9514L32.8487 14.9476L33.3621 14.3226L33.6796 15.0637L33.6799 15.0645C33.7059 15.1216 34.2393 16.297 35.3611 16.297H35.4431C35.466 16.2956 35.4887 16.2944 35.5111 16.2932C35.563 16.2904 35.6139 16.2876 35.6649 16.2834C35.6268 15.7551 35.7256 14.9355 36.4744 14.1657C37.3737 13.2404 38.4734 13.1015 39.0506 13.1015C39.3283 13.1015 39.5193 13.1318 39.5724 13.1403C39.5786 13.1413 39.5829 13.1419 39.5852 13.1422L40.3569 13.2932L39.88 13.9136C39.5093 14.3921 39.1706 15.2766 39.5716 15.737C39.6925 15.8757 39.9347 15.99 40.1743 16.103C40.1876 16.1093 40.2009 16.1156 40.2141 16.1219C40.7321 16.3573 41.4369 16.6879 41.4369 17.5272C41.4369 18.0705 41.0161 18.6381 40.2475 19.1211C37.9691 20.543 36.5671 22.0267 35.961 23.6645C35.0253 26.1821 36.2436 27.6191 37.436 28.3769L37.9691 28.718L37.5028 29.1436C37.439 29.1995 36.8678 29.6976 36.0248 29.77C35.8653 29.7806 35.7149 29.7896 35.5691 29.7896C35.0269 29.7896 34.5696 29.7051 34.196 29.5919C34.2993 29.7716 34.4269 29.9542 34.5848 30.1383C35.2638 30.9187 36.1008 31.2749 37.2992 31.2946L37.7489 31.3021L37.7792 31.7474C37.7838 31.8364 37.8172 32.6621 37.0319 33.364C36.9119 33.4742 36.7691 33.5632 36.6142 33.6357C37.1488 34.1126 37.6896 34.9428 37.7959 36.3662C37.8834 37.5058 38.1469 37.9564 38.1696 37.9951ZM33.7859 34.816C33.7859 34.816 33.6826 38.2741 37.7397 38.2741H37.7686C37.7686 38.2741 37.4147 37.7911 37.3099 36.4009C37.1185 33.8349 35.3687 33.4832 35.3687 33.4832C35.3687 33.4832 36.3013 33.3654 36.7069 33.0062C37.3387 32.4371 37.2932 31.779 37.2932 31.779C35.8653 31.7594 34.9312 31.2764 34.2142 30.4568C33.4472 29.5692 33.3196 28.6138 33.3196 28.6138C33.3196 28.6138 34.0866 29.3052 35.5691 29.3052C35.7028 29.3052 35.841 29.2991 35.9838 29.2855C36.6871 29.2297 37.1732 28.7859 37.1732 28.7859C35.6254 27.8002 34.5423 26.084 35.5023 23.4969C36.2709 21.4245 38.121 19.8758 39.9847 18.709C40.6045 18.3241 40.9493 17.8955 40.9493 17.5286C40.9493 16.9975 40.4841 16.7812 40.0071 16.5594C39.7061 16.4194 39.4004 16.2773 39.204 16.0524C38.6177 15.3763 38.9853 14.2804 39.4926 13.6193C39.4926 13.6193 39.324 13.5845 39.0521 13.5845C38.5175 13.5845 37.5894 13.7174 36.8269 14.5037C35.8122 15.5453 36.2329 16.6789 36.2329 16.6789L35.961 16.7317C35.815 16.7632 35.6664 16.7711 35.5164 16.779C35.5011 16.7799 35.4858 16.7807 35.4704 16.7815C35.4611 16.7815 35.4521 16.7816 35.4432 16.7817C35.4338 16.7819 35.4246 16.7821 35.4155 16.7823L35.4154 16.7823C35.3979 16.7826 35.3806 16.783 35.3626 16.783C33.8876 16.783 33.233 15.2555 33.233 15.2555C33.233 15.2555 31.6685 17.1664 33.9712 18.6652C34.3676 18.9219 34.5408 19.1588 34.4952 19.4124L34.4588 19.5784L34.2917 19.6071C32.6954 20.0395 31.8519 21.1062 30.8771 22.339C30.8343 22.3931 30.7913 22.4475 30.748 22.5022C29.1819 24.481 26.9688 24.5444 26.6939 24.5444H26.6635C26.6635 24.5444 27.1678 26.1308 28.6594 26.1308C28.6837 26.1308 28.7065 26.1308 28.7308 26.1293C29.4174 26.1037 29.7682 25.8441 29.7682 25.8441C29.7682 25.8441 30.0341 29.4455 27.3303 30.561C27.3303 30.561 27.8224 31.4107 28.951 31.4107H28.9647C30.3212 31.4032 30.8665 30.5821 30.8665 30.5821C30.8665 30.5821 30.7875 31.6508 31.2735 33.0923C31.8614 34.8296 31.272 36.0718 31.272 36.0718C31.272 36.0718 31.5864 36.1564 31.951 36.1564C32.0923 36.1564 32.2365 36.1428 32.3717 36.1066C33.5033 35.8394 33.7859 34.816 33.7859 34.816ZM28.7036 21.7734C28.8996 21.7734 29.091 21.7447 29.2718 21.6828C29.7742 21.5178 30.0956 21.1246 30.4316 20.7135L30.4474 20.6942L30.4481 20.6933C30.7973 20.2648 31.1906 19.7822 31.8722 19.4217L32.5739 19.0474L31.9223 18.593L31.92 18.5915L31.916 18.589C31.8372 18.5384 31.358 18.2308 30.7178 18.2308C30.174 18.2308 29.6697 18.4512 29.255 18.8738C28.2434 19.9002 27.3366 19.9832 27.3031 19.9847L26.5969 20.0255L26.887 20.67C27.1786 21.3085 27.9426 21.7734 28.7036 21.7734ZM29.6029 19.2149C29.9796 18.83 30.376 18.7153 30.7178 18.7153C31.2433 18.7153 31.6413 18.993 31.6413 18.993C30.875 19.399 30.437 19.9365 30.0688 20.3884C29.7538 20.7749 29.4899 21.0987 29.1153 21.224C28.9816 21.2707 28.8419 21.2919 28.7036 21.2919C28.1067 21.2919 27.5295 20.9085 27.332 20.4692C27.332 20.4692 27.3321 20.4692 27.3323 20.4692L27.3337 20.469L27.336 20.4688L27.3362 20.4688C27.4103 20.4616 28.4678 20.3589 29.6029 19.2149ZM33.0249 22.8738C32.2866 24.0919 31.8158 25.5711 31.8917 27.3944C31.998 30.0072 33.4426 32.2684 34.9601 34.0812C35.6937 34.9627 35.8593 36.045 35.8593 36.045C35.8593 36.045 35.5615 35.0895 34.7154 34.1069C33.0857 32.211 31.6927 30.2412 31.509 27.4035C31.3403 27.9198 30.6477 29.3507 29.548 29.8895C29.548 29.8895 30.9302 29.0609 31.5515 25.8323V25.8579C31.9631 22.5704 34.3646 20.1961 37.041 18.7515C37.2735 18.6267 37.4937 18.5196 37.7041 18.4172L37.7367 18.4014C36.9225 18.5282 35.6116 18.5432 34.6 17.6708C34.6 17.6708 36.1479 18.8029 39.3179 17.7749C39.0629 17.9396 38.7378 18.124 38.3666 18.3345C37.4621 18.8476 36.2837 19.5159 35.1787 20.4331C31.2841 23.8322 34.0699 27.1484 34.0699 27.1484C32.6695 25.6979 32.6132 24.1432 33.0249 22.8738ZM44.3202 20.7424V21.3945C44.5465 21.1213 44.9839 21.1771 44.9839 21.1771V22.1175C44.9839 22.1175 44.9687 22.5794 44.8032 22.7801H45.2771H45.7495C45.587 22.5809 45.5702 22.1175 45.5702 22.1175V21.1771C45.5702 21.1771 46.0077 21.1213 46.2325 21.3945V20.7424H45.2771H44.3202ZM44.3868 17.1542C44.3468 17.1409 44.1794 17.0855 43.913 16.8752C43.4132 16.4888 43.4026 16.1341 43.4026 16.1326L44.5145 16.5976V17.2119L44.396 17.1575C44.3953 17.157 44.3922 17.1559 44.3868 17.1542L44.3868 17.1542ZM46.5575 16.8752C47.0602 16.4888 47.0694 16.1326 47.0694 16.1326L45.9575 16.5976V17.2119L46.0744 17.1575C46.0752 17.157 46.078 17.1561 46.0826 17.1546C46.1207 17.1423 46.2877 17.0881 46.5575 16.8752ZM45.2404 12.6051C46.9827 12.6051 48.5609 13.4428 48.5609 14.3741L48.5275 14.6036L47.8318 18.5718L48.5275 18.9748L50.335 20.0239H50.329C50.329 20.0239 50.736 20.2307 50.9213 20.359C51.614 20.8345 51.7583 21.5273 51.3588 21.8141C51.2585 21.248 50.8104 20.6578 49.969 20.6578C49.3629 20.6578 48.9027 20.9673 48.526 21.4352C48.4318 21.5529 48.3421 21.6782 48.2556 21.8141C48.1508 21.9846 48.046 22.1356 47.9427 22.2789H52.5998C52.2565 22.9627 51.9314 23.6872 51.9314 24.4737V34.7136C51.9314 37.192 50.0161 38.3754 47.9396 38.3754C47.8164 38.3754 47.7015 38.375 47.5937 38.3746C46.2971 38.3697 46.0508 38.3687 45.2374 39.1784C44.4187 38.369 44.1725 38.3699 42.8724 38.3746C42.7663 38.375 42.6532 38.3754 42.5322 38.3754C40.4573 38.3754 38.5388 37.192 38.5388 34.7136V24.4737C38.5388 23.6872 38.2138 22.9627 37.872 22.2789H42.5276C42.4228 22.134 42.318 21.9846 42.2131 21.8141C42.1281 21.6782 42.037 21.5529 41.9413 21.4352C41.5676 20.9688 41.1059 20.6578 40.4998 20.6578C39.6583 20.6578 39.2087 21.2495 39.11 21.8141C38.7104 21.5273 38.8563 20.8345 39.5444 20.359C39.7327 20.2307 40.1398 20.0239 40.1398 20.0239H40.1337L41.9413 18.9748L42.64 18.5718L41.9443 14.6036L41.9094 14.3741C41.9094 13.4428 43.4876 12.6051 45.2298 12.6051H45.2344H45.239H45.2404ZM45.04 15.6602L42.5944 14.836L43.24 18.5341L45.04 19.4775V15.6602ZM44.2683 23.7235C43.8947 23.5876 43.5012 23.3416 43.1002 22.9446V22.9477H38.8775C39.0583 23.4307 39.2117 23.9544 39.2117 24.4752V29.8502H48.5836C48.1143 29.3702 48.1219 28.7619 48.2404 28.3664C48.1037 28.3015 47.9913 28.2231 47.891 28.137C47.525 28.4042 46.4085 29.2132 46.1153 29.417L46.0531 29.4578L42.3757 28.7981H42.3013C42.2131 28.7981 42.0841 28.7951 41.9428 28.7785C41.9018 28.943 41.759 29.0562 41.5949 29.0562C41.5767 29.0562 41.5554 29.0548 41.5357 29.0517C41.4415 29.0351 41.3565 28.9868 41.3018 28.9068C41.2441 28.8283 41.2228 28.7347 41.238 28.6381L41.2517 28.5597C40.8734 28.294 40.5226 27.7008 40.6775 27.0759L40.6927 27.0095L40.7473 26.9718C40.7549 26.9657 40.8173 26.9234 40.9129 26.8691L40.6456 26.8284C40.5453 26.8102 40.4785 26.7182 40.4937 26.6201C40.5104 26.5219 40.6046 26.4495 40.7033 26.4691L41.3398 26.5687L41.3975 24.3408L42.3453 23.3446L42.9362 24.5809L42.3119 26.7227L42.8739 26.8102C42.9727 26.8253 43.041 26.9174 43.0258 27.0185C43.0106 27.1091 42.9332 27.1694 42.8451 27.1694H42.845C42.8359 27.1694 42.8268 27.1694 42.8162 27.168L42.359 27.094C42.3616 27.1026 42.3657 27.1088 42.3699 27.1151C42.373 27.1198 42.3762 27.1245 42.3787 27.1303C42.4273 27.2314 42.5352 27.3023 42.599 27.334L45.4015 27.3778L45.4091 27.3704C45.5336 27.2498 45.8223 26.97 46.1184 26.6728C45.4273 26.4118 45.1782 25.8216 45.1357 25.4291C44.7514 25.2661 44.484 25.0216 44.3366 24.7046C44.1559 24.3106 44.2197 23.9152 44.2683 23.7235ZM45.9695 29.0698C46.3159 28.8283 47.2728 28.134 47.6449 27.8623C47.3746 27.4698 47.3488 27.0049 47.4095 26.6789C47.2333 26.5657 47.0981 26.4374 46.9903 26.3031C46.5924 26.7342 45.8598 27.4434 45.6558 27.6409C45.627 27.6688 45.6087 27.6865 45.6035 27.6917L45.5503 27.746L42.7418 27.7008C42.7388 27.977 42.6947 28.2124 42.6506 28.3846C42.6468 28.3998 42.643 28.4145 42.6392 28.4293C42.6354 28.444 42.6316 28.4586 42.6279 28.4736L45.9695 29.0698ZM42.3711 27.6238C42.2724 27.5619 42.1296 27.4518 42.0506 27.2872C41.9595 27.097 41.8304 27.0079 41.6405 27.0095C41.3945 27.0095 41.1316 27.1559 41.0177 27.2253C40.9266 27.7521 41.3185 28.2306 41.5813 28.3272C41.8182 28.4132 42.1084 28.4314 42.2557 28.4314C42.2618 28.4132 42.2694 28.3906 42.2769 28.3634C42.2907 28.3196 42.3028 28.2759 42.3119 28.2291C42.3529 28.0177 42.3681 27.7778 42.3711 27.6238ZM41.759 24.4857L41.7028 26.6246L41.9473 26.6608L42.5458 24.608L42.242 23.9771L41.759 24.4857ZM47.1118 37.7218C47.2637 37.7158 47.4323 37.7128 47.6146 37.7128C47.6146 37.7128 48.0505 36.4464 48.0763 36.4071C47.8318 36.3 47.3244 36.0328 47.1285 35.9105C47.1705 35.9729 47.2321 36.0381 47.294 36.1036C47.4223 36.2395 47.5518 36.3766 47.5097 36.4916L47.1118 37.7218ZM48.6034 37.6615L48.8632 36.315C48.892 36.1671 48.9194 35.9709 48.9194 35.9679C48.9047 35.9531 48.887 35.9359 48.867 35.9165C48.7503 35.8031 48.5561 35.6145 48.4394 35.3928C48.3435 35.2085 48.3253 35.0702 48.3049 34.9143C48.2865 34.774 48.2663 34.6194 48.1857 34.4042C48.1857 34.4042 48.2388 34.2985 48.3589 34.2985C48.3771 34.2985 48.3983 34.3 48.4181 34.306C48.5761 34.3509 48.684 34.6172 48.8058 34.918C48.971 35.3257 49.1617 35.7966 49.5376 35.8652C49.6014 35.8773 49.6606 35.8818 49.7123 35.8818C49.9006 35.8818 50.013 35.8034 50.1345 35.66C50.1345 35.66 49.8065 35.1468 49.5604 34.8011C49.5087 34.7292 49.4589 34.6549 49.4092 34.5809C49.145 34.1874 48.8852 33.8004 48.3726 33.8004C48.3573 33.8004 48.3407 33.8004 48.3255 33.8019C48.1249 33.8124 48.0019 33.909 48.0019 33.909C47.7558 33.7551 47.525 33.7022 47.3184 33.7022C47.0849 33.7022 46.8829 33.7679 46.7274 33.8184C46.6301 33.8501 46.5509 33.8758 46.4936 33.8758H46.4875L45.1295 33.743C44.9169 33.7234 44.7498 33.5105 44.689 33.4275C44.6739 33.4049 44.6663 33.3913 44.6663 33.3913C44.6663 33.3551 44.6663 33.3174 44.6633 33.2842C44.6176 32.1822 43.7579 31.7098 43.4511 31.7023C43.4511 31.7023 43.4861 31.4924 43.4041 31.4125L43.1048 31.7732L42.122 31.2827L42.8238 32.0962L42.2299 32.7574C42.1539 32.8328 42.1646 32.9339 42.1949 32.9777L42.4516 33.2026L42.7767 33.0064C42.7934 32.9943 42.8238 32.9913 42.8587 32.9913C42.9002 32.9913 42.9513 32.9961 43.0063 33.0013C43.0704 33.0074 43.1397 33.0139 43.205 33.0139C43.3387 33.0139 43.4526 32.9868 43.4663 32.863C43.454 32.9863 43.4107 33.1369 43.3632 33.3026C43.2529 33.6867 43.1196 34.1513 43.2946 34.5415L43.4815 34.9641L42.2815 34.792L41.7195 35.7355C41.5448 36.0494 41.5175 36.3875 41.6846 36.5731L41.8957 36.8343C41.8957 36.8343 42.1904 36.5249 42.2557 36.3196L42.16 36.2154C42.0795 36.1279 42.0825 36.0479 42.1327 35.9543L42.4851 35.3747L43.9022 35.7067L43.9782 35.5799C44.0739 35.4199 44.2121 35.3732 44.364 35.3732C44.4263 35.3732 44.4901 35.3807 44.5569 35.3913C44.8197 35.4426 45.2526 35.512 45.6855 35.512C46.1594 35.512 46.6318 35.429 46.8825 35.1482C47.1455 35.5357 47.5469 35.756 47.8648 35.9304C48.1674 36.0964 48.3943 36.2209 48.3543 36.4086L48.0809 37.7037C48.2617 37.6961 48.4378 37.6841 48.6034 37.6615ZM41.6329 35.1966L41.5707 35.0411C41.5251 34.9399 41.5311 34.8298 41.6162 34.7709L42.1236 34.4222L42.9711 34.5837C42.9711 34.5837 42.8177 34.3935 42.8329 34.1384L42.0248 33.9679L41.2623 34.4298C40.9342 34.6728 40.9114 35.0698 41.0193 35.3052L41.121 35.5256C41.121 35.5256 41.5919 35.3324 41.6329 35.1966ZM49.2232 36.383L48.9908 37.5875C50.3806 37.2478 51.2631 36.2064 51.2616 34.712L51.2585 30.2095H39.2102V34.712C39.2102 36.5535 40.5515 37.7067 42.5306 37.7067C44.1848 37.7067 44.6208 37.7701 45.2359 38.3769C45.6597 37.9558 46.0106 37.7988 46.7305 37.7415L46.7473 37.6705L47.127 36.5052C47.1057 36.4781 46.4845 35.7777 46.4845 35.7777C46.2369 35.8592 46.0303 35.8727 45.684 35.8727C45.327 35.8727 44.9245 35.832 44.4886 35.7505C44.4445 35.7414 44.4035 35.7369 44.3625 35.7369C44.3093 35.7369 44.3047 35.7414 44.2911 35.7671L44.2152 35.8909L44.0769 36.1173L43.8172 36.0585L42.6612 35.7882L42.5033 36.0479L42.526 36.0751L42.6674 36.229L42.605 36.4298C42.52 36.6924 42.245 36.9988 42.16 37.0833L41.8714 37.3912L41.6086 37.0607L41.4112 36.8132C41.2016 36.5807 41.1545 36.2275 41.2714 35.8562C41.2695 35.8581 41.267 35.8594 41.2643 35.8604C41.2627 35.8611 41.261 35.8616 41.2593 35.8622L40.9342 35.9965L40.7868 35.6796L40.6835 35.4547C40.5058 35.0592 40.5712 34.4811 41.0496 34.1325L41.9808 33.6102L42.8663 33.7838C42.876 33.7454 42.8878 33.6622 42.9002 33.5756C42.915 33.4714 42.9305 33.3624 42.9438 33.3203C42.9372 33.3197 42.9308 33.3187 42.9244 33.3176C42.9146 33.316 42.9047 33.3143 42.8937 33.3143L42.3833 33.503L41.8912 33.1664C41.8912 33.1664 41.6982 32.9823 41.8729 32.7981L42.3499 32.0811L41.1423 30.5747L42.9985 31.3325L43.1215 31.18L43.3722 30.8811L43.6577 31.1498C43.7382 31.2268 43.7838 31.3219 43.8065 31.417C44.3184 31.6147 45.2359 32.1989 45.3164 33.1483L45.0293 33.263V33.269C45.0946 33.3476 45.1493 33.3792 45.166 33.3822L46.492 33.5121C46.5148 33.508 46.5417 33.4997 46.5713 33.4905C46.5854 33.4862 46.6 33.4817 46.6151 33.4773C46.7792 33.4215 47.0267 33.3415 47.3199 33.3415C47.5584 33.3415 47.7877 33.3943 48.011 33.4985C48.0916 33.4683 48.1918 33.4457 48.3088 33.4381L48.3726 33.4366C49.0812 33.4366 49.4351 33.9624 49.7175 34.3818L49.7183 34.383C49.7654 34.4569 49.8125 34.5249 49.8611 34.5928C50.1102 34.9399 50.4323 35.4472 50.4459 35.4697L50.5917 35.6962L50.4125 35.9029C50.2743 36.0615 50.0677 36.2471 49.7123 36.2471C49.6394 36.2471 49.5588 36.2396 49.4723 36.223C49.3963 36.2094 49.3265 36.1867 49.2611 36.1596C49.2505 36.229 49.2353 36.312 49.2232 36.383ZM51.2585 24.4721C51.2585 23.9514 51.412 23.4276 51.5958 22.9446V22.9431H47.3776C46.7305 23.5801 46.1093 23.8171 45.5549 23.8714C45.4546 23.8819 45.3529 23.888 45.2496 23.888H45.242H45.2359C45.1326 23.888 45.0293 23.8819 44.9291 23.8714C44.8318 23.8639 44.7301 23.8473 44.6283 23.8246C44.5919 23.968 44.5448 24.2669 44.6769 24.5521C44.7939 24.8103 45.0324 25.0019 45.3802 25.1302L45.4971 25.1755L45.4987 25.3008C45.4987 25.3386 45.526 26.1521 46.4161 26.377C46.5604 26.2291 46.6926 26.0933 46.7913 25.9815C46.6091 25.5559 46.7047 25.1212 46.969 24.9083C46.9584 24.9521 46.8414 26.0193 47.7011 26.4147L47.8424 26.4812L47.7999 26.6321C47.7847 26.6759 47.4991 27.7083 48.5396 28.0917L48.7234 28.1612L48.6414 28.3393C48.6217 28.3785 48.2146 29.3144 49.1761 29.8456H51.2601V28.2004C50.5188 28.1099 50.2044 27.5181 50.1239 27.0985C49.7791 27.0397 49.5133 26.8918 49.3295 26.6503C48.9396 26.1404 49.1965 25.6688 49.2601 25.552C49.2677 25.538 49.2726 25.5291 49.2732 25.5259C49.2718 25.5377 49.2755 26.091 49.6196 26.4329C49.7913 26.5989 49.9948 26.7287 50.3016 26.7574L50.4535 26.771L50.4672 26.925C50.4702 26.9581 50.5538 27.7144 51.2601 27.8321L51.2585 24.4721ZM49.1715 20.0239L48.3483 19.5484L47.5007 19.0669L45.2404 20.2895L45.2344 20.285L45.2298 20.2895L42.9696 19.0669L42.1236 19.5484L41.3003 20.0239H41.2912L41.0815 20.1431C41.5478 20.2699 41.9018 20.4994 42.201 20.8027C42.2147 20.8148 42.2238 20.8284 42.2375 20.839C42.3028 20.9099 42.3681 20.9869 42.4319 21.0639C42.4471 21.082 42.4608 21.0986 42.4759 21.1198C42.5352 21.1967 42.5929 21.2782 42.6506 21.3613C42.6628 21.3779 42.675 21.3974 42.6886 21.4171C42.7569 21.5197 42.8208 21.6254 42.8846 21.7341C43.4709 22.7378 44.4066 23.3371 45.2374 23.3386C46.0698 23.3371 47.0055 22.7378 47.5918 21.7341C47.6571 21.6223 47.7224 21.5137 47.7908 21.4126C47.8014 21.399 47.812 21.3838 47.8212 21.3688C47.8789 21.2812 47.9381 21.1982 48.0019 21.1167C48.0156 21.1001 48.0278 21.0835 48.0399 21.0684C48.1037 20.9884 48.172 20.9099 48.2404 20.8374C48.2439 20.8339 48.2475 20.8302 48.251 20.8265C48.2581 20.8192 48.2652 20.8118 48.2723 20.8058C48.57 20.5024 48.9254 20.2715 49.3903 20.1431L49.1837 20.0239H49.1715ZM45.4318 19.479L47.2333 18.5356L47.8758 14.836L45.4318 15.6602V19.479ZM42.5565 14.1885L45.2359 15.2406L47.9153 14.1885C47.689 13.6526 46.6379 13.1968 45.2359 13.1953C43.8354 13.1968 42.7843 13.6526 42.5565 14.1885Z" fill="#333333"/>
<path d="M14.8533 58.8334V54.09H17.6297V52.3638H10.0553V54.09H12.8316V58.8334H14.8533ZM20.393 56.1287V52.3638H18.4388V58.8334H20.1639L23.5332 55.0685V58.8334H25.4875V52.3638H23.7624L20.393 56.1287ZM32.062 56.4277V58.8334H34.0163V52.3638H32.062V54.7287H28.9217V52.3638H26.9675V58.8334H28.9217V56.4277H32.062ZM39.4587 58.8334C39.9034 58.8334 40.3077 58.7926 40.6851 58.6839C41.6959 58.3984 42.3563 57.5694 42.3563 56.4413C42.3563 55.3675 41.7902 54.62 40.8872 54.2802C40.456 54.1171 39.9438 54.1035 39.4587 54.1035H37.4505V52.3638H35.4963V58.8334H39.4587ZM39.1217 55.6258C39.3912 55.6258 39.6473 55.6258 39.8764 55.7074C40.1999 55.8161 40.3886 56.0879 40.3886 56.4141C40.3886 56.7539 40.1999 57.0394 39.8899 57.1752C39.6743 57.2703 39.4587 57.2703 39.1217 57.2703H37.4505V55.6258H39.1217ZM45.8603 56.387L48.1918 58.8334H50.793L47.5449 55.4627L50.6717 52.3638H48.2188L45.8603 54.7967H45.3212V52.3638H43.3669V58.8334H45.3212V56.387H45.8603ZM54.8141 52.1872C52.1861 52.1872 50.6092 53.6822 50.6092 55.6122C50.6092 57.5422 52.1861 59.0373 54.8141 59.0373C57.4288 59.0373 59.0057 57.5422 59.0057 55.6122C59.0057 53.6822 57.4288 52.1872 54.8141 52.1872ZM54.8141 57.4607C53.5069 57.4607 52.6712 56.6723 52.6712 55.6122C52.6712 54.5521 53.5069 53.7773 54.8141 53.7773C56.108 53.7773 56.9571 54.5521 56.9571 55.6122C56.9571 56.6723 56.108 57.4607 54.8141 57.4607ZM65.5139 51.9968H63.5597V52.6492C61.1068 52.7036 59.6378 53.7501 59.6378 55.5986C59.6378 57.447 61.1068 58.4121 63.5597 58.4665V59.1188H65.5139V58.4665C67.9803 58.4121 69.4494 57.447 69.4494 55.5986C69.4494 53.7501 67.9803 52.7036 65.5139 52.6492V51.9968ZM63.5597 57.0801C62.212 57.0257 61.619 56.4685 61.619 55.5986C61.619 54.7287 62.212 54.1035 63.5597 54.0492V57.0801ZM65.5139 54.0492C66.8752 54.1035 67.4547 54.7287 67.4547 55.5986C67.4547 56.4685 66.8752 57.0257 65.5139 57.0801V54.0492ZM75.9512 51.9968H73.9969V52.6492C71.544 52.7036 70.075 53.7501 70.075 55.5986C70.075 57.447 71.544 58.4121 73.9969 58.4665V59.1188H75.9512V58.4665C78.4175 58.4121 79.8869 57.447 79.8869 55.5986C79.8869 53.7501 78.4175 52.7036 75.9512 52.6492V51.9968ZM73.9969 57.0801C72.6491 57.0257 72.0561 56.4685 72.0561 55.5986C72.0561 54.7287 72.6491 54.1035 73.9969 54.0492V57.0801ZM75.9512 54.0492C77.3121 54.1035 77.8922 54.7287 77.8922 55.5986C77.8922 56.4685 77.3121 57.0257 75.9512 57.0801V54.0492Z" fill="#333333"/>
</svg>
