<svg width="47" height="15" viewBox="0 0 47 15" fill="none" xmlns="http://www.w3.org/2000/svg">
<g clip-path="url(#clip0_112_66)">
<path d="M20.3666 14.7836H16.5593L18.9407 0.263184H22.7478L20.3666 14.7836Z" fill="#00579F"/>
<path d="M34.1685 0.618191C33.4176 0.324391 32.2265 0 30.7537 0C26.9938 0 24.3461 1.97714 24.3299 4.80386C24.2987 6.88941 26.2255 8.04777 27.6667 8.74316C29.1397 9.45374 29.6404 9.91754 29.6404 10.5509C29.6254 11.5237 28.4501 11.9721 27.354 11.9721C25.8339 11.9721 25.0195 11.7409 23.7817 11.1997L23.2804 10.9677L22.7476 14.2272C23.6406 14.6284 25.2857 14.9844 26.9938 15C30.9887 15 33.5895 13.0535 33.6203 10.0411C33.6355 8.38818 32.6181 7.12162 30.4245 6.08664C29.0929 5.42226 28.2773 4.97427 28.2773 4.29449C28.293 3.6765 28.9671 3.04353 30.4703 3.04353C31.708 3.01252 32.6175 3.30591 33.3064 3.59951L33.6507 3.7537L34.1685 0.618191V0.618191Z" fill="#00579F"/>
<path d="M39.2288 9.63952C39.5423 8.80534 40.7489 5.57683 40.7489 5.57683C40.733 5.60783 41.0618 4.72726 41.2498 4.18667L41.5159 5.43784C41.5159 5.43784 42.2368 8.91354 42.3934 9.63952C41.7984 9.63952 39.9808 9.63952 39.2288 9.63952ZM43.9285 0.263184H40.9835C40.0753 0.263184 39.3854 0.525571 38.9935 1.46795L33.3382 14.7834H37.3331C37.3331 14.7834 37.9908 12.9912 38.1322 12.6052C38.5705 12.6052 42.4567 12.6052 43.0205 12.6052C43.1298 13.115 43.4748 14.7834 43.4748 14.7834H47L43.9285 0.263184V0.263184Z" fill="#00579F"/>
<path d="M13.3793 0.263184L9.65064 10.1647L9.2432 8.15656C8.55385 5.83942 6.39192 3.3219 3.97931 2.07012L7.3946 14.7682H11.4207L17.4052 0.263184H13.3793V0.263184Z" fill="#00579F"/>
<path d="M6.18829 0.263184H0.0626675L0 0.556572C4.77837 1.76154 7.94299 4.66607 9.24319 8.15718L7.91155 1.48376C7.69232 0.556367 7.01859 0.293775 6.18829 0.263184Z" fill="#FAA61A"/>
</g>
<defs>
<clipPath id="clip0_112_66">
<rect width="47" height="15" fill="white"/>
</clipPath>
</defs>
</svg>
