<svg width="21" height="29" viewBox="0 0 21 29" fill="none" xmlns="http://www.w3.org/2000/svg">
<path d="M17.5443 0.041905H5.54435C5.47877 0.0411056 5.41375 0.0540385 5.35348 0.079872C5.2932 0.105706 5.23899 0.143868 5.19435 0.191905L0.194347 5.19191C0.146309 5.23655 0.108147 5.29076 0.0823132 5.35103C0.0564797 5.41131 0.043547 5.47633 0.0443464 5.5419V25.5419C0.0443464 26.2049 0.307739 26.8408 0.776579 27.3097C1.24542 27.7785 1.88131 28.0419 2.54435 28.0419H17.5443C18.2074 28.0419 18.8433 27.7785 19.3121 27.3097C19.781 26.8408 20.0443 26.2049 20.0443 25.5419V2.5419C20.0443 1.87886 19.781 1.24298 19.3121 0.774138C18.8433 0.305297 18.2074 0.041905 17.5443 0.041905Z" fill="url(#paint0_linear_203_9)"/>
<path d="M5.73436 0.0419066C5.64423 0.0010624 5.5435 -0.0102931 5.44654 0.00945836C5.34958 0.0292098 5.26133 0.0790603 5.19436 0.151907L0.194356 5.15191C0.105787 5.21604 0.0423506 5.30904 0.0149714 5.41491C-0.0124079 5.52078 -0.00201659 5.63288 0.044356 5.73191C0.0842326 5.8298 0.154105 5.91253 0.243939 5.96823C0.333772 6.02392 0.438946 6.04972 0.544356 6.04191H3.54436C3.87266 6.04191 4.19775 5.97724 4.50106 5.85161C4.80438 5.72597 5.07998 5.54182 5.31212 5.30967C5.54427 5.07753 5.72842 4.80193 5.85405 4.49862C5.97969 4.1953 6.04436 3.87021 6.04436 3.54191V0.541907C6.05217 0.436497 6.02637 0.331323 5.97067 0.241489C5.91498 0.151655 5.83224 0.0817833 5.73436 0.0419066Z" fill="url(#paint1_linear_203_9)"/>
<path d="M6.7044 9.04191C6.64273 9.01999 6.5773 9.01065 6.51196 9.01444C6.44662 9.01823 6.38271 9.03507 6.32398 9.06396C6.26526 9.09286 6.21292 9.13322 6.17006 9.18268C6.12719 9.23213 6.09466 9.28968 6.0744 9.35191L5.0744 12.4319L4.0744 9.35191C4.0597 9.2828 4.03053 9.21759 3.9888 9.16057C3.94707 9.10356 3.89372 9.05604 3.83229 9.02114C3.77085 8.98625 3.70272 8.96477 3.63238 8.95812C3.56204 8.95147 3.49109 8.95981 3.4242 8.98258C3.35732 9.00535 3.29602 9.04203 3.24434 9.09022C3.19267 9.1384 3.15179 9.19699 3.12441 9.26212C3.09703 9.32726 3.08376 9.39745 3.08548 9.46809C3.08721 9.53872 3.10388 9.60819 3.1344 9.67191L4.5144 14.0419L3.0444 18.3819C3.02249 18.4436 3.01315 18.509 3.01693 18.5743C3.02072 18.6397 3.03756 18.7036 3.06646 18.7623C3.09535 18.821 3.13572 18.8734 3.18517 18.9163C3.23463 18.9591 3.29217 18.9916 3.3544 19.0119C3.40731 19.0215 3.4615 19.0215 3.5144 19.0119C3.61873 19.0127 3.72058 18.9801 3.80512 18.9189C3.88965 18.8578 3.95246 18.7712 3.9844 18.6719L4.9844 15.5919L5.9844 18.6719C6.01634 18.7712 6.07915 18.8578 6.16368 18.9189C6.24822 18.9801 6.35007 19.0127 6.4544 19.0119C6.50731 19.0215 6.5615 19.0215 6.6144 19.0119C6.67663 18.9916 6.73417 18.9591 6.78363 18.9163C6.83308 18.8734 6.87345 18.821 6.90234 18.7623C6.93124 18.7036 6.94808 18.6397 6.95187 18.5743C6.95565 18.509 6.94632 18.4436 6.9244 18.3819L5.5744 14.0419L7.0444 9.70191C7.0708 9.63656 7.08279 9.5663 7.07955 9.4959C7.07632 9.4255 7.05794 9.35663 7.02567 9.29398C6.99339 9.23133 6.94799 9.17639 6.89254 9.13288C6.8371 9.08938 6.77293 9.05835 6.7044 9.04191Z" fill="#F8EDEB"/>
<path d="M11.5444 18.0419H9.04437V9.5419C9.04437 9.40929 8.99169 9.28212 8.89793 9.18835C8.80416 9.09458 8.67698 9.0419 8.54437 9.0419C8.41176 9.0419 8.28459 9.09458 8.19082 9.18835C8.09705 9.28212 8.04437 9.40929 8.04437 9.5419V18.5419C8.04437 18.6745 8.09705 18.8017 8.19082 18.8955C8.28459 18.9892 8.41176 19.0419 8.54437 19.0419H11.5444C11.677 19.0419 11.8042 18.9892 11.8979 18.8955C11.9917 18.8017 12.0444 18.6745 12.0444 18.5419C12.0444 18.4093 11.9917 18.2821 11.8979 18.1883C11.8042 18.0946 11.677 18.0419 11.5444 18.0419Z" fill="#F8EDEB"/>
<path d="M15.5444 13.5419H14.5444C14.4118 13.5419 14.2846 13.4892 14.1908 13.3955C14.0971 13.3017 14.0444 13.1745 14.0444 13.0419V10.5419C14.0444 10.4093 14.0971 10.2821 14.1908 10.1883C14.2846 10.0946 14.4118 10.0419 14.5444 10.0419H16.5444C16.677 10.0419 16.8042 9.98922 16.8979 9.89545C16.9917 9.80169 17.0444 9.67451 17.0444 9.5419C17.0444 9.40929 16.9917 9.28212 16.8979 9.18835C16.8042 9.09458 16.677 9.0419 16.5444 9.0419H14.5444C14.1465 9.0419 13.765 9.19994 13.4837 9.48124C13.2024 9.76254 13.0444 10.1441 13.0444 10.5419V13.0419C13.0444 13.4397 13.2024 13.8213 13.4837 14.1026C13.765 14.3839 14.1465 14.5419 14.5444 14.5419H15.5444C15.677 14.5419 15.8042 14.5946 15.8979 14.6883C15.9917 14.7821 16.0444 14.9093 16.0444 15.0419V17.5419C16.0444 17.6745 15.9917 17.8017 15.8979 17.8955C15.8042 17.9892 15.677 18.0419 15.5444 18.0419H13.5444C13.4118 18.0419 13.2846 18.0946 13.1908 18.1883C13.0971 18.2821 13.0444 18.4093 13.0444 18.5419C13.0444 18.6745 13.0971 18.8017 13.1908 18.8955C13.2846 18.9892 13.4118 19.0419 13.5444 19.0419H15.5444C15.9422 19.0419 16.3237 18.8839 16.605 18.6026C16.8863 18.3213 17.0444 17.9397 17.0444 17.5419V15.0419C17.0444 14.6441 16.8863 14.2625 16.605 13.9812C16.3237 13.6999 15.9422 13.5419 15.5444 13.5419Z" fill="#F8EDEB"/>
<defs>
<linearGradient id="paint0_linear_203_9" x1="0.651475" y1="4.65699" x2="21.3023" y2="25.3227" gradientUnits="userSpaceOnUse">
<stop stop-color="#00916E"/>
<stop offset="1" stop-color="#007758"/>
</linearGradient>
<linearGradient id="paint1_linear_203_9" x1="0.147061" y1="14.115" x2="20.0398" y2="14.115" gradientUnits="userSpaceOnUse">
<stop stop-color="#00916E"/>
<stop offset="1" stop-color="#007758"/>
</linearGradient>
</defs>
</svg>
